<mxfile host="app.diagrams.net" modified="2024-04-30T03:44:08.371Z" agent="Mozilla/5.0 (Windows NT 10.0; Win64; x64) AppleWebKit/537.36 (KHTML, like Gecko) Chrome/124.0.0.0 Safari/537.36" etag="KsRAQu8TVnGLZTlXufCC" version="24.3.1" type="github">
  <diagram name="第 1 页" id="CPWzjV6Pxk5PBc00xk-d">
    <mxGraphModel dx="1434" dy="772" grid="1" gridSize="10" guides="1" tooltips="1" connect="1" arrows="1" fold="1" page="1" pageScale="1" pageWidth="1169" pageHeight="827" math="0" shadow="0">
      <root>
        <mxCell id="0" />
        <mxCell id="1" parent="0" />
        <mxCell id="L8nepF0H7HIKw9ve7Z6O-1" value="" style="shape=image;verticalLabelPosition=bottom;labelBackgroundColor=default;verticalAlign=top;aspect=fixed;imageAspect=0;image=data:image/png,iVBORw0KGgoAAAANSUhEUgAAAkgAAAG7CAYAAAA48GqFAAAgAElEQVR4Ae29CbgeRZn3fZIQQJRPv+H93EZFQAOOGRnN6Os2RGBiVGTcHceADDgojDq+l8Ml88oqsvgOmwgqJCwSoizGAQFBHA0wkETWiUN4FSSCwEBCZE0IWU53fddd59RDd3X1eZauqvN096+uq9Ldd1ffdS//6vrfz3nOyYiiEQEiQASIABEgAkSACOQiMJK74oIIEAEiQASIABEgAkRAQZAAAREgAkSACBABIkAErAhAkKyAcEkEiAARIAJEgAgQAQgSGCACRIAIEAEiQAT6jsArX/lKNTIyorbffvu+nl20aJF+Tp6dqO2888563Lbbbls6bNOmTR1db3/720vHDXJjYusG0cgzRIAIEAEiQASIQKMjIORG+t57790hKN0cfvLJJztjzfNlz5j7e+21V+cZ11gzbo899tDjpkyZ4ho2kAyCNFDYeIgIEAEiQASIQDsjYEhJ1nuXLHvfPp9o/NZbb63JTvYZ+RRJnsk2uZ45c2ZWpMf8+Z//eU426EV+tkG18BwRIAJEgAgQASLQiggIMdm8eXPBV5vAFAZkBDK2bLzIH3744czosdPs+AcffND5/ER6Cwq7CCBIXQLEbSJABIgAESACRGAsAuY7P654ZAmM635WNhGRKdOTle+3335OgvRnf/ZnTnl27l7PoxOk5JR3KzoxAANgAAyAgaZgoNcN18e4Y0dmKN/dkJXssczWSy+9tJSAZAlM2fNGbuYy1+Z4yy239KT/BS94gXPcV7/6Vafc6O/nCEGCsEFYwQAYAANgoAIG+tl0q471TY5EXz9t8eLFpQTEB0G6/fbbe9L/ohe9yDnusMMOc8r78dGMhSBVWBRNqX7wg0oeDIABMDA4BsyGGuN43MgM5bv3Y7d8N6iMCJXJXfrLPkFKkqQn/X/913/tHDd79myn3GVDNxkECYJE5QgGwAAYAAMVMNBto/V53zc5En39NiE3Tz31VOExHwRJlIqeu+66a0L95k8G2IPKiJc9rpdrCFKFRUHFNXjFReyIHRgAA03BQC+bra8xx4/MUL57v7YJCZk+fXrusd12262vT24mIjKue3Pnzi3ol3EnnXRSzg6R+fpbSBAkCBKVIxgAA2AADFTAQG6HDnxx4sgM5bsPYrIhMaOjo5osybXdymTm2ezR9azc37Jli9puu+0K5EjGm0+RTj/9dLVx40Y9xjWnrbvX66JHvT454LimVAz4QfULBsAAGAADgoGYzTc5En2DtgMOOECTkn333bdnFcuXL1eu7lJw6KGHav3yfaOJ2lZbbaXHHX300RMN6/seBKlC1cDLkZcjGAADYAAM9L3zVnjgmyMzlO9ewZxGPwpBgiDx0ToYAANgAAxUwEBMlvCvIzOU7x7T/jrNBUGqsCioHKkcwQAYAANgIOam75sciT6aOwIQJAgSlSMYAANgAAxUwIB7ew0jPXlkhvLdw1haf60QpAqLgsqRyhEMgAEwAAZiUgHf5Ej00dwRgCBBkKgcwQAYAANgoAIG3NtrGOmpIzOU7x7G0vprhSBVWBRUjlSOYAAMgAEwEJMKnD4yQ/nuMe2v01wQJAgSlSMYAANgAAxUwEDMTd83ORJ9NHcEIEgVFgWVI5UjGAADYAAMuLfXMNIzRmYo3z2MpfXXCkGCIFE5ggEwAAbAQAUMxKQCZ47MUL57TPvrNBcEqcKioHKkcgQDYAAMgIGYm75vciT6aO4IQJAgSFSOYAAMgAEwUAED7u01jPQ7IzOU7x7G0vprhSBVWBRUjlSOYAAMgAEwEJMK+CZHoo/mjgAECYJE5QgGwAAYAAMVMODeXsNIvzcyQ/nuYSytv1YIUoVFQeVI5QgGwAAYAAMxqcA5IzOU7x7T/jrN1S6CdNN8lSw6uH2V0pVHqeSGs9rnt5DfJWe0M+fn7zeW89Nmty/v5LydOb/m+EnzO+am75sciT6aOwKtIEgu19tS9dm+J/M/MWkvkZgxT+9barveCr8lxnZLH3+wFb6T8+cz35acJ9/a63mnx88m4x1XMCKgYMHIDOW7BzS31qobT5DSB27TCcpuziJINzzV+E1D+7np2ef9/NbeY7E4Y87zsob+iFEcTc7/dMfPdO2qMd8b6q/Bt3ZSfM/4KbK24N32W+MgE4vs/aac6/xm1/k4SU5Y57l1EDLfZt3FOJ43MkP57jHsruMcjSdIkpTk4i/kF8rpY1VHyAUz6bovPlTj0bbDgNSWN+m6zEeNhRZsljbe083PObHQ+Jy3YZ0bMmThurU5N/G46Zz8O9+Kj2/sm3dOjKNvciT6aO4ItIMgORaHhCM552NRF5HvRTmRvvSpR3TG7TEGBra8SdfiY7ri8kJum55zyaH20cb7Vce45fa4Gl+Lg+Q882XpluTchXcNdutT1NDvNzNnjOMFIzOU7x7D7jrOUUqQpk6dqqZMmVLoIq/SQgPV1i+22jK5lpbessh5zzW+bjKTI9vudNOz+pYtb9K1OJgsPKiQ26bnPPnxYaW51TGpMQHqhk9yniFH43luQ85dPk7GO07siNV8kyPRR3NHoECQnn76aWXI0de+9jWVJEnnyfPOO0/fk/sHHHBAR97PSbcXne/7YptLp8jTFVc477nG101mcmLbnT7zmL5ly5t0rXN+7t8Wctv0nCdXH1uaWx2TphMkcp7DfBty7vJxMt5xeuFF+ufCkRnKd49keu2mKRAk+dTo/e9//4SO3HPPPfqTpQkHKaVGRkYKPfZGLDa65tTyJd923nONr5vM5Ma2u0xuj6vztc7tj75SyG3Tcy6fmmkfbSLUgu/ikHPrE6SW5NyFd70ISt77od5rZs4Yx4UjM5TvHsPuOs5RIEi9/ghNxq1cubJvn0MBtEyvGOi6VyZ3ja2jLL37Op0b23aTMFvepGvxMX3svkLem55zyaHLx/TOxU45ObdIhU0sa3Ld5py7fBdZ+szqwvoPiXe9wCL945sciT6aOwKVCJL8OK7fFhKkLt1iX/rbX+YXyy9O02a7xjdJJk7a/uh4pElBbo+r83X6xEPO/LriUWc/Xbbr/Fp418FwYMH1fF1lzpyzztu7zs/+SFTfzRqLcVw0MkP57jHsruMcBYK03Xbbdf3xmXx61OsnTXZQor+Av7OPNiG5+pjOghFBcumXOtfRbYpUmcrfvtG+js8nVVX2uql+i1/S0i0bOznWgoaTBPHbznmy8EDtehvwLo7a61zLIq23yVpPpTlvuN/DtM7N+yXG8YcjM5TvHsPuOs5RIEjixFZbbdX5orb9m2xCjEQ2aJuUl8iiz+XMTX56XGfjnBR7Ir640kd/k/c94tyTHdus4+m6ta3JeWLjvaU5Z50340eI3d4jw7DOszaEPvdNjkQfzR0BJ0GSoaOjo+pv/uZvcr/m/8Y3vlH95jf5DdettlzaDezcb8dLjTyTZzAABpqCgfIdz/+dS0ZmKN/dv5XN0FhKkEK515QFgR+83MEAGAADYEAwELNdNjJD+e4x7a/TXBCkFv34gZc5L3MwAAbAgH8MxNz0fZMj0UdzRwCCBEFqz3dzyDW5BgNgIAAG3NtrGOnikRnKdw9jaf21QpACLBYqNP8VGjElpmAADAwrBmJSAd/kSPTR3BGAIEGQqCjBABgAA2CgAgbc22sY6b+NzFC+exhL668VglRhUQxrNYNdVNpgAAyAgXgYiEkFrhiZoXz3mPbXaS4IEgSJyhEMgAEwAAYqYCDmpu+bHIk+mjsCEKQKi4IKLV6FRqyJNRgAA8OKAff2GkZ65cgM5buHsbT+WiFIECQqRzAABsAAGKiAgZhU4OqRGcp3j2l/neaCIFVYFMNazWAXlTYYAANgIB4GYm76vsmR6KO5IwBBgiBROYIBMAAGwEAFDLi31zDSa0ZmKN89jKX11wpBqrAoqNDiVWjEmliDATAwrBiISQV8kyPRN0g74YQT1MjISKfvv//+PanZuHFj5xl5ftq0aYXnsnrt8+xg+565zo6pcg5BgiBROYIBMAAGwEAFDFTZhPt99tqRGcp379eGFStWaJKzatUq/ej69ev19VlnndVVlZCYWbNmdcb1Smpc40R2wQUXdHT5PoEgVVgUw1rNYBeVNhgAA2AgHgZ8b8wT6btuZIby3Seaz3VPiMkOO+yQuzV37lxNknJC62LOnDmFMWmaFmTWY/pS5rzrrrtytyBIEBgqOzAABsAAGBhiDOR27cAXvsmR6Ou3CTFxtTK5GSv3582bZy47R5HvvvvunWv7ZMqUKU4SJc/xCdIQLwyqtHhVGrEm1mAADAwjBuwNPeT1v4/MUL57P/bed999TrIiOnohSMuWLStMJ89N9GzZfSPPHgvKKwjcNLCCwm6PDiO4sYmXLhgAA2AADAyKgW77ns/7vxyZoXz3LMEw52U2L1q0qJTMyLMTNbk/OjpaGNJtTrm/efPmwnOHH354TtZNT25wDxcTe9ODgn6HDApAnuPlBQbAABgAA8OIgX73wSrjfZMj0ddPu+666yoRpNWrVxemm4jYTHSvoGj8Uyx5xkfzo6UPS4YR3NjESxcMgAEwAAYGxUAfW2DloUumzFC+ez9GTfSl6m7ERO4vXLiwMN1EJEju3XTTTYVnygQT6Sp7pkwOQeL7TXz5EwyAATAABipgoGyDDSH3TY5EX79NSMjixYtzj61Zs6b0kyUzsIy8iPzaa681wzrHJ554oqvOzuDxk7I57HG9XEOQKiyKQasNnqNSBQNgAAw0BwO9bLa+xtww9fXKd+/XtkMOOaRAXISYzJw5M6dKZHYT2dKlSzvi6dOnF3SZmxORncsvv1xdcsklZqg+mvFJkuTkg14UrR9UU4/P8VJozkuBXJJLMAAGwMC7e9z9/Ay7cdrrle8+iGWGjGSPth65Z7fseHNujzHXcn/dunXmMncUgmSezx6ffPLJ3LgqF0Xrq2jr4VkWEy9UMAAGwAAYaBIGetj6vA3xTY5EX5V26623DvT4ypUr1dq1awd6NtZDECR+xMZ3D8AAGAADYKACBmJt2DLPf0x7vfce0/46zQVBqrAomlQB4QsVPRgAA2BgMAzE3PRv2up1ynePaX+d5oIgQZCoHMEAGAADYKACBmJu+r7JkeijuSMAQaqwKKi2Bqu2iBtxAwNgoEkYcG+vYaQ3T3+d8t3DWFp/rRAkCBKVIxgAA2AADFTAQEwq4JsciT6aOwIQpAqLokkVEL5Q0YMBMAAGBsOAe3sNI1269euU7x7G0vprhSBBkKgcwQAYAANgoAIGYlKB5dvsonz3mPbXaS4IUoVFQbU1WLVF3IgbGAADTcJAzE3fNzkSfTR3BCBIECQqRzAABsAAGKiAAff2Gkb6q212Ub57GEvrrxWCVGFRNKkCwhcqejAABsDAYBiISQVu2XYX5bvHtL9Oc0GQIEhUjmAADIABMFABAzE3fd/kSPTR3BGAIFVYFFRbg1VbxI24gQEw0CQMuLfXMNJbX7CL8t3DWFp/rRAkCBKVIxgAA2AADFTAQEwq4JsciT6aOwIQpAqLokkVEL5Q0YMBMAAGBsOAe3sNI71tu52V7x7G0vprhSBBkKgcwQAYAANgoAIGYlKBO164s/LdY9pfp7kgSBUWBdXWYNUWcSNuYAAMNAkDMTd93+RI9NHcEYAgQZCoHMEAGAADYKACBtzbaxjpnS/aWfnuYSytv1YIUoVF0aQKCF+o6MEAGAADg2EgJhX4zxftpHz3mPbXaS4IEgSJyhEMgAEwAAYqYCDmpu+bHIk+mjsCEKQKi4Jqa7Bqi7gRNzAABpqEAff2Gka6YvudlO8extL6a4UgQZCoHMEAGAADYKACBmJSgV//Pzsp3z2m/XWaC4JUYVE0qQLCFyp6MAAGwMBgGIi56fsmR6KP5o4ABAmCROUIBsAAGAADFTDg3l7DSO968WuV7x7G0vprbQVBcqWpLZWS7Xsy/xOteBGm9y21XW+F34Jru6WPP9gK38n585lvS86Tb+31vNPjZ5PxjisYEVDgmxyJPpo7Ao0nSOkDt2nPs4RIBOmGpxq/aWg/Nz37vJ/f2nssFmfMeV5WoWrKxnTYzsXR5PxPd/xM164a872h/pr4ayfF94yfImsL3m2/NQ4yscjeb8q5zm92nY+T5IR1nlsHIfNt1l2M48qXvFb57jHsruMcjSdIkpT0jsvyC+UnR+hchVwwk6771NlOHw1IJ92+gJtWuuHpUt+b7Lf4Js3Ge2tz3oZ1bsiQtZ5am3MTj4UH5d/5Vnx8vwdMvGMc737Ja5XvHsPuOs7RCoLkWgySrOScj0VdRC47QsnSpx7ReLT1G5Da8iZdi4/pissLuW16ziWH2kd7M7jqGLfcHlfja3GQnGe+YNySnLvwrsFufYoa+v1m5oxx9E2ORB/NHYF2E6Qbv1vYREMvpFj6Tbrt+crk9rg6X4uPyaX/VMitljc458kPPqfTW8jdqXu45TUmRLaP5DxDjiSvLcm5zruFYw32BhOk//v/7qh8dxMzjvkIDEyQpkyZoqZOnZrX1sOV/WILfS0mueYQeXrX1c57rvF1k5lU2HanTz+qb9nyJl3rnM//eCG3Tc95cs03SnOrY2JtJOTcIhV1jE/Lc+7C9WS84/TCi/TPb/5kR+W7RzK9dtMEJUgjIyPK7rFfypIR15xavuTbznuu8XWTGSTadpfJ7XF1vta5/dFXCrltes6ThQfp9BZyd/rYb/oU5HUkBCU2k3OL7LUk5zrvFib0Iih574daA2bOGEff5Ej00dwRCEqQli1bpuweCqBlesVt1z0t/84+znuu8XWTpWt/rzNu221gYMubdC0+pnf/rJDbpudccqh9tDaM5GcnueX2uBpfi4PkPEOSWpJzF9412Eve+6Hec2bOGMd7dthR+e4x7K7jHE6CJD8669br9CO29Le/zG+WvzhN5yrUYhkWveKkbYvI0jQpyO1xdb5On3jImV9XPOrsp8t2nV8L7zoYDiy4nq+rzJlz1nl71/nZH4nqu1ljMY6+yZHoo7kj4CRIQn66tboQpOQ7+2hXkquP6SwYESSXfqlzXddNoZvd8rdvtK/jnwykz6zOXXd7vs73xdF0y8ZOjrXjDScJki8758nCA8dy3gK8i6P2OteyGn8y1ssaLM15w/2W2EgbhnWuDYn0z73/4zXKd49keu2mcRKkXr58XRuCJJtGsqWQmF5ePE0YYzuenL5nhzQ0wb9SH5acYbveDr8deHf96Kk0bnXeVFuccxvsrcn5OEnK+j8Z77js/KHPf/c/XqN899A211V/JYLUyydNdmAa+WKu86aC7a0hTqy9zHd0wD2494gBe58Lee2bHIk+mjsCToLkHupHykualzQYAANgAAw0CQN+dsfetNz3/71G+e69zdy+URAkj1VEkxY8vrCBgQEwAAZ6w0BM6rDqpa9WvntM++s0FwQJgsRH7WAADIABMFABAzE3fd/kSPTR3BGAIFVYFFRXvVVXxIk4gQEw0GQMuLfXMNL7X/Zq5buHsbT+WiFIECQqRzAABsAAGKiAgZhUwDc5En2DtBNOOCH3P2Xsv//+PanZuHFj7rlp06YVnttxxx1zY8z/yFEYqJR629velhvrGjOoDIJUYVE0uSLCNyp+MAAGwEBvGBh0Ax7kuQde/mrlu/drx4oVKzQpWbVqlX50/fr1+vqss87qqkrIzqxZszrjXOTHEKTOoJKTj33sY3pec/vqq6/W1xs2bDCiSkcIEgSJyhEMgAEwAAYqYKDSLtznw394xauV796nCZqE7LDDDrnH5s6dmyMruZvjF3PmzCmMSdO0IOuVIAm5+uY3v5mbykW4cgP6uIAgVVgUVFe9VVfEiTiBATDQZAz0sedWHuqbHIm+fpuQEFcrk5uxcn/evHnmsnMU+e6779657oUg3XHHHQViJQrkR3bd7OhM1OXE7WWXh6rcbvIiwTc2ATAABsBA+zBQZU/s99kHX/Eq5bvb/6m8XJe15cuXlxKQbsRE7psfy2X1izz7rCFIRi7HrbbaKvuIKvvE6qijjsrpyj3U5wUEiU+Q+GgdDIABMAAGKmCgz3230vCHXvkq5btniYg5LzNy0aJFpQREnp2oyf3R0dHCEHvOfffdNzfmHe94h57z61//ekf+ute9zmnHggULnPLOg32cTOxNH4p6HUp11b7qipyTczAABpqMgV73Px/jfJMj0ddPu+6660oJSC8EafXqsf80PTunTZCy98z5Mccck5vXkCZz3xxPOumk3DgjH+QIQapQNTR5weMbGxoYAANgoDcMDLL5DvrMw696tfLd+7HF9aVq83wvBGnhwoVmeOfYC0GSwVn95s8MdJSMn+y55565cfb9fq4hSBAkPloHA2AADICBChjoZ9OtOtY3ORJ9/TYhKosXL849tmbNmq7EpIwIifzaa6/N6bMvjj766IL+LGEy48vmMPf7OUKQKiwKqqveqiviRJzAABhoMgb62XSrjv3v17xa+e792nTIIYc4ycrMmTNzqsoIzNKlSzvjpk+fXtBl/9HJd77znXrMP//zP3eek5Ntttmm8KzMedlll+XGDXoBQYIgUTmCATAABsBABQwMugEP8twjO75a+e6D2GE+qckebT1lBCn7TK9jtt56a1u9vrZ1veAFL3COG0QIQaqwKJpcEeEbFT8YAANgoDcMDLL5DvqMb3Ik+qq0W2+9daDHV65cqdauXTvQs/ZD8ptxt99+uy2ufA1BgiBROYIBMAAGwEAFDFTeiftQ8MhOr1G+ex/Tt2ooBKnCoqC66q26Ik7ECQyAgSZjICZreHSX1yjfPab9dZoLggRBonIEA2AADICBChiIuen7Jkeij+aOAASpwqJockWEb1T8YAAMgIHeMODeXsNIV79uR+W7h7G0/lohSBAkKkcwAAbAABiogIGYVGDNjB2V7x7T/jrNBUGqsCiornqrrogTcQIDYKDJGIi56fsmR6KP5o4ABAmCROUIBsAAGAADFTDg3l7DSNfs+lrlu4extP5aIUgVFkWTKyJ8o+IHA2AADPSGgZhUwDc5En00dwQgSBAkKkcwAAbAABiogAH39hpG+tgbXqt89zCW1l8rBKnCoqC66q26Ik7ECQyAgSZjICYVWPvGnZTvHtP+Os0FQYIgUTmCATAABsBABQzE3PR9kyPRR3NHAIJUYVE0uSLCNyp+MAAGwEBvGHBvr2Gkf5y5k/Ldw1haf60QJAgSlSMYAANgAAxUwEBMKvD4m3ZSvntM++s0FwSpwqKguuqtuiJOxAkMgIEmYyDmpu+bHIk+mjsCECQIEpUjGAADYAAMVMCAe3sNI338L3ZWvnsYS+uvFYJUYVE0uSLCNyp+MAAGwEBvGIhJBXyTI9FHc0cAggRBonIEA2AADICBChhwb69hpE+8eWflu4extP5aIUgVFgXVVW/VFXEiTmAADDQZAzGpwJOzdlG+e0z76zQXBAmCROUIBsAAGAADFTAQc9P3TY5EH80dAQhShUXR5IoI36j4wQAYAAO9YcC9vYaRPvXWXZTvHsbS+muFIEGQqBzBABgAA2CgAgZiUoGn3/Y65bvHtL9Oc0GQKiwKqqveqiviRJzAABhoMgZibvq+yZHoo7kjAEGCIFE5ggEwAAbAQAUMuLfXMNKn3/465buHsbT+WiFIFRZFkysifKPiBwNgAAz0hoGYVMA3ORJ9NHcEIEgQJCpHMAAGwAAYqIAB9/YaRvrMO16nfPcwltZfKwSpwqKguuqtuiJOxAkMgIEmYyAmFVj3rtcr3z2m/XWaC4IEQaJyBANgAAyAgQoYiLnp+yZHoo/mjgAEqcKiaHJFhG9U/GAADICB3jDg3l7DSNf/1euV7x7G0vprhSBBkKgcwQAYAANgoAIGYlKB9XvMUL57TPvrNBcEqcKioLrqrboiTsQJDICBJmMg5qbvmxyJPpo7Aq0hSOkzj3Ui0OSFWvDtnI92/E7vvq5VVWJ66w87vieLDm6V78bxdOP6VvnNOleqdTkfgnVu1luM47PvmaF89xh213GOVhAkSUz63DNjG8VPjtB5Sk7do/EbR7r8wjFfvz1X+2oAWiBRDfwULefreM7TB+9sT86XnKF9TR//Q2vwLo7a67zVOW/gurbfXbl1ftpscxl9nXcmjnDimxyJPpo7Ao0nSOJ2uuHJ3IJJf/8rHQ17sTXtWpxMvrV3zncdjz/en5M1ze/01z9x5lfHo+Gbhs6vhXcdDMFCg3135Zx1zjqPhXmzxmIcN+y1q/LdY9hdxzlaQZCS02YXNgdJVqzFMynz3LxA49Ge24DUljfpWnxMN28o5LfxOT/l3WM5t/CePnDbmLzBBKn1Obdy25acu9a0xsIDtxfWf8h3nF5gkf55bu9dle8eyfTaTdMOgmS9PGShSEuuPTHqIgq5QG3dBom9yu1xdb7Wub36mEJum57zZMEnddoLufveh9xyx7ooPFuTMeTc+hJ4S3Ku825hVIM9cgFs5oxx9E2ORB/NHQEnQZo2bZqaMmWK7lOnTnU+KfcHabFfwGKja06Ry8fyrntNkJnc2L6kz6zRt2x5k651zhd8spDbpuc8ufrrpbnVMbE2EnJukYo6xqflOXfhejLecXrhRfpn45zdlO8eyfTaTVMgSFdddZUSUiRdiJI5tz3rhSCNjIwou8d+KYvdrjlFnt7xI+c91/i6yUy+bLvTZ5/Ut2x5k651zs/fr5Dbpuc8Mb+A4NjodUwc8qbknZwXyV4bcu7ycTLecWJHrLbxvbsp3z2W7XWbp0CQXJ8YicwmRPa1y/Fly5Ypu8d+IYtdrjm1/Aefc95zja+bLN2yUafEttvkyZY36Vrn9uYFhdw2PeeSQ+2jTYQu/oJbbo+r8bX2m5w/j/mW5NyFdw32kvd+qPecmTPG0Tc5En00dwR6Ikjy6Fvf+lZNktasGfsRTS8EyTVlKICW6RUbpLLO3f/OB7VpOVmNNwenH+fPc/pocuJ8piExKPNR5E32W3zTPv6wubMAACAASURBVFp4T9NkTN6Q/LpyqB2089uGdW5ybuW2tTk38fj5yVHXusFfjOOm9+2mfPcYdtdxjp4JkjgnpMgQI3Ps12nXyy2kLN2ySZuYncPYnJU18Vz8TFdek3tRiCy54ms5WeN8d31B9WcnFnDQOL/HNwed48yGqR23yUPmfiPi4Mh5K/wezznrfPxHjJO0zg3WYhw3f+ANyncfxO4TTjgh9xWa/fffvyc1GzduzD0nX+Wx2wc+8IHcGPmqznnnnWcPK4wxX+kpDBxQUCBIQnw2bNhQqu6DH/yg/l5SXQiSvPxdrRGbQg+bnO17et/NzSZH4zGx/ZZr1597aCIOnL73gJW6x8Lpt/UnD+ruY5n9Tt9bkPPkP84uuD4Z77iCEQEFvsmR6Ou3rVixQpOTVatW6UfXr1+vr88666yuqoTEzJo1qzPORWpElm3z58/X+n/4w+f/dwS5L+OOOeaY7FCv53krlFJ77rmnJkATzSLkqE4ESV4q6V3XaJc6f2m3DS8Piywk13yjFeSos4lc9uXnc376nq3y3fwmT3rfTe3yu8XrvK05T8bXuSz2ZJLW+UT7pe97W/Z5g/Ld+7VRiMkOO+yQe2zu3LmasOSE1sWcOXMKY9I0Lcisx/RlGZGKSpBchvmUdTavFhEUfC7+hg0xISZgAAw0BQM+98huunyTI9HXb7M/4THPl8mz9+fNG/t+rJHJUZ7bfffds6LC+cte9rICkZLnIEiQqVZ9CtCUlyZ+QADAQDswUNjNAwpG9/0z5bvbv20u12Vt+fLlBaJixvZCkMyP5cwzcpTnenl2wYKx/yHCPGueyx4feughc7vysfAjtsoauyjghdGOFwZ5Js9gAAy0BQNdtj2vt0c/9GfKd88SDHNeZvSiRYtKyYw8O1GT+6Ojo4Uh3eYsu/+P//iPOV3yJ4lk7ObNm3PyQS8m9mZQrRM815YFg59sDmAADICBdmBggi3P+y3f5Ej09dOuu+66SgRp9erVhenKCJAMnOheQdEA4106jAyCxI/v+PEdGAADYAAMVMCA2VBjHEc/8kblu/drt5AWVyuTm7Fy/8gjjzSXnaPIt99++861ORF5N51mrDkO8ox51j66vbRHebymompHRUWeyTMYAANtwYDHLbKrqtGPvVH57l0ntQYICVm8eHFOKn9EuhuZKSMvIr/22mtz+srG5gY5LgZ9zqFKQZAqVA1tWfz4yUYHBsAAGCjHgGtzDSXzTY5EX7/tkEMOKZAhISYzZ87MqRKZ3US2dOnSjnj69OlOXa5nOw8ppf7zP/+z8McjzXeQ1q1blx068HnR+oFV9fYgi6x8kREbYgMGwAAYqB8Getv9/Iwa/cRM5bsPYpkQGLvbelwkx36m1zHmOTOHECQjyx75LTY+9eH7AmAADIABMDAkGDCbdoyjb3Ik+qq0W2+9daDHV65cqdauXTvQs7Ee4hOkIVlgVI31qxrJGTkDA2BAMBCzjf7tTOW7x7S/TnNBkCBIVKFgAAyAATBQAQMxN/3Rv/tz5bvHtL9Oc0GQKiwKqkeqRzAABsAAGIi56fsmR6KP5o4ABAmCROUIBsAAGAADFTDg3l7DSEfnvUn57mEsrb9WCFKFRUHlSOUIBsAAGAADManA6P5vUr57TPvrNBcECYJE5QgGwAAYAAMVMBBz0/dNjkQfzR0BCFKFRUHlSOUIBsAAGAAD7u01jHT0gN2V7x7G0vprhSBBkKgcwQAYAANgoAIGYlIB3+RI9NHcEYAgVVgUVI5UjmAADIABMODeXsNIRw/cXfnuYSytv1YIEgSJyhEMgAEwAAYqYCAmFRj97F8o3z2m/XWaC4JUYVFQOVI5ggEwAAbAQMxN3zc5En00dwQgSBAkKkcwAAbAABiogAH39hpGOvoPf6F89zCW1l8rBKnCoqBypHIEA2AADICBmFRg9HNvVr57TPvrNBcECYJE5QgGwAAYAAMVMBBz0/dNjkQfzR0BCFKFRUHlSOUIBsAAGAAD7u01jHT0kLco3z2MpfXXCkGCIFE5ggEwAAbAQAUMxKQCvsmR6KO5IwBBqrAoqBypHMEAGAADYMC9vYaRjv7jW5TvHsbS+muFIEGQqBzBABgAA2CgAgZiUoHRL85SvntM++s0FwSpwqKgcqRyBANgAAyAgZibvm9yJPpo7ghAkCBIVI5gAAyAATBQAQPu7TWMNPmnWcp3D2Np/bVCkCosCipHKkcwAAbAABiISQWS//WXynePaX+d5oIgQZCoHMEAGAADYKACBmJu+r7JkeijuSMAQaqwKKgcqRzBABgAA2DAvb2GkSZf+Uvlu4extP5aIUgQJCpHMAAGwAAYqICBmFTANzkSfTR3BCBIFRYFlSOVIxgAA2AADLi31zDS5LC3Kt89jKX11wpBgiBROYIBMAAGwEAFDMSkAslX36Z895j212kuCFKFRUHlSOUIBsAAGAADMTd93+RI9NHcEYAgQZCoHMEAGAADYKACBtzbaxhp8i9vU757GEvrrxWCVGFRUDlSOYIBMAAGwEBMKpB87X8q3z2m/XWaC4IEQaJyBANgAAyAgQoYiLnp+yZHoo/mjgAEqcKioHKkcgQDYAAMgAH39hpGmhz5P5XvHsbS+muFIEGQqBzBABgAA2CgAgZiUoHk6Lcr3z2m/XWaC4JUYVFQOVI5ggEwAAbAQMxN3zc5En00dwQgSBAkKkcwAAbAABiogAH39hpGmhz7duW7h7G0/lohSBUWBZUjlSMYAANgAAzEpAK+yZHoo7kjAEGCIFE5ggEwAAbAQAUMuLfXMNLkuHco3z2MpfXXCkGqsCioHKkcwQAYAANgICYVSI5/h/LdY9pfp7laQ5DSZx7r5KVVL7RzPtrxO737ulZViemtP+z4niw6uFW+G8fTjetb5TfrXKnW5XwI1rlZbzGOvsmR6KO5I9AKgiSup889M7ZR/OQIHYnk1D0av3Gkyy8c8/Xbc7WvBgJtIIg5X8dznj54Z3tyvuQM7Wv6+B9ag3dx1F7nrc55Cz4dz63z02aby+jrvDNxhJPkxHcq3z2C2bWcovEEyWQlSwpcsuz9ppyLn8mN3829LLTs+jNzsqb42/Hjos/qFHeuZaP4weeLsgZuINpJyXvGN5cse78R546ct8LvU949hmvW+RjmJ2mdG6zFOCbffJfy3Qex+4QTTlAjIyOdvv/++/ekZuPGjZ1n5Plp06Y5n1uwYEFu3Pvf/37nuF133TU3zjloQGErCFJy2uzchiEbgrRGbAyZjTDnz80LnD4anOTGlumoqVx8TDdvKOS38Tk3uLbwnj5wmxMLTcJA63NurdW25Ny1pjUWHri9sP5D4l0vsEj/+CZHoq/ftmLFCk1KVq1apR9dv369vj7rrLO6qhJSNGvWrM44Q7I6AqXUI488ovXdfvvtWrxlyxZ9fdhhh2WHqbe+9a1aboTz58/X12maGlGlYzsIkvXykIUiLbn0S1EXUcgFautOk9ExHy3fDVrs8U261rm94axCbpue8+S09zhznlz0D265hY06Y4CcW1+UbknOdd4tHGuwRy6AzZwxjsm/vkv57v3aLaRmhx12yD02d+7cHFnJ3Ry/mDNnTmGMkBnRl21yPX369KxIff7zn3eOu+SSS3LjXIQrN6CPi7xV4w+K41OmTFFTp07tqJJzkdnyzoAeT2K/hMUs15wiT+9c7LznGl83mUmHbXe6/nF9y5Y36Vrn/Ly/K+S26TlPrjyqNLc6JtZGQs4tUlHH+LQ85y5cT8Y7Ti+8SP/4Jkeir99mExrzfJk8e3/evHnmsnOU53bffffcdecic5LV/+Mf/7hAmGSojMmOyzze92mBIImRQoa+8IUvKPnZniFFcjRN7m+99dbmsvS4bNkyZffYL2UxzjWnyNM7fuS85xpfN5lJim13+uyT+pYtb9K1zvn5+xVy2/ScJ+YXEBwbvY6JQ96UvJPzItlrQ85dPk7GO07siNVCrFl7n5brsrZ8+fJSAtKNmMh982O5rP4sqXn00Ud70m++e5TVI+fyXahudtjPlF0XCJKQn3Xr1nXGG4LUEYyfZAmTfc9cG6ezxxDJnUin2OK6r+VXH+O85xpfN5nJgW13mdweV+drndtrji/ktuk5T87+sE5vIXfzP+6WN4gwkXOLILUk5zrvFo412Eve+4W1YT076H0zZ4xjctq7le+e3aPNeZkvixYtKiUg8uxETe6Pjo59/SM7LjvnzTff3JP+rbbayjnuiCOOcMqz8/V6XvBGCFK2XXvttbkftZl79jgj73YcFICDPif2JOO/5p7VoeWeFkdW79Cc//J0nQrbHpMfW96ka/ExTba4CVKTc26+W2fhPV39WycWyLlFKmqKDUmuncu25Nzlu17/91xfiIkdI5/XeoFF+sc3ORJ9/bTrrruulID0QpBWr15dmC5LkO65556e9L/iFa9wjnN9V6kwYY+CrgTpV7/6Va0JUrplkw5FdjGY2GRlTTwXP9OV1+ReFCJLrvhaTtY437/3oULOk5+dWJTVdEOcKF/aSWvDdMkm0lHLe46ct8LvcVLMOh8nu5O0zg3WYhyT0/9K+e792l1GhMrkRr/cP/LII81l5yjy7bffPnfducicZPX/67/+q5MgyZ8NyI7LPN73aVeCVKaxlx+xuZ6djJevsUP+OGT665/oy8mwI/qcV/zvMV8v/xeVnPk+E4Zmk6Nx0mOcTb67byfn6W2XNN/38Zynq5bpnKejm1uDd3Le7pwnl3zRQCD6Ou9MHOEk+dZfKd+9X7OFgCxevDj32Jo1a7oSE3nORV5EJj+tMk2uTznlFHOpj5s3by48W6bLJc8p6/GiQJCE+Jx88sldH6/Lj9gMKUnvukb71PlLuw389MD4ah9NMpNrvhH9xWHbEvX6si8/n/PT92yV7+kza8Z8v++mdvnd4nXe1pwn4+tcAJ9M0jo379gYR9/kSPT12w455BAnWZk5c2ZOlYuoiGzp0qWdcfLr/Pa4b37zmwWZjHnpS1/aeU5ORJZ9Vr7fJNfyky8frUCQfCidSEfUDbJFJIi4NuP7JOSRPIKB+mFgoj3P973kjD2U7z6IjeZHWYakZImK0eeSyR97zD7jGiPPb7fddj2Ns3XdddddZvrKRwgSJKpVnzCw+dRv8yFn5GzYMVB5J+5DgW9yJPqqtFtvvXWgx1euXKnWrl3b9dnbbhv7nwAmGig/frvjjjsmGjLQPQgSBAmCBAbAABgAAxUwMNDuO+BDybf3UL77gKY0/jEIUoVFMexVDfZReYMBMAAGwmMgJlNIzpytfPeY9tdpLggSBInKEQyAATAABipgIOam75sciT6aOwIQpAqLgsosfGVGjIkxGAADw44B9/YaRpp8Z7by3cNYWn+tECQIEpUjGAADYAAMVMBATCqQfPc9ynePaX+d5oIgVVgUw17VYB+VNxgAA2AgPAZibvq+yZHoo7kjAEGCIFE5ggEwAAbAQAUMuLfXMNLke+9RvnsYS+uvFYJUYVFQmYWvzIgxMQYDYGDYMRCTCvgmR6KP5o4ABAmCROUIBsAAGAADFTDg3l7DSJOz91S+exhL668VglRhUQx7VYN9VN5gAAyAgfAYiEkFknP2VL57TPvrNBcECYJE5QgGwAAYAAMVMBBz0/dNjkQfzR0BCFKFRUFlFr4yI8bEGAyAgWHHgHt7DSNN5u+lfPcwltZfKwQJgkTlCAbAABgAAxUwEJMKJOfupXz3mPbXaS4IUoVFMexVDfZReYMBMAAGwmMg5qbvmxyJPpo7AhAkCBKVIxgAA2AADFTAgHt7DSNNzttb+e5hLK2/VghShUVBZRa+MiPGxBgMgIFhx0BMKpCcv7fy3WPaX6e5IEgQJCpHMAAGwAAYqICBmJu+b3Ik+mjuCECQKiyKYa9qsI/KGwyAATAQHgPu7TWMNLngr5XvHsbS+muFIEGQqBzBABgAA2CgAgZiUgHf5Ej00dwRgCBVWBRUZuErM2JMjMEAGBh2DLi31zDS9Pt/rXz3MJbWXysECYJE5QgGwAAYAAMVMBCTCqQXzlG+e0z76zQXBKnCohj2qgb7qLzBABgAA+ExEHPT902ORB/NHQEIEgSJyhEMgAEwAAYqYMC9vYaRpgvnKN89jKX11wpBqrAoqMzCV2bEmBiDATAw7BiISQXSRe9VvntM++s0FwQJgkTlCAbAABgAAxUwEHPT902ORB/NHQEIUoVFMexVDfZReYMBMAAGwmPAvb2GkaY/eK/y3cNYWn+tECQIEpUjGAADYAAMVMBATCrgmxyJPpo7AhCkCouCyix8ZUaMiTEYAAPDjgH39hpGmv5wrvLdw1haf60QJAgSlSMYAANgAAxUwEBMKpBePFf57jHtr9NcEKQKi2LYqxrso/IGA2AADITHQMxN3zc5En00dwQgSBAkKkcwAAbAABiogAH39hpGml7yPuW7h7G0/lohSBUWBZVZ+MqMGBNjMAAGhh0DMalAeun7lO8e0/46zQVBgiBROYIBMAAGwEAFDMTc9H2TI9FHc0cAglRhUQx7VYN9VN5gAAyAgfAYcG+vYaTpj96vfPcwltZfKwQJgkTlCAbAABgAAxUwEJMK+CZHoo/mjgAEqcKioDILX5kRY2IMBsDAsGPAvb2GkaaL36989zCW1l8rBAmCROUIBsAAGAADFTAQkwqkP/6A8t1j2l+nuSBIFRbFsFc12EflDQbAABgIj4GYm75vciT6aO4IQJAgSFSOYAAMgAEwUAED7u01jDT9tw8o3z2MpfXXCkGqsCiozMJXZsSYGIMBMDDsGIhJBdLL91G+eyz7R0ZGVLb3Ou/NN9+ce2633XYrPPra1742N0bmefjhhwvjsvNnzwsDlVIQJAgSlSMYAANgAAxUwIBrcw0l802ORF+MZsiImWubbbbRhMZclx2TJNHjzj333M4Q0fW2t72tcy0noi/b3vWud+nntmzZkhX3NKd5AIJUYVEMe1WDfVTeYAAMgIHwGDAbaoxjesU+yncPbfcpp5ziJCZCdPbdd98Jp5cxO+ywQ27M5s2bnfpyg+QToPFPrLJykfXaeh/Zq8Yu41is4RcrMSbGYAAMgIF4GOiy7Xm97Zscib7QzUVUZM5p06Z1JTry7O9+97uCiSK//PLLC/KswDWvyHptvY/sVWOXcSzaeIuWWBNrMAAGwEB4DHTZ9rzeTq/8oPLdDZHIHn0abfTaOo866qieCJL9nFyLzje84Q2uW1q2YsUKPUY+bco2Y0v2mL2fPW8XQbppvkoWHdy+n7VfeZRKbjirfX7Lj0+XnNHOnJ+/31jOT5vdvryT83bm/JrjJ83v7KYa+jy9al/lu2fJgjn36UeZzgULFlQiSNOnTy81s2zOdevW5Z4pGyeDWkGQTDTSB24zp5O2kKJWc6fuof1NRzer9JG7x86f+u9W+G4Sna6515yq5Hsfar7v4zkXp03O5Twq7ibpe30m0eR8LBJtyHm6apl2VnKebnp27HwS3nEGezGOvsmR6Ou3GVLR7Wj0mnHm2hxPOumkSgTpT//0T42q3LFsvtygzIWMnzp1akYydtp4gmQ8zr4sXLLs/aaci5/Jjd/NbY5adv2ZOVlT/O34cdFndYo717Jh/+DzRdkkbeQ5uzzboJ20CJFLFtKGSdHtyHkr/D7l3WO4Zp2PvdMmaZ0brMU4plf/jfLdQ9tdRlhe9apX9USQNm3aVDBRdMqXv+1WNpc9Lntd9kwrCFJy8RfyhOD0vXRsJuVF7nlDLPXh4kOdPhpQlD4Xy76A85T5KPIm+y2+aR8tvKebnxuTB4z5ZMdVO2jntw3r3OTcym1rc27icdM5Ude6wV+MY/rTDynfPbTdn/zkJ51ESIjJy1/+8gmnlzEf/OAHC2NEbrcyomOPs6/LnivOYD+ZuXZ9BJW53dNp7BepGOWaU8sv/ZLznmt83WRpMqrzYdttkmTLm3Stc+v4zlXTc56c9h5nzpOL/sEttzbVOmOAnFtfRG5JznXeLRxrsJe890Nh3MwZ4+ibHIm+GE1IyF/+5V92pjr00EMLpOmCCy4oyJYvX65l8veQTBNdU6ZMMZf6WEZysoM+9KEPqTRNsyKtW551tYL061//uirrQpCy91wKu8lCAbRMr9jjuify9M7Fznuu8XWTmTzYdqfrH9e3bHmTrnXOz/u7Qm6bnvPkyqNKc6tjYm0k5NwiFXWMT8tz7sL1ZLzj9MKL9E96zUeU7x7J9A4ZMWTmhhtuyE3tIkgyYKeddio8m33w+uuvL9w3c2TJz3HHHVcY9yd/8idZVbnzAkESElTWhbFl7+U09XgR+6UsZrnmFHm64grnPdf4uslMOmy702ce07dseZOudc7P/dtCbpue8+TqY0tzq2NSRwLQo83kvEj22pBzl4+T8Y4TO2I13+RI9MVs999/v7r33ud/eaafue+4445+hlce6yRIr371q52KhRz107IMzpzH3ojFXtecWn71Mc57rvF1k5k82XaXye1xdb7WuXX8ym/Tc56c/WGd3kLu5n/cLe+RfBT0DeFz5NwiSC3Juc67hUcN9pL3figsmzljHNOffVT57jHsruMcBYIkTuy3337653tf/epXcz71S5ByD49fhAJomV6ZNvn23AIR0nJrYZXpqKX8l6friNu2j6ehEA97XJ2vxcc02VLwsfE5N19QtfCerv6tEwt1zrFte+tzbr3L2pJz15rWWLjn+sL6tzHj81ovsEj/pNd9TPnukUyv3TROgiReLF26VP84LfvzuboSJPk7QNnFkP7xfp2orKyJ5+Jkcs5Hc76LLP3D7TlZ03xPl57nzK+Oh7WRNM13nV8L7zoYkSvq2HF15Zx1zjqPhUOzxmIcfZMj0UdzR6CUIJnhe+21l/406bOf/azzDymZcb0eYwE2O4+xLTl1D5X++if6Mnu/sedX/O8xXy//F5Wc+T4ThkaTI5NL42zy3X07OU9vu6T5vo/nXP6AnuRcigNpJi5NPpLzduc8ueSLBgLR8d6ZOMJJ+vNPKN89gtm1nKIrQRKvFi9e3PlydlUvJ+UFvehzObOTnx4XfQFNit+nvFulj/4m73vDP0HJxjnreLpubWtynth4b2nOWefW95IaioNhWOdZG0Kfp//+SeW7h7a5rvp7Ikg+nctuYJy34wVGnskzGAADTcaAzz2ymy7f5Ej00dwRgCA1tKpq8ssI39hswQAYGCYMuLfXMNL0l3+rfPcwltZfKwQJgtSeHz2Ra3INBsBAAAzEpALpkr9TvntM++s0FwQpwGIZpsoGW6i0wQAYAANhMRBz0/dNjkQfzR0BCBIEiYoSDIABMAAGKmDAvb2GkabXf1r57mEsrb9WCFKFRUFVFrYqI77EFwyAgTpgICYV8E2ORB/NHQEIEgSJyhEMgAEwAAYqYMC9vYaRpjfMU757GEvrrxWCVGFR1KGywUYqcDAABsBAWAzEpALpjfsr3z2m/XWaC4IEQaJyBANgAAyAgQoYiLnp+yZHoo/mjgAEqcKioCoLW5URX+ILBsBAHTDg3l7DSNObPqN89zCW1l8rBAmCROUIBsAAGAADFTAQkwqkNx+gfPeY9tdpLghShUVRh8oGG6nAwQAYAANhMRBz0/dNjkQfzR0BCBIEicoRDIABMAAGKmDAvb2GkaZLD1S+exhL668VglRhUVCVha3KiC/xBQNgoA4YiEkFfJMj0UdzRwCCBEGicgQDYAAMgIEKGHBvr2Gk6bKDlO8extL6a4UgVVgUdahssJEKHAyAATAQFgMxqUD6q88q3z2m/XWaC4IEQaJyBANgAAyAgQoYiLnp+yZHoo/mjgAEqcKioCoLW5URX+ILBsBAHTDg3l7DSNNbDla+exhL668VggRBonIEA2AADICBChiISQXSWz+nfPeY9tdpLghShUVRh8oGG6nAwQAYAANhMRBz0/dNjkQfzR0BCBIEicoRDIABMAAGKmDAvb2Gkaa3fV757mEsrb9WCFKFRUFVFrYqI77EFwyAgTpgICYV8E2ORB/NHQEIEgSJyhEMgAEwAAYqYMC9vYaRprcfonz3MJbWXysEqcKiqENlg41U4GAADICBsBiISQXSO/9R+e4x7a/TXBAkCBKVIxgAA2AADFTAQMxN3zc5En00dwQgSBUWBVVZ2KqM+BJfMAAG6oAB9/YaRpr+5xeU7x7G0vprhSBBkKgcwQAYAANgoAIGYlKBdMUXle8e0/46zQVBqrAo6lDZYCMVOBgAA2AgLAZibvq+yZHoo7kjAEGCIFE5ggEwAAbAQAUMuLfXMNL01/+kfPcwltZfKwSpwqKgKgtblRFf4gsGwEAdMBCTCvgmR6KP5o4ABAmCROUIBsAAGAADFTDg3l7DSNO7vqx89zCW1l8rBKnCoqhDZYONVOBgAAyAgbAYiEkF0pX/S/nuMe2v01wQJAgSlSMYAANgAAxUwEDMTd83ORJ9NHcEIEgVFgVVWdiqjPgSXzAABuqAAff2Gkaa3v0V5buHsdSt9eyzz1Znnnmm+2YX6Yknnqgee+yxLqN6u33ppZeqk08+ecLBECQIEpUjGAADYAAMVMDAhLus55vp//1n5bt7NrFU3cjIiMr24447rnRs9sb06dNzz4kOu2X1Zs/tcRs2bCjo+v3vf28P09fFWZzD/AnrUA1gI1UrGAADYAAM9IoBfztkd02+yZHoi9GEtBx00EGdqS688EJNVDqCkpOLLrqoMM4QoOwjIjvggAOyIue5jHvhC1/Yuffss89q/evWrevIzAkEqULV0OviYRwvWjAABsBAczFgNtQYx/Q3hynfPbTde++9d4HkyJw2WXHZIWMOPPDAwi2RZ5tcdyNIN910U6kdtj7RnZ8hO1ugc14SzX1JkFtyCwbAQBsxEGi7dKpN7/mq8t2dE3kUCvlwEZBdd93VKc9OLc+laZoV6XORH3vssR25XAtBuvfee9Xjjz/ekWdPdtxxR+d8V0Rv6wAAHFhJREFU8qx0uxUl9gjP121cPPjMpgEGwAAYaC4GPG+TE6rzTY5EnyEI2eOERvR50+i1H5MvSbuISXZc2X2Rv/SlL+0MNXPYx86A8U+sXPrkR24uOQSJH7Hx5UwwAAbAABiogIHsJhz6PL3ncOW7L1u2TNl9Ij9sElJ2bXSY++baHOfPn+8kJua+HF3Exci33nrr7NDCuTybHVNmxytf+UrnPBCkCouCirC5FSG5JbdgAAz0ioHCzhxQ4Jscib5+27x581Qv3egtIyaHH364k5iY5+Q4EUF605velB1aON9nn31yz5fZUSovaAws6BVwjOPlBAbAABgAA3XAQOBtM6c+vfdflO+emyDARSkBKfnuT9YEefaOO+7IivS5yH/xi18U5FnB0UcfnSNIQurkObuV2mcPDH1dB7BjIy9lMAAGwAAY6BUDoffNrP70d19TvntWf4hz16/qyzxCTA4++OAJp5Qx2R+TyWD5EraL6NiKXMTH9ZzIpkyZYj/Ob7H1ugAYx8sSDIABMAAGXBgo7KwBBb7JkeiL0WyyYl+LDRdccIGT+MjYT33qU9rM9evX6zHZX+l/8skntWzhwoVqdHRUXXbZZfpanrObPe+rXvUq55zyXPFpW5vnaxe4kPHSAQNgAAyAgbpiwPM2OaG69HdHKN99wgk93tx22207xMX1iU0ZQXriiSc6zwnBOfTQQwtW/fznP1cvetGLOuNuueWWwhgjmDVrVmeci0SZcRAkvqTNb6+AATAABsBABQyYDTXGMb3vSOW7x7C7jnO0iyDdNF8liw5u34vgyqNUcsNZ7fNbXnhLzmhnzs/fbyznp81uX97JeTtzfs3xk+Z3zM3fNzkSfTR3BFpBkIzr6QO3mdNJW0hRP0I+dQ/tbzq6WaWP3D12/tR/t8J3k+h0zb3mVCXf+1DzfR/PuThtci7nUXFXoRKvYqdJNDkfi0SVWNbl2XTVMu2s5Dzd9OzY+SS84wz2YhzTVUcr3z2G3XWco/EEyZCi7IKXRKUbnmr8pqH93PTs835+a2+N0eSMOc/LJmkzy+YjxLk4mpz/6Y6f6dpVY7431F8TQ+2kRYhE1ha8mzjI0bSsrInnOr/ZdT7uO+s83ne6DNZiHH2TI9FHc0eg8QRJ3E4u/kJno9QvyNP30tFo4suy49PFY19i61yPEwMDA1vepOsyHzUWWkCQbLynm59rPN6dOW/DOjdkyMJ1a3Nu4nHTOfl3vhUf3+87g78Yx3TVMcp3j2F3HedoB0FyLA5JVnLpl6IuIt+LciJ9aTKq8WiPMSC15U261rl1fOeq6TlPTnuPM+fJRf/gljvWRV1xQM6tT0taknOddwvHGuzWp6ihcW3mjHFMf3+s8t1j2F3HOfoiSKeeeqq66qqrKvkZGqi2fjHWlsm1tPSWRc57rvF1k5kk2Xabn9Pb8iZd65wvPKiQ26bnPPnxYTrtrlzqmFgbiWtcXWXk3CJI5pOUhufchevJeMfphRfpH9/kSPTR3BEoECT52wT23w8Q2dSpU3Pdra67NPYLWCxyzSnydMUVznuu8XWTmUzYdqfPPKZv2fImXeucn/u3hdw2PefJ1WMvOlcudUwavlkm5DyH+Tbk3OXjZLzjxI5YLf39ccp3j2V73ebpSpA+//nP6z/BvWrV2JdcxUFDmLo5a/5iZfboenmHlImNLv1avuTbznuu8XWTmdzYdpfJ7XF1vta5/dFXCrltes6ThQfp9BZy14Lv4pBz6xOkluRc590i/noRlLz3C2vDenbQ+2bOGMf0/m8o3z2G3XWcoytBkk+OXK1M7hqblQ0KwEGfk7ldz5bJXWPrKEvvvk6H3bbd5MKWN+lafEwfu6+Q96bnXHLo8jG9c7FTTs4tUuFps4wd1zbn3OW7yNJnVhfWf8i86AUW6R/f5Ej00dwRqESQfv3rX7u1TiANCVKXbjFF/g5Q9l76x/u1hVlZE8/FyeScj+Z81/H4w+05WdN8T5ee58yvjkdNN8Fec6Tza+FdB6OkUOhV77CPc+Wcdc46j4Vbs8ZiHNMHjle+ewy76zhHJYL00EMP9e1zLMB25vnOPtrG5OpjOqRABE3+DTbju/ztG+3rOCmQqip7bcY18Sh+pls25nLeBt/tnCcLDxzLeYN/Y9PgV+fXWuetznnDiwHJu7RhWOfakEj/+CZHoo/mjoCTINlfyH722bG/UJpV4fqP5rL3y87NyyzqcdHncuYkPz2us3FGtWMSXljpo7/J+z4JNkxWjLOOp+vWtibniY33luacdd6MHyF2e38MwzrP2hD6PH3gBOW7h7a5rvoLBKkXR6699lr14Q9/uJehhTHdwM79drzUyDN5BgNgoCkYKGx0AQXpH05SvntAc2uteiCCVMXjpiwI/ODlDgbAABgAA4KBmM03ORJ9NHcEIEgt+vEDL3Ne5mAADIAB/xhwb69hpOmD31S+exhL668VggRBas93c8g1uQYDYCAABmJSgfTB/6N895j212kuCFKAxUKF5r9CI6bEFAyAgWHFQMxN3zc5En00dwQgSBAkKkowAAbAABiogAH39hpGmj50svLdw1haf60QpAqLYlirGeyi0gYDYAAMxMNATCrgmxyJPpo7AhAkCBKVIxgAA2AADFTAgHt7DSR9+BSlfPdAptZdLQSpwqKgQotXoRFrYg0GwMCwYiAqEXj4VKV896gO1GcyCBIEicoRDIABMAAGKmAg6pbvmxyJPpozAhCkCotiWKsZ7KLSBgNgAAzEw4Bzdw0l/O/TlfLdQ9lac70QJAgSlSMYAANgAAxUwEBUHvDf31LKd4/qQH0mgyBVWBRUaPEqNGJNrMEAGBhWDETd8n2TI9FHc0YAggRBonIEA2AADICBChhw7q6hhI+coZTvHsrWmuuFIFVYFMNazWAXlTYYAANgIB4GovKAR89UyneP6kB9JoMgQZCoHMEAGAADYKACBqJu+b7JkeijOSMAQaqwKKjQ4lVoxJpYgwEwMKwYcO6uoYSPnqWU7x7K1prrhSBBkKgcwQAYAANgoAIGovIA3+RI9NGcEYAgVVgUw1rNYBeVNhgAA2AgHgacu2so4ervKOW7h7K15nohSBAkKkcwAAbAABiogIGoPGDN95Ty3aM6UJ/JIEgVFgUVWrwKjVgTazAABoYVA1G3fN/kSPTRnBGAIEGQqBzBABgAA2CgAgacu2so4ZqzlfLdQ9lac70QpAqLYlirGeyi0gYDYAAMxMNAVB7w2DlK+e5RHajPZBAkCBKVIxgAA2AADFTAQNQt3zc5En00ZwQgSBUWBRVavAqNWBNrMAAGhhUDzt01lPCxBUr57qFsrbleCBIEicoRDIABMAAGKmAgKg/wTY5EH80ZAQhShUUxrNUMdlFpgwEwAAbiYcC5u4YSrj1XKd89lK0OvWeffbY688zB/nuTE088UT322GMOrWFEECQIEpUjGAADYAAMVMBAmO25ROsfz1PKdy+Zyqd4yZIlamRkRL385S9Xu+yyiz6X616ajJM+e/bs0ufMGNcxO4frvshczS11jfQko6qJV9UQa2INBsAAGAiPAU/bY29qfJMj0RehCQk56KCDOjNdeOGFmux0BCUnF110UWGcITklj3TEMu60007rXMtJGRnKDRq/gCBVqBp48YR/8RBjYgwGwMCwY8C1uQaT/fECpXz3YMaOKd57772dxETIygtf+MIJZ5cxBx54YGFMN6JjPqWyH+z2XHY8BAmCxEfrYAAMgAEwUAED2U01+Pnj31fKdw9stJASFzHZddddnfKsOfJcmqZZkT4X+bHHHluQG0HZnMaOO+64Q23evNkMdx4hSBUWxbBXNdhH5Q0GwAAYCI8B5+4aSuibHD3+fU1SDKEwR5/ml+k8+eSTeyJILltE50tf+lLXLS2T+7fddlvhvrElezziiCMK40QAQYIgUTmCATAABsBABQw4d9dQwscvVMpzX7ZsmbL7ROZnycVE50aHGWOuzXH+/PmVCNLWW29tVOWO06ZN66rXPPDUU0/psZdddpkRdY4QpAqLgsosfGVGjIkxGAADw46Bzo4a48QzOdJkq0+7582bp3rpRm0ZQTr88MO7Ehl51tVE/qY3vcl1S+s86qijnPdcwjL73DO7NHiSDTvQsY+XMRgAA2AADPSDAU/bY29qnrhIKd+9t5kHHlVKQEq+m5SdSJ6V7wvZTeS/+MUvbLF65zvf2ZV02Q+V2mcPDH3dD+gYy0sKDIABMAAGhh0DoffNnP4nFynlu+cm8H+xfv16J2kRYnLjjTdOOOGUKVMKz5500kkFmVFSRnbMfftofsQmf3bAbnyCxI/Y+O4BGAADYAAMVMCAvbEGvfZNjkRfhGYTF/taTLjgggucxEfGfupTn9JWGrJ1wAEHOK2WsT//+c+d93bffXe18847q5tvvlmtW7dOyY/hXHaYhyFIFRbFsFc12EflDQbAABgIjwGzoUY5PvkDpXz3KIYrte2223YIiXwyZLcygvTEE090nhNCc+ihh9qP6uvtt9/eSbCyg+VvKhlSJH+DaXR0NHs7dw5BgiBROYIBMAAGwEAFDOR21dAXT12slO8e2uaa6ocgVVgUVGbhKzNiTIzBABgYdgxE3f99kyPRR3NGAIIEQaJyBANgAAyAgQoYcO6uoYRPXaKU7x7K1prrhSBVWBTDXtVgH5U3GAADYCA8BqLyAN/kSPTRnBGAIEGQqBzBABgAA2CgAgacu2so4dOXKuW7h7K15nohSBUWBZVZ+MqMGBNjMAAGhh0DUXnA0z9SyneP6kB9JoMgQZCoHMEAGAADYKACBqJu+b7JkeijOSMAQaqwKIa9qsE+Km8wAAbAQHgMOHfXUMJnFivlu4eyteZ620WQbpqvkkUHt69SuvIoldxwVvv8FvK75Ix25vz8/cZyftrs9uWdnLcz59ccP2l+R+UB6/5NKd89qgP1mawVBMmVjrZUVbbvyfxPTNpLJGbM0/uW2q63wm+Jsd3Sxx9she/k/PnMtyXnybf2et7p8bPJeMcVjAgp8E2ORB/NGYHGE6T0gdu049nNWQTphqcav2loPzc9+7yf39p7LBZnzHle1tAfMYqjyfmf7viZrl015ntD/TX41k6K7xk/RdYWvNt+axxkYpG935Rznd/sOh8nyQnrPLcOQubbrLsox3WXK+W7RzG8fpM0niBJStI7LssvlJ8coTMVcsFMuu5TZzt9NBCddPsCblrphqdLfW+y3+KbNBvvrc15G9a5IUPWemptzk08Fh6Uf+db8fH9HjDxjnL0TY5EH80ZgVYQJNdikGgk53ws6iJy2RFKlj71iE64rd+gwJY36Vp8TFdcXsht03MuOdQ+2pvBVce45fa4Gl+Lg+Q882XkluTchXcNdutT1NDvNzNnlOP6K5Ty3aMYXr9JCgTpxhtvVCtXrsx5MnXqVCX/8645Tps2LXe/n4vQQLX1i222TK6lpbcsct5zja+bzOTEtjvd9Ky+ZcubdC0OJo4Ksuk5T358WGludUxqTIC64ZOcZ8jReJ7bkHOXj5PxjhM7orX1Vyrlu0czvl4TFQiSEKFse/GLX9whRvvtt5/adttt9fVnPvOZ7LCez7u96HzfF8NcOkWe3nW1855rfN1kJiG23enTj+pbtrxJ1zrn8z9eyG3Tc55c843S3OqYNJ0gkfMc5tuQc5ePk/GO0wsv1j++yZHoozkjUCBI8ilRttnX5p5NpIw8exwZGVF2j70Riz2uObV8ybed91zj6yYzebDtLpPb4+p8rXP7o68Uctv0nMunZtpHmwidPvabPnXOaTfbybn1CVJLcu7Cu14EJe/9bjga9L6ZM8rx2auU8t2jGF6/SboSpDIiVEacuoVgUAAO+pzY43q2TO4aW0dZevd1OhW27SY/trxJ1+Jj+th9hbw3PeeSQ5eP6Z2LnXJybpEKm1jW5LrNOXf5LrL0mdWF9R8S73qBxfrn2Z8q5bvHsr1m8xQIkhCijRs3dtxoAkFKf/vL/GL5xWnav5ALZhh0i5O2HSJL06Qgt8fV+Tp94iFnfl3xqLOfLtt1fi2862A4sOB6vq4yZ85Z5+1d52d/JKrvZo1FOfomR6KP5oxAgSDJKPl06J577tEPzJs3T19nn5b7dfkEKfnOPtr05OpjOgtGBMmlX+pc13VT6Ga3/O0b7et4JSxVVfa62/N1vi9+pls2dnKsHW84SZB82TlPFh44lvMW4F1j21rnWlaTT4IGXW+lOW+43xIvacOwzrUhsf7ZcI1Svnss22s2j5MgzZo1SxMg+fRIiFD2aM4H9XPQl0CV59JkS8HcKvrq9KzteHL6nh3SUCc/+rZ1yRm26+3wW0iShff07p+1w/cW59wGe2tyPk6Ssv5PxjsuO3/w8+euVcp3D250PSdwEiTjyn/913+pl73sZR2CdPjhh5tbAx/73uhaUAURk2Z8F4Q8kkcw0E4MDLwhDvKgb3Ik+mjOCExIkJxPVBTyAmnnC4S8k3cwAAaaioGK22J/jz93nVK+e38WtGY0BIlPqNrx4xfyTJ7BABgIhIGojME3ORJ9NGcEIEiBFkxTKyX84lMAMAAGwEAeA87dNZRw48+V8t1D2VpzvRAkCBJVJRgAA2AADFTAQFQesPHflfLdozpQn8kgSBUWBVVUvooiHsQDDICBNmIg6pbvmxyJPpozAhAkCBKVIxgAA2AADFTAgHN3DSXc9EulfPdQttZcLwSpwqJoY6WEz3xCAAbAABjIYyAqD9i0RCnfPaoD9ZkMggRBonIEA2AADICBChiIuuX7Jkeij+aMAASpwqKgispXUcSDeIABMNBGDDh311DCzTco5buHsrXmeiFIECQqRzAABsAAGKiAgag8wDc5En00ZwQgSBUWRRsrJXzmEwIwAAbAQB4Dzt01lHDzjUr57qFsrbleCBIEicoRDIABMAAGKmAgKg/Y8h9K+e5RHajPZBCkCouCKipfRREP4gEGwEAbMRB1y/dNjkQfzRkBCBIEicoRDIABMAAGKmDAubuGEo7erJTvHsrWmuuFIFVYFG2slPCZTwjAABgAA3kMROUBo0uV8t2jOlCfySBIECQqRzAABsAAGKiAgahbvm9yJPpozghAkCosCqqofBVFPIgHGAADbcSAc3cNJUyWKeW7h7K15nohSBAkKkcwAAbAABiogIGoPMA3ORJ9NGcEIEgVFkUbKyV85hMCMAAGwEAeA87dNZQw+ZVSvnsoWx16zz77bHXmmWc67vgR3XTTTer444/vqmzRokXq1FNPnXAcBAmCROUIBsAAGAADFTAw4S7r+2Z6i1K+u28bHfqWLFmiRkZG1Mtf/nK1yy676HO57ta+/OUvd8bK+AMOOKD0Ebkvfa+99uo8Yw9+85vfrO+94AUvUG95y1v0uRxdrbt1rqcqyKg88pUH8SAeYAAMgIF6Y6DCltj/o77JkeiL0IS4HHTQQZ2ZLrzwQk1OOoKSkyOPPFL95je/0XcnIkjTp08v6JPxBx98cE6zyF7xild0ZKtXr9bPJUnSkZkTCFKFqoGXWr1fauSP/IEBMOADA2ZDjXJMb1PKdw9s+N57710gLzKlkJUXvvCFPc8+EUGSe3b7/ve/n5v3oosuyl2b8fKs6/miRvNEoKMPMKKDlxoYAANgAAwMCwYCbZclam9XSvnuJVN5EpcRkA984ANOYlI2rehx/Yjt3HPPLdWTJT5ldpTKywwJJR8WQGMHL1cwAAbAABjwgYFQ+6Vbr29ydLsmF4YkmKN77sGkZTpPPvnkUmLjmkn0uAjSJz7xiVI98oxpZXaUys2DbThmA9UGf42PZck395t8bGvOly1bVvrCaHK+xTdy3vQMF/2TnAvmaYNFQGJn94k0mT2l29HoMOPMtTnOnz+/r/UqelwEac6cOaV65BnTyuwolZsH23DMBqoN/hofy5Jv7jf52NacQ5CajGq3b23PufhPixOBefPmqV66saZsDzr88MNLiY15NnsUPS6C9MUvfrFUT3YPKLOjVJ6dvOnn2UA13desf2XJz45p6nlbc972zbKpeJ7Ir7bnHII0ETom917ZHlQmL7NWxrsI0nPPPeckSGma5uTvete7ctdmnjI7nv/syYxs8FGC0MZWlvw2xKKtOW/7ZtkGbNs+tj3nECQbEcNzvX79+lJicuONN/ZsqLzPXQRJFMi9uXPn5nS59j6RiT3ZJrIDDzwwK9LnrWIMEoQ2NhdI2hKHtua87ZtlW/Cd9bPtOYcgZdEwfOf2PmRfi8UXXHCBk0gZb+SZMoJ0/vnn5541XwDftGmTeVwf7Xlf/OIX557LDm4nY8hGgHMiQASIABEgAkQgeAS23XZbTUaEpEyZMqUwXxlBMqTGPtoKTj/99I5+Gfvb3/7WHqKvX//61+fGOQfJp1JlN5ATASJABIgAESACRKCtEYAgtTXz+E0EiAARIAJEgAiURgCCVBoabhABIkAEiAARIAJtjQAEqa2Zx28iQASIABEgAkSgNAIQpNLQcIMIEAEiQASIABFoawRaQZBOOOGE3DfW999//1bk+7LLLsv53QqnlVLvec97cn7LbzNceeWVrXDf/i0PuW5jM3Fog+/GV/vYBt/FxwULFhTWe1t8x8+wEWjF21NeHC95yUt0JBcvXqwX0+joaNjIDoH2tr4wxe/PfOYznQyYOHQEDT6ZMWOGuvvuu7WH9957b2fjaLDLBdcuvvhiNXXqVO174WYDBYLv5cuXF3oDXS249PDDD+s8SxEsLUkSte+++xbGISACg0Sg8QRJXh477LBDLjby1zZF3pZ2//33t8pfV17bRJJs/8X3XXbZxRY38nrdunUdrLdljbfFTxdg2+y7Kx7I/Eag8SyhbAGVyf2Gdzi0QZBUqz5RsFEnWP/7v/97W9zIa/H1zjvv1L61ZY23xU8bsOJ3W323Y8F1mAi0miDJnyZvQ4Mgjf0/Pe9973vbkO6cjy972ctas4mccsopOV/bsnkaopA95kDQ0Avj77nnnqvzbq5XrVrVUI9xK3YEWk2QDj744NjxnpT52k6QzItzUoI/CZPOnj07t2HI9zLa0CTP2WZfZ+816VwIQrbttttuOaKYvdekc7Ous3l+y1veon3fuHFjk1zFl0mKQP6NMklGhJw2u3iy84j8iCOOyIoae95mgmReoo1NbhfHtmzZojeMpv+ITfK8ZMmSXDTK1n5uUEMvxHf5onqTW9naLpM3ORb4FiYCrSZI8psfbWhtJUjm1/3bkOOJfGz6hnHDDTdoEmj/Jpf4bWQTxaeJ95qec8lZmY8f/vCH9b0m5hWf4kagFQRJfrU/29asWdOqBdRGglT28szioC3nTY/F9ddf39ksja/2sS25Nn4a/811E48zZ850vse32WYbp7yJMcCnsBFoPEHaeuutC4ulDS+PLGzaRpA+/elP65w/9NBD2TC09lzw/uIXv7h1/ovfbWwbNmzQ+P/jH//YePclx08//XTOT5F9/OMfz8m4IAKDRKAVbxBZMHYfJFh1e8b2OXtdN1/6sTfrp33ej566jbW/nG1832mnnermihd7xf82NJPn7PG8885rg+vqySefLLzb25L3ViR4kp1sxxtkPMi33nrrJIeb6YkAESACRIAIEIE6RKBVBKkOCcFGIkAEiAARIAJEYPIjAEGa/BxgAREgAkSACBABIjBkEYAgDVlCMIcIEAEiQASIABGY/Aj8/1NEgmFYyYn/AAAAAElFTkSuQmCC;" vertex="1" parent="1">
          <mxGeometry y="160" width="263.66" height="200" as="geometry" />
        </mxCell>
        <mxCell id="L8nepF0H7HIKw9ve7Z6O-2" value="Epoch 0" style="text;html=1;align=center;verticalAlign=middle;resizable=0;points=[];autosize=1;strokeColor=none;fillColor=none;fontSize=15;fontStyle=1" vertex="1" parent="1">
          <mxGeometry x="80" y="360" width="80" height="30" as="geometry" />
        </mxCell>
        <mxCell id="L8nepF0H7HIKw9ve7Z6O-3" value="" style="shape=image;verticalLabelPosition=bottom;labelBackgroundColor=default;verticalAlign=top;aspect=fixed;imageAspect=0;image=data:image/png,iVBORw0KGgoAAAANSUhEUgAAAigAAAG0CAYAAAAYQdwgAAAgAElEQVR4Ae19CbwVxZX3Aycms+SLn04mmfxiEjU+QFAQBDUiigu4R2KMJi7EuE6MxoijjoojooljlCgu0YgSBTckiiIiIa6JgOiouMQYMSIQBXcUWd+79X2nH3Xtrq6+99atU3W7q//1+5XdffrUqVN1/lXnX/0ezzaBghnADGAGMAOYAcwAZiBnM9CWM3/gDmYAM4AZwAxgBjADmAEBggIQYAYwA5gBzABmADOQuxloAUF5WgiBijkABkLGQOV3+4my1gva2kUZ68Ivfk2UtfrM7C6w5dN/k75AUECWQBiBAXYMlJWc0LhdJJAi2CwrOaFx+ywusODTf5O+QFCQnNiTU8hfBjC2xr58gaCU7ysKCIpJ6m1e98K2dsFdm/fGbUsQFBAUEBRggB0DICggKGUiLG7TdNI6Nzkhe3ktIChITuzJCV8ZGvvKEPI8gaCAoICguEn7F7W1C+7qxlN7qyAoICggKMAAOwZAUEBQQFDsE7TOws/b2gV31fWTBxkICpITe3IK+csAxtbY1yEQFBAUEBQ3KZ6bnJC9vBYQFBAUEBRggB0DICggKCAobtL+JW3tgru68dTeKggKkhN7csJXhsa+MoQ8TyAoICggKPYJWmfh0rZ2wV11/eRBBoICggKCAgywYwAEBQQFBMVNiucmJ2QvrwUEBcmJPTmF/GUAY2vs6xAICggKCIqbtP/LtnbBXd14am8VBAUEBQQFGGDHAAgKCAoIin2C1lngJidkL68FBAXJiT054StDY18ZQp4nEBQQFBAUN2n/8rZ2wV3deGpvFQQFBAUEBRhgxwAICggKCIp9gtZZ+FVbu+Cuun7yIANBQXJiT04hfxnA2Br7OgSCAoICguImxXOTE7KX1wKCAoICggIMsGMABAUEBQTFTdq/sq1dcFc3ntpbBUFBcmJPTvjK0NhXhpDnCQQFBAUExT5B6yxc1dYuuKuunzzIQFBAUEBQgAF2DICggKCAoLhJ8dzkhOzltYCgIDmxJ6eQvwxgbI19HQJBAUEBQXGT9q9paxfc1Y2n9lZBUEBQQFCAAXYMgKCAoICg2CdonQVuckL28lpAUJCc2JMTvjI09pUh5HkCQQFBAUFxk/Z/3dYuuKsbT+2tgqCAoICgAAPsGABBAUEBQbFP0DoL17e1C+6q6ycPslIRlGuuOVcsWHAH+2ac95PwjBlXiwkTLijduCkuEyeOLWXMX311WhTzdevmtSTunATlmpN3Es9dsYfgtCltvXfLcHHtT3YSiyfszWb/gjYecjLl0J+KWaMuEVz2XNvhJCTvnHuBWDLsQGFic1H/b4l3L/y5WHbyaUbtTPrI0vWZzLnJCdnLaykFQWlvbxdqzTup4PJPHffixQ+0JGFxjadROyeccBhivgH3w4YN8R5zSQBsrip26bmevQ8nD0/FPatNM/azbMXlHERATRhXfGMPI6JyXb9vV03E/Zm425FVue4mrmt6n5W8TeQrZ/0h5VYj7VONhBBvnzU6QVR0OlLWSB+1dKQdH9cb2toFd/XhdzN9BE9QRo4cEW1Y8cRGG9OgQf29b9pxH3zc0zj79du2Os5Vq56I5mLlyj9VZT78aEUfNPaFC++tjnP//fdI4aAVfrnuUybdeD+twHs8YTdzP3LfvlG84m1pHAP79qxJUlbcOlzc8NOdIx05F3Eb8p7ebbtNj4Qtkh2657YJmdQ3uZomdlWfNvK1H6+sEpKL/nG7aG+/+J/7VWVqG/U5ngzUd7pn0r/0izs1bF9no1YCb/Qd+fHGzkOrxGLtn/8SDaXR9lLvtc23jtr9/ZDvV23Jd/GrJERxWTP3UWee/nNjW7vgrp5cN+4meIJCm878+ZOqiYo27jVr5gSfrJ56arJ2jHLTjiew0O6zxkjy0MaqjkeH9+2266PFgtqW89kkoet0aRxPXjY0QRZW37FPirTo2kqZxIF8jl/pXfyZ7hf+ei8j+2p7+axL3o3Kbtzl+9EmrurLnV2V655J9/aD/kM2qUs6pKLOlomsmcQebyP9iMvonooqa+SZ2q156eWabUnn/SuurqnTaF+Rox7+w01OyF5eSykIim7jpQ1q6dKZwSasoUO/pU1KctPWzUkoMhrj6NG0QSf/NU3oMafx0hjVcd9//3itXNXjfJbJutkrjUPXluRLGvx9EdKtZSfL/vq79tX2rdPXyUySuqr7wetLolyhymUCUeXq86Thx1bbN9qG9O45+sy6REbtS31uJJHX0iE/PvztpBRZIPmi7XdOyWvZondU3hg0JLPd8tPOjHTq2WnkfWTI038mtrUL7urJdeNuMglK9+7dRbdu3VKV5HYlmTQ4N0WdLdqgsuSXXjpK+06nXzSZ3JxVv+lHPllzouoW9ZnG98ILU1KxJXnIMX/00RsyY+s75rrEbSIjf3X6UQyPG6R9p+qTbi07qv4vjx8U6U8+Y5eG7Kvt5bOauE2e5d6qtqEf+VBR5eoz6Vz0uW0jvSxb8TZjNurVkN14m6z7RhJ5LR1yZPGe+6UIBcnfH39tSq7aWvfGYjnk6Lrwy1vUbCOVVTvNPEtbPq7c5ITs5bWkCMqKFSuEJCfnnHOO6OzsrPp+4403Ru/o/ciRI6tys5v8EJTRo09KJbGiJmXVb7k5q/LBg3fMTGKqblGfaeyLFt2fii3JQ475ffddmRlbGrvPeMpk3eyV/NW1Jfl5R+6gfafqk26WnR49ut69/dthka01d+4b6ZK+/B0W1V6jz1kJvBG53EtV3RVLl0WvVHn8mRSmHfNfVRKTZUttQ3pxWbP3zST2eBvyY9GgXVOkguQf3jw5JY+3jd8v/fb35NBrtiGlNw8fWVMnbrfWfbVDDzc3t7UL7urB7aa6SBEU+mqy77771jT2yiuvRF9Wair9f9C3tbWlqs9NkvqiDUfXJ8knTrxQ+06nXzQZjU839ix50cZXy18a4+OP35iKLclDjjl9NdLFvBW/c9VoMs/So3Ho3pH8pp99S/tO1SfdLDukK9/L6/uTuv4F0FOXJ3/3RbVb77nZBE/tZFFtZMml3r0/OidSkc+1bKk6V265Z24Iyt+/d2SKMNDA3jlvTEpeizDQOyod772vbbdi0u3R+3o2Gn0fGfP0n1va2gV39eS6cTcpgtLoj3BI78UXXzTusFZicfGONh+d3Sy5TreIslGjjtEmK7kZF3FMjfpMYzzggD1TcQ895jQ/ujGOGXOyVt7ofDajVy+J13tP49DpZMmzdE30yYapvq7fOAEwvV8wif7lWfqLhtxos+zJ91nXX319aIqESN0sm6byRpN5lh75s+alP6cIBcmz2tSSy/HpdOjdhxNvacpulj3Zn+srNzkhe3ktVgSFfhxkXvz/iOfUU49KJKtJky72vmE3s8nbtqHNVrVBsh49eqTkql6Rn/faa1dtfHXzUeRx6nynMap4J5nvsesSt4ksGsch/RMk5ZZRXb/43agdOe5G9b/Vv1fLCQqRAioqOSBZpbMzJVf14s9yb47L4vf13sd1G7nXJW4T2bq/vR65pLYhoSpr5FmOT6fbrE2dLZL5LJPb2gV39em/SV8pgvJP//RPdX98Q19PGv3SknbGL0F5772Ho01n+vTx1aRMG9fcuTdXn3UbfQgy+lsv8cQ0ZMhOiecQxpg1Bhp3nz69qzGWySpLPxS5GvOXXpoaxdw33hslBVl69BdeKWb3jd61SlLoec6lu1efqS3JsmzImOveHzF8u0S7H+3fr6YtnY0sWSPJvJbOJ+++H22bUufDxW8mnkme9a99ZBu6yhKXxe/p/QXdehiRnnh79T4reZvIyafO1aurhESOIW6DZPQLsVJG96/32aH6THIic1QW/tvXE3J61+zfVpH96a7STx/X29raBXf14XczfaQIChn5h3/4h+ovyqr/koeICcmaL34JCiWe5567I9p85IY1bdoV1cQVSmLKGseIEcm/rJmlF6Jcxpuuu+wyqDQxV/HeithmJW8T+bO/6vrjejKO0877lKxIO/RO3sur1Fev8j1d6c/bx9/3Uf5oW1zX9F5N3M08//2pFxJbrGrDlqBI46pdm2dd4m5GJn2j6/q3lqUIBsnjBGXpQYfGm0T36xa9kWonfSGFZSeekvle6plcUw44FHCTE7KX16IlKORsR0eHOOiggyIyIklK7969xcsvv2w5Fv8EpRUbNPpEnMuMAdOkHpK+TZIvcluThB6armVSNGp+R1u74K5GDnhUziQo7nxA4ipz4sLYy4H/kAiH6ViKTDJsfA+NdJiMx12+TFue0tYuuGu6l3xIQFCUvzaKBFqOBIo4u42zaVIPSd8myRe5rUlCD03XZzrnJidkL68FBAUEpTS/mwFS4paUxOc3JMJhOpYikwwb30MjHSbj8Zngp7a1C+7q03+TvkBQQFBAUIABdgyYJvWQ9G2SfJHbmiT00HRNkq6tLjc5IXt5LSAoSE7sySl+ksa9v68WeZrrkAiH6ViKTDJsfA+NdJiMx2eCv7utXXBXn/6b9AWCAoICggIMsGPANKmHpG+T5Ivc1iShh6ZrknRtdae1tQvuauuTq/YgKEhO7MkpTyd5+NKaLzghEQ7TsRSZZNj4HhrpMBmPqwSts8tNTsheXgsICggKCAowwI4B06Qekr5Nki9yW5OEHpquzwR/X1u74K4+/TfpCwQFyYk9OeGrRWu+WuRp3kMiHKZjKTLJsPE9NNJhMh6TpGure39bu+Cutj65ag+CAoICggIMsGPANKmHpG+T5Ivc1iShh6brKkHr7HKTE7KX1wKCguTEnpzydJKHL635mhMS4TAdS5FJho3voZEOk/H4TPAPtLUL7urTf5O+QFBAUEBQgAF2DJgm9ZD0bZJ8kduaJPTQdE2Srq0uNzkhe3ktIChITuzJCV8tWvPVIk/zHhLhMB1LkUmGje+hkQ6T8fhM8DPb2gV39em/SV8gKCAoICjAADsGTJN6SPo2Sb7IbU0Semi6JknXVndWW7vgrrY+uWoPgoLkxJ6c8nSShy+t+ZoTEuEwHUuRSYaN76GRDpPxuErQOrvc5ITs5bWAoICggKAAA+wYME3qIenbJPkitzVJ6KHp+kzws9vaBXf16b9JXyAoSE7syQlfLVrz1SJP8x4S4TAdS5FJho3voZEOk/GYJF1b3Yfa2gV3tfXJVXsQFBAUEBRggB0Dpkk9JH2bJF/ktiYJPTRdVwlaZ5ebnJC9vBYQFCQn9uSUp5M8fGnN15yQCIfpWIpMMmx8D410mIzHZ4J/uFu74K4+/TfpCwQFBAUEBRhgx4BpUg9J3ybJF7mtSUIPTdck6drqcpMTspfXAoKC5MSenPDVojVfLfI07yERDtOxFJlk2PgeGukwGY/PBP9o960Fd/Xpv0lfICggKCAowAA7BkyTekj6Nkm+yG1NEnpouiZJ11b3sY22FtzV1idX7UFQkJzYk1OeTvLwpTVfc0IiHKZjKTLJsPE9NNJhMh5XCVpnl5uckL28FhAUEBQQFGCAHQOmST0kfZskX+S2Jgk9NF2fCf7xjbYW3NWn/yZ9gaAgObEnJ/Wrxfr9e4myVvHWVaKUFevK+bpS1xmeW/O1sGveTdKune4f/+GbgrvaeDR27Fixbt06GxOZbUFQsJE630jLSk5o3KUkJ0TKsK4wB6XCQGaOZX/BTU7IXjOlra1NUN1zzz2jK92blPXr19dtZ2bRpPdM3VayXPTdisQBglLCryilSk7YV1qxr+Srz8yEx/7iT5/5puCupk5KUhJvRwRl0003jYtq3pN+3759I5KSpQiCgo3U+UkPBAUEJV/JBIQC8eDGQFaK5ZdzkxOyZ1qIXDz22GOJZqtXr65JNuLKt99+e1W31pcXEBQQFBAUh78jgx/xcCcC2AO5yCMG4unX7f0TG39TcFcTj9euXVslF2q7WmRD6n788ceJ9rXagKCAoICggKDw/64M1pXzdQWikieiItOv++vcz24luCuRBLVmjWTGjBkJghHXq0U2pB7pbLnllvIx0xYpgKBgI3W+keJHPPgRD5JpnpIpfOHHYzXfOr/hJidkb86cOamaNZBbb701k1TUIyiXXXZZqm2tNiAoICggKPiCgi8o2Aec7wP8pCBPRCsrnfPL5312K8FdTbxcunRpimTI9rXIBuno3utkVXvyxt81T6CCLz42DXxBwRcUHzhDH9jPWocBfxn0yc9tJbirqfdZpCJLLu3T+1pV6skrvqDg5OT85ASCAoLSusSBpI2594EBmVLdX7nJCdkzLUQyPvOZzySa9ezZU/uFJKGkeahFakBQQFBAUPAjHvyIB/uA830gbKKkybyORPP/cSvBXU1dfeeddyIyctttt0VNn3nmmej54YcfTpiqRT6kYi0dEBRsTM43JnxBwReUsJOTjxM6+sg3hmS6dX/lJidkr5kyb968xI9rJk2alDJTi3xI5Vo6ICggKCAo+IKCLyjYB5zvA/kmGLYEUKZb99en/mlLwV3de91cDyAo2Jicb0z4goIvKGEnJ9vkhvbFx0dzCbiZVv/7z1sK7tqMHz7agKCAoICg4AsKvqBgH3C+DxSfhNQikj7SdVcf3OSE7OW1gKBgY3K+MeELCr6ghJ2caiUuvCtH7P2l+Gf+ZUvBXf15b9YTCAoICggKvqDgCwr2Aef7QNhExSzx2mg/+y9bCO5q44/LtiAo2Jicb0z4goIvKGEnJ3wlQXxdpumkbW5yQvbyWkBQQFBAUPAFBV9QsA843wfCJjH+Uvxzn99CcFd/3pv1BIKCjcn5xoQvKPiCEnZywhcUxNcs8dpoL/g/WwjuauOPy7YgKCAoICj4goIvKNgHnO8DYZMYl2k6aZubnJC9vBYQFGxMzjcmfEHBF5SwkxO+oCC+/lL8C1/4huCu/rw366kUBKW9vV2otSwLSh334sUPOCck6ty6Iigq1CtLXxf1+lLbyOd67Zp9L94yIydqvIbtMaihrxuHHDQ4jXGlb9V2/Dnu58nH7pOyRbpxnbr3LSD+J5xwWMpvFYuhPsdjSffDhg3xvs5bMberV89JxbwVe5zcR3xcuckJ2ctrCZ6gjBw5IgJwfPHQAh40qH/wC5jG2a/fttVxrlr1RDQXK1f+qSqLz4ur+2aTe612ckHFdUi2/pABdUlKvA3dy6LKOZ7rJvIYiYji1bd3ggiQbOVrlydkqs1hew7qwrhia/he9ckN2V+7+Iqq/cnXHp+yRf2R3kNTT6/qqT6knltAUMjHOIbpWZXF34dyT2OMr3MaF8l8r/NWzCeNc+HCe6tx33//PVoUc7mLuL++uMk3BHd173VzPQRPUAjAY8eeUgUwLaIHH7y2RSD29yl4/fontWOk+aDqczPhSPSqDYJ75723JMiIXAKqbr3nzvmPRk3r6TXzPpW4YyRCfRfFRXlfjZcij7fV6dx4xTFdca7Rrv/2fVI6fbfbJiWjvqiPfffeMbcEZeDA7bv8jhGjMqxzSUbU9VzFRGw+VJ2iP+tiLufjxRfv8rrHyb3Hx/WlTb4huKsPv5vpoxQERbcQaQEvXTrTM4j9EZShQ7+V2rDl4qWx6+bElayZxF6vDYFd1en4n9OjNaDK6z3LhVNPr5n3cSJR7z6Ki0Io7p98ipYwxG1Ru+svG5kiDyRfv+TKlFy2pfdqnzNuPTUlI33Se/mP52fakjarV8+JkfwbPfo/UrgmecjrXK5pde3ef//4rjh6joPqh8tnii1VtY8suarH+yx3EfdXbnJC9vJaSk1QfvOb/06Bmxe0/giJ6nfWIs2Sq+05n5tJ7DXbnH5YtJ5SOgf21st1/0rn9MPE+jOPFJUVH3S1OWLXFOFJ2dfZqSOrJmyFeKjyZ/9wrpYYdCy9UiuPt6eYLv7fi1LkgeREOOK68Xt6v+yFX6Teb9OrZ9QnvVv2/C+ie9KNt6177zkxkn9z5tycWs8kD3mdP/vs7V34UOa7o2O+Vs65rltti2Ib4VIZe5bcrb/+Uvyf/+/XBXf1571ZT00TlG7duonu3bub9RZp+03aOgATUEl+9tnHpzY0tyD2N/asRbr77vovKy7HzZHo4zY6Lj8rQlJcJu/phbyvdVWBu/4HuzTUrpZN3bu6iXwDcbln4o+7NlsNkYkwrJFL21nvSX7VL47SEosqPjR2H/7d6ZEvUoeuO+/YV2tH+pC6KknDJb7kel6yJP1FlHwPeZ3fc884bZKWc+J63ltpX+JT9aEVe5y6n7h8fnnTrwvu6tJfG9tOCUpbW5tQqwom188EYl0fJJ848ULtO51+0WRZizdL7nJ8usRtJTv1kAjzKRsH99XL63zlqLz/TlPtUv1r+kklbg0hIJ0XHh2tJShrFv1KK4/bpZi+9uSFKQJB8t/feVpKTm3p3ceaX76lX6yld3H7Un+voQNTclWv+twCgvL44zem1jONJeR1/sILU7ripcz3mjVd/7rF5bputW2KbYRVZexZcrf+2qRhs7bc5ITs5bU4JShz5swRanULkvQXCh2AyQeSv/few6kNzbd/rvrbb7+huVm8jSRyUx1aUGqbjivOjdaZKm/kWWevkXb1dKoJO4OYxN9HWFX0pkw4qSuOilxt96uLjkiRB7JXeXN8St759w2/n6CxSW10fhx+yG5aedyPxL2SNFzhXNoln88440ep9UzykNc5jT+KlzLfU6b8UiuX8xXClcatG3uW3O2Y/aX4Vzb7uuCu/rw360lLUOhHN/VqkX7Ec+qpRyU2rkmTLtYC2y2A0+TJdX9Zi7dHjx6J+XDtR70k3sx7gnnn4zMTJIVklc7OhKwh26cdGq2ahnQ1X0lqtUskbQ0hiL+P4qXokKxHj/QXDbWd2vaS0V1/EySuJ+9JV9Wv926H/ttmtpFtE1clYbrG2F577Zpa01jnfte56xir9nUxJx3C9ltvzfK6x5mlXTttbnJC9vJatASFyEe9UhSCQqcnAuz06eOrgKXnuXPTv1CnLoCiP9PfeokS0YZkMWTITolnX+OrlcCbfVf95VZJGE75TgRZ1R4J47LKy88mntefdEAV6nE9rvtE0lbIh/pu0A7bdcVng95Lj52feCb9oUMGpGQL542JZHNmnFn9WkJx1/3YZ+0bV6Tax/148I6fRu/P+dnBVVv/+ZMDI9nsu35WlcXbaO89ExSZmNR1Hse/L7z77kdd5y+9NLUrxi2Ige+xU3z79KFfju86ANJza2Je3Uac3/z1X78muKtzp5vsQEtQGvnl16IQFAJurw3/KkGCtzUA9v8FhcYeHzPdr107t7qY5aJ2feVK9qqdSsf6BOw7H7o3ST42/BG2eLtEgw0PldWrUu3ibWzutcm7BlFR43XGyQcmSIGOoFAfl5yv+Suqmn569uzRtYFr3klfJSFRfZHvG7q2IDlOnDg2hXfX2M6LfTVWuh935cVXbj/Usbdij9PtK65kr/7r1wR3deWrrV0rgtLIl5a0g61J1NyLAvYaj6NNgi9624aSeQ2yUNj2LSAoWJONr0nMFfdcpTOdKwk3OSF7eS1aguLWWW5gwF7eN5uikwwb/wtLMGxJEwiK9y+Ved8HwvbPbdaMW1/4xa8J7hq3n6d7EBRspM43UpsEX/S2ICg4QISdmBHfrvj6S+uv/dvmgrv6896sJxAUEBQQFPmLtg6uIChIYCAoZcCAWeK10eYmJ2QvrwUEBQQFBMUBMZFffkBQypCcMEaQMH8p/vUvbS64qz/vzXoCQQFBAUEBQUn8SyEWUoV15XxdgRTkiRiaJV4bbW5yQvbyWkBQsJE630jl14QyXlmSve0vrLaiPdaV83UFglJOgrLoy5sL7gqCUp2BPIEKvvjY5MpITOSYQVCwxnysMfTRapxVE5zzmzf+fXPBXZ073WQH+IKCk57zk55M1mW8gqC0OnGgf5AXHxhoMgM30YybnJC9vBYQFBAUEBT8Dgp+BwX7gPN9IGyi5C/FL/73rwru6s97s55AULAxOd+YyvjlRI4ZX1B8nF7RR9jJvwjxNUu8NtpLvvJVwV1t/HHZFgQFBAUEBV9Q8AUF+4DzfSBsEuUyTSdtc5MTspfXAoKCjcn5xiS/JpTxii8oRTj9wsewyYOP+PpL8Uu/urngrv68N+sJBAUEBQQFX1DwBQX7gPN9IGwSZJZ4bbS5yQnZy2sBQcHG5HxjKuOXEzlmfEHxcXpFH2En/yLE11+K//vXNhfc1Z/3Zj2BoICggKDgCwq+oGAfcL4PhE2izBKvjfabX99ccFcbf1y2BUHBxuR8Y5JfE8p4xReUIpx+4WPY5MFHfF2m6aRtbnJC9vJaQFBAUEBQ8AUFX1CwDzjfB8ImQf5S/JtbfE1wV3/em/UEgoKNyfnGVMYvJ3LM+ILi4/SKPsJO/kWIr1nitdF+a6uvCe5q44/LtiAoICggKPiCgi8o2Aec7wNhkyiXaTppm5uckL28FhAUbEzONyb5NaGMV3xBKcLpFz6GTR58xNdfil/2za8L7urPe7OeQFBAUEBQ8AUFX1CwDzjfB8ImQWaJ10Z7efvXBXe18cdlWxAUbEzON6YyfjmRY8YXFB+nV/QRdvIvQnxdpumkbW5yQvbyWkBQQFBAUPAFBV9QsA843wfCJlH+UvzyHt8Q3NWf92Y9gaBgY3K+McmvCWW84gtKEU6/8DFs8uAjvmaJ10abm5yQvbwWEBQQFOcEBZufjw0SfQBnwEDrMOAvxb/d6xuCu/rz3qwnEBQQFBAUYAAYAAaAASsMmCVeG+13em8huKuNPy7bgqBYgRInltadWDD3mHtgABjICwZcpumkbW5yQvbyWkBQQFBwcgIGgAFgABiwwoC/FP9uny0Ed/XnvVlPIChWoMwLe4cfOEkCA8AAMNA6DJglXhvt97bbQnBXG39ctgVBAUHByQkYAAaAAWDACgMu03TSNjc5IXt5LSAoVqDEiaV1JxbMPeYeGAAG8oIBfyn+vX5bCu7qz3uznkBQQFBwcgIGgAFgABiwwoBZ4ppdOw8AACAASURBVLXR5iYnZC+vBQTFCpR5Ye/wAydJYAAYAAZahwF/Kf797bcU3NWf92Y9gaCAoODkBAwAA8AAMGCFAbPEa6P9wYCtBHe18cdlWxAUK1DixNK6EwvmHnMPDAADecGAyzSdtM1NTsheXgsICggKTk7AADAADAADVhjwl+I/HLiV4K7+vDfrCQTFCpR5Ye/wAydJYAAYAAZahwGzxGujvWLQNwV3tfHHZVsQFBAUnJyAAWAAGAAGrDDgMk0nbXOTE7KX1wKCYgVKnFhad2LB3GPugQFgIC8Y8JfiV+z0TcFd/Xlv1hMICggKTk7AADAADAADVhgwS7w22tzkhOzltYCgWIEyL+wdfuAkCQwAA8BA6zDgL8V/tPM3BXf1571ZTyAoICg4OQEDwAAwAAxYYcAs8dpof7zL1oK72vjjsi0IihUocWJp3YkFc4+5BwaAgbxgwGWaTtrmJidkL68FBAUEBScnYAAYAAaAASsM+EvxK3fdWnBXf96b9QSCYgXKvLB3+IGTJDAADAADrcOAWeK10V45pF1wVxt/XLYFQQFBwckJGAAGgAFgwAoDLtN00jY3OSF7eS2lISiDB+8o2tvbo9o6lu3/hPPmm7Oq4x416phSbUKXXPKz6tgXLLijVGOXWN9++76lGjfWebsoW8zzsc79pfhPdm8X3NWf92Y9lYKg0Ga9ww79oo36wQevjZJWR8f84DfuceP+MxrrRx89Ho1VJq0yELT4WGXMjzzy26WJ+cSJY6OxDhu2W2nwrlvnZY552db5unXzqgcS/2M3S7w22tzkhOzltQRPUGjTGjSofyIx/ehH342A7B/Efr+g0NhXrXoiMXaS7bPP7glZaPNw3nknauNLYw9trOp4dHgnWehj18Uc6xzrXF0f7p79pfhVe/QQ3NWf92Y9lYKgELNWgRn6hn311edok1IZkhWNsW/fbUsXc8I4jV3F+8iRI7RYUNdEkZ/LHnM1dmWJOcVdHTvJjj56REqu6vE+myVeG+3Ve/YQ3NXGH5dtS0FQdEAkEE+deplnEPv7gkLjy1q8Orlujooqo/FNnz4+FVuShxzzN96YoY35smWztfKixlfnN2Ke3FvKEnPdXkYynVyHGz6ZyzSdtM1NTsheXouWoGy00UaiW7duUe3evbvWd3rfXEkuJD6A6O1mAZXk9FnYdf+tsp+1SHfddacWLF59bFzNDY2dkrVqP/SY33vvFZmxpbGr8xHSM2KeXmNliLlujK3Z45rLhs20WrN3T8Fdm/HDR5sUQZk+fbogUkKViIq8V51phKC0tbUJtfreFHUAJh9IPnbsKcFu2jQ+3dh33HGAVu47Li77o3G/+uq0VGxDj7n8ZWDd3OqwoNMrqgwxB0GR2G3NHqdmSHfPa4b1FNy1WW+/8pWvRDn+85//fEMmKpWKGDBgQIIXPP00YVdfUgRF98WEZCohUZ915ufMmSPUKkHk65q1MZP82WdvTyUxX3657qdPn95aIkLjzpoT1z75sk/jo9/BUfsLPeaVylPa2M6fP0krV+enyM+IeZKglCXmur2MZDq5W3zrMqAbGTc5IXvNFPr4sMkmm0RNab7puaOjo6apww47TJx88sli/fr1kd7zzz9fJSu6hg0RFGo4cODAiKQsX748stMIQdF16BYkyUVKfdHE0cky3u+77z7UAgCnfYv7xH2/cOG92jG2ZvH6HXvWGEnOPc95s6fDe48ePbRYyJvvNv7oYl6GdU5zpsN1WWMu5+O22y7xvNb12c6FdO0+PQV3NfWTyMhmm22WaDZ8+PCIbCSEDT6QPV1JSXVfUGRDIiWSmMirfNf41W+y6t17m9QC1m1mNptjXtvSOM8889jEQiXZrFlJwpZX/5v1S/cLgnfddVkKB83az3M7HbZ1sjyPoRnfdDEvw7hprmicWOddeaV167zxDGiruW6/XoK7mvpEhGLdunWpZllEI6WoCLLapQgKEY9Vq1YpzT99POCAA6LfSykKQZELWG5W8trMJljENnK88nriiYclCEsRx9SIz3K88av6z28bsVNEnfiY5X0Rx2Hqsxxr/IqY+z0QmsbMVv+660ZHBC0e89bscZ/mSNd33OSE7JmUhQsXZn4pySIatexTm5499T9mShGUoUOHRgSklkEiJ0UiKLQIzjrruAjI8i/K2i6MIrWXi/eee8aVgpzI2DzxxMRqzNeunVuqsct/yXDiiYeXatxlXudljblc57TPtW6d18qYvO/W799LcFciCWrN8vrOO++0Jijxvq677rqsrkSKoGRqsr0Im9HL5Igr4gwMAAPAQFkwwJYg6xriJidkz6RMnTrVmqDE+5NkJS6T9yAoVv8Hy7IsPowTiQYYAAaAgWwMyJTq/tpx4DaCu5p4Tf9UmEiFrmTJdbpxGbUbNWpUXBTd63tJqXEKAPJskGNuMDfAADAADBQPA5w5sratjm9vI7hr7R7Tb4lQfPjhh6kXNgRlv/32S9tLSZwLsPiKt/gQM8QMGAAGgIFsDDhPnNUOuMkJ2TMtG2+8ceorCpETlaCoz7p+HnnkkVQ7qYcvKPgRT6l+iTJ7g8Hmi7kBBoCBZjEgU6r7a8eI3oK7NuO1JCTxq2pHJShx3fj90qVL1abRMwgKCAoICjAADAADwIAVBrT51Ymw45Degrs26+jIkSOjrx8HHnhgwybOP/988dWvflV88YtfFMceS3+nK7uAoFiBslm2jXY4qQEDwAAwEA4GspMs9xtuckL28lpAUEBQcHICBoABYAAYsMKAvxTfcWgfwV39eW/WEwiKFShxAgrnBIRYIpbAADDQLAbMEq+NNjc5IXt5LSAoICg4OQEDwAAwAAxYYcBfiu84rI/grv68N+sJBMUKlM2ybbTDSQ0YAAaAgXAwYJZ4bbQ7vr+t4K42/rhsC4ICgoKTEzAADAADwIAVBlym6aRtbnJC9vJaQFCsQIkTUDgnIMQSsQQGgIFmMeAvxXccsZ3grv68N+sJBAUEBScnYAAYAAaAASsMmCVeG+2Oo7YT3NXGH5dtQVCsQNks20Y7nNSAAWAAGAgHAy7TdNI2Nzkhe3ktICggKDg5AQPAADAADFhhwF+K7xjZV3BXf96b9QSCYgVKnIDCOQEhloglMAAMNIsBs8Rro81NTsheXgsICggKTk7AADAADAADVhjwl+I7jukruKs/7816AkGxAmWzbBvtcFIDBoABYCAcDJglXhvtjmP7Ce5q44/LtiAoICg4OQEDwAAwAAxYYcBlmk7a5iYnZC+vBQTFCpQ4AYVzAkIsEUtgABhoFgP+UnzHcf0Ed/XnvVlPICggKDg5AQPAADAADFhhwCzx2mh3nLC94K42/rhsC4JiBcpm2Tba4aQGDAADwEA4GHCZppO2uckJ2ctrAUEBQcHJCRgABoABYMAKA/5SfMdJ/QV39ee9WU8gKFagxAkonBMQYskay7euEqKsdfVMIUpYp7S1i7JWs7Rrp81NTsheXgsICggKTk7AAD8GykpOaNwlJCc05rKSExq3z9Lx4/6Cu/r036QvEBQkJ/7khDnFnIKglI6ogKCYpN7mdTt+MkBw1+a9cdsSBAXJFMkUGODHAAgKCEqJfuTjNk0nrXOTE7KX1wKCguTEn5wwp5hTEBQQFBAUJ3m/89QBgrs6cZTBKAgKkimSKTDAjwEQFBAUEBSGFJ020XnaDoK7pnvJhwQEBcmJPzlhTjGnICggKCAoTrI8Nzkhe3ktIChIpkimwAA/BkBQQFBAUJzk/c7TdxDc1YmjDEZBUJCc+JMT5hRzCoICggKCwpCi0ya4yQnZy2sBQUEyRTIFBvgxAIICggKC4iTvd54xUHBXJ44yGAVBQXLiT06YU8wpCAoICggKQ4pOm+g8c5Dgrule8iEBQUEyRTIFBvgxAIICggKC4iTLc5MTspfXAoKC5MSfnDCnmFMQFBAUEBQneb/z7EGCuzpxlMEoCAqSKZIpMMCPARAUEBQQFIYUnTbRec6Ogrume8mHBAQFyYk/OWFOMacgKCAoIChOsjw3OSF7eS0gKEimSKbAAD8GQFBAUEBQnOT9zvN2FNzViaMMRkFQkJz4kxPmFHMKggKCAoLCkKLTJjrP30lw13Qv+ZCAoCCZIpkCA/wYAEEBQQFBcZLluckJ2ctrAUFBcuJPTphTzCkICggKCIqTvN95wU6CuzpxlMEoCAqSKZIpMMCPARAUEBQQFIYUnTbBTU7IXl4LCAqSE39ywpxiTkFQQFBAUJzk/c4Ldxbc1YmjDEZBUJBMkUyBAX4MgKCAoICgMKTotInOi3YW3DXdSz4kpSEogwfvKNrb26MqSpSQ3nxzVnXco0Ydw5+IcjyXl1zys+rYFyy4o1Rjl1jffvu+rRl3EwTlkvMP+zReD58rRIM2Fs4dU213/hnfSbWTc6G7nnXqQQn9Va+PE3369Kram3HrqYn3Dfm0eqYROXnz9duq/Y067ftGbQcN2j5qS1eh6fejt+8W22zTs2r/vt+N1epR2xOPG1HVe/bJX2fq6foh2RQmQvKXSydUs+PsgYcY25362T5R+ydHnpVqu+z3f6rappu5h52W0mlmHAmjjh+4yQnZy2spBUGhjWmHHfpFG/WDD14bLcKOjvmt2bg9JvRx4/4zGutHHz0ejVVu0GUgaPGxypgfeeS3SxPziRPHRmMdNmy31uC9QXIhE341Xm9dJdYtuSLy+cjvDa1LDk7/8QGR7u9u+nGkG7cjbT/7h3OFWh+aenrUTurQ9TeX/zCSHfad3SJbs+78afRMNuN6de81RCErqY+79OSoDyISpFP1vwEbpLvr4IFRu8G7DIzaxvu55srTItntt5wX6az+4N5M+/F+1310f6Q3bK9djEhKM4ldbSMTJcmf+M5Posflj8wzIhHShkpQHht+rFg8Zaa4+1+2j+w9dew5UtXIvuozPfssnT//luCuPv036St4glJdeDFioJOFmLRpnNdff34iKZPsppvGJGShjf3556d0bdaxmD/zTNcpNbSxquPRYVsnU9uxPxsQlOcfOa8rXrE2z8w+JyXTEQMa24xbT0kQCJIRudDpS1l1TmJ9koy+nkgdur7z0v805Ee8TZwk1LunPq+/ZlSCCJDspuvPTMhUO1X/Y0RGlS1ffIfWBum98L+/qb7r33+7rjHGbEmSovZb61mXuE1kswd8J8pd8TZ/2Ol7KVn8vXpPypWOjqiNSlBU3ei5e08j+1obvgnKJbuITuYaTUIO/1MKgrJu3bxUQqZFyr4pxxJiq21fffWGDV7xqbqJKfJW+8vZP42xb99tU/ENPeY0hzRGFe8jR3Z9uuec47q2Yok/kbw18iomlXckP/rwPRKEIW7rv047WEse9hq64WuCYi/elmx/vPDyhG2Sjc74EVG8bd37WKKvldCvvqLrC4eqM/Korq9Cqjz+TL7Gn+V9lly+pyvpnHj8d6rt6fmcs46uPktdkvfdrk9KLt+r16zk3aic8uP6lZ+kvmaQvBEb0zbt+r/yki6VhgjKBt1G7NfSiTr09B9uckL28lpKQVB0myktvrlzb04lMZ1uEWU9e/bo2rwVIkLjplrEMTXqM41vwoQLUmMMPeZr187TxnbBgju18kbnsym9GuRATfBVTCptsuSyfdb7B247tWu8ij3ZrvPv47Xv99YQm0MOGqzVlba01wYJSnWNKvoLnrquq09FHicENPb4s7wn+eJXJ2vfxXVefXFiVYfajBl9bPU5rpfVj9SJX2sl8EbeUZJ8btQlKTJC8kd2PyolV22S3pRuPSI9um+EoLw164+kWte22pf6HBnx9J/OS3cR3NWT68bdaAnKZpttJrp16ya6d+9eNUj3JFPlVYWGb55OJY6mNkAl8WbZiBaYRjdalGNO9upLlo8u5DQ+3dh33nkHrdyFD62ySeN+7bX7UrENPeYzZlydGVsdFpzGJ4Mc6BI6+Rb5p7TJkksbWe9XL/qV1l69dvR+2s1dvxMibdNXGtmu4WsNYhFP6LKPuEze0zt5r7tmvSf5hOv+M7Otrk+djPrMkuv8IZmatE2fKYU80D48ZYfkr141KSWP25fpR8roOYugSF26/m3CXTXtSnv1rnGbru+5yQnZy2tJEZS+fftGxOTkk08WPXr0qJISIiayEFnZeOON5WPmdc6cOUKtTjfFDCKi65MW39ixp6SSmE63iLLq5qLMyY47DshMYkUcp85nGvurr05LxTb0mMtfBs6aE53cmUwhG7WSexWrSpssubSV9f6Tv43LJChrapAX+a+IFsT+BVFWH9IH7bXFBCXr91eqY9H4J9/9Yeal4oZfn1ElJyTPIiSqvF4Sr/eeEsnMXvumCAPJ/3rlzSm5tDdjiz2iHCSf6Uoli6CoeqQblzVzH3Xo6T+dlw0W3NWT68bdpAgKkY+PP/64akh+NakKNtzECYv6Tj63tbUJtTrbEJVELPuJFpjmHcmnTx+fSmKyXdGvcsNRx5ElV/WK/ExjvPvucanYhh7zZct+ryWfS5Z0nYa9xlQhG9pEvkGnikmlTZZc2sp6P++BszIJSo8e+q81ZJPs3XvLT1JfTEj+yN2np+TSj9RVQwDUZE7PVf8V/SULJ3f5r8jjNqht/Fnek/yZedem3mX1Jdt9/M49VX9Id9kbd1SfpU69azOJPd6G8saTR5+ZIgskn3v4z1Jy2Zbe3/WZ3on3kS3NPzOWbeJX0o0/N3NPNnyVznGDBXf15btpP1qCEjcyc+bMxI965Lv4j3+krLGr/x/xyH9mG9+gowWuIS5xnSLf33LLxV2bnDLG6kalyIs8VtV3GmOvXvTb+UmshR5zGi+NUcX7iBHDtFhQ54f1WSEbqSQee1/FZEwmCcMpx++bSQx+cd73usaltNtx4IZ/laLIpc1tCBsZ77Lk++69o7aNTr9eIpfvb7nxv7r8V4jIiG/voZXLdnSlOauseiBBROg5wrhirzq/ijxuT3dP7egXeXXvdLJmEnu8DeWPzvXrU2SB5HE99b5e3lH11WdqP+1fd6zZh9pGfa7nA+d7bnJC9vJa6hKUefPmFZqg9O69TdeijSWr6oKNyVg355zYpXGeeeaxiURNslmzrk3IQhv7smWzUzG/667LUrLQxk3j0WFbJ3M+dg0B0Cbzt64Sy174RVdsYm3umvAfKRmNY+iQAQmiQLIrLz4iJXvxsdEJGfX958fPT9mM+0S21L+9In+h9uU/np+yF2+buDcgAtTnmaOOSJAAks2afklVNnT3nbr8jtklHapxotCoLN4m637vvb6Vsp+lK+Vq0jZ9vu/fuxJlvN38Y/4ryp1xGQlWvr6kJqEgnUZ+xPO7f6a/j1WbAMX7zrqPjHj6T+evdhXc1ZPrxt3UJShZFhv5EY++bfJU63yjjG3a9MfZzjvvxK6FlxMS4XL8s2f/Ohrr7NnXiRUrHovuo02tBGOXm/U77zxUjfnPf/7ToIkZYUnG/LjjDo1i3rt3119FdYkzre0Y2Ugk7wx5NV4v/Y94cubZEVZ/fu73EqSAdFSC8turjo10f3bS/uL9v1z6KcY1/cg+svw5YWTXl6Yd+m8r6HdVLjrn0Jr2suzIhN3IdfaMrr+zMvuBS8WK5b/7tL8YGdERFLJN46HfE+xYOSO60nO8zyN/sF/Vnhx7/BrXJfnkieeI6XdfJPr02XCoi/kQ1826z0reJnKZM+79t53Fa9fTX38W4pXLb0qQEZI1Q1Co3eq33o6Iy+P7Hic6Vq+J7Fc6OxP2TfyVupEhT//pvGJXwV09uW7cTYqgEPH45S9/WddQUX7EIzfPs846Llqs8i/KSnkZrnJTuuee9O9lhDz+J56YWI352rVzgycn8VjuumvXqfvEEw9vzbg1BCEzoW/QfWJ6118+JryufeOKBDmp1bZj6ZVip0F9o1j//s7TMtvRX5OtZUe+o7+9Qj70376P0H2JkXqZV8PETgm/ukanjEmQjCwyIOU//UnX/x6ArlLWzJV+OXb/fYcI+qNtv7n2jKZsyWRte310z5FR/ln7/odi6sbJ3y1p1PaL/z1ezOp7UIp4PHPKWPHRX18XZPuF865IvW/UvqpXN2EyKnCTE7KX15IiKO4d9f8FJb5x4x7zDwx4wEATBCUz4RfNVhMEpRlSkbc2atIu07P7vPlpD51XDhHc9VPr+boDQSnBjzuQkD0kZOAo+aWmaKSC018QFLYvE0UhOT7TOjc5IXt5LSAoSCzJxIL5wHxwYIAz4RfNFggKCIrDjN85fojgrg7dtTINgsKxGcMGkjowkMRA0UgFp78gKCAoVmm5duPOq3YT3LV2j617C4KCxJJMLJgPzAcHBjgTftFsgaCAoDjM6dzkhOzltYCgcGzGsIGkDgwkMVA0UsHpLwgKCIrDjN95zW6Cuzp018o0CAoSSzKxYD4wHxwY4Ez4RbMFggKCYpWWazfuvHZ3wV1r99i6tyAoHJsxbCCpAwNJDBSNVHD6C4ICguIwp3OTE7KX1wKCgsSSTCyYD8wHBwY4E37RbIGggKA4zPidv95dcFeH7lqZBkHh2IxhA0kdGEhioGikgtNfEBQQFKu0XLsxNzkhe3ktIChILMnEgvnAfHBggDPhF80WCAoIisOM33ndUMFdHbprZRoEhWMzhg0kdWAgiYGikQpOf0FQQFCs0nLtxp3XDxXctXaPrXsLgoLEkkwsmA/MBwcGOBN+0WyBoICgOMzp3OSE7OW1gKBwbMawgaQODCQxUDRSwekvCAoIisOM3/mbPQR3deiulWkQFCSWZGLBfGA+ODDAmfCLZgsEBQTFKi3Xbtw5YQ/BXWv32Lq3ICgcmzFsIKkDA0kMFI1UcPoLggKC4jCnc5MTspfXAoKCxJJMLJgPzAcHBjgTftFsgaCAoDjM+J037im4q0N3rUyDoHBsxrCBpA4MJDFQNFLB6S8ICgiKVVqu3bjzpj0Fd63dY+vegqAgsSQTC+YD88GBAc6EXzRbICggKA5zOjc5IXt5LSAoHJsxbCCpAwNJDBSNVHD6C4ICguIw43dO3EtwV4fuWpkGQUFiSSYWzAfmgwMDnAm/aLZAUEBQrNJy7cbc5ITs5bWAoHBsxrCBpA4MJDFQNFLB6S8ICgiKw4xf+e1egrs6dNfKNAgKEksysWA+MB8cGOBM+EWzBYICgmKVlms3rty8t+CutXvMfvuVr3xFtLW1ic9//vPZSsqbo48+OmpD7ajWKrXf1mrZ9LunkQA4EgBsAEd5xkDRSAWnvyAoIChN58f6DbnJCdlrphC52GSTTaKm7e3tEdno6OioaYrabLbZZmLp0qWR3vXXXx+1u/jii7XtQFDyvMnDN5AQYAAYAAYKgAFtfnUirNyyt+Cupo5KohFvN3z48LpfROL68n7cuHGZ7UBQsPgLsPjx1U0Ap8ApMJBjDMh06/5amTxMcFdTr4mgrFu3LtWM5KZl9erVICjY4JHkgQFgABgABtxgwDQtN6/PTU7I3pw5c1I1y8OFCxdmE4omCAqRmixiY053srxuWI4F4maBYF4xr8AAMAAMtAYDDSdAa8XKrcMEd5UkIX7NcnTy5MnZhMKQoDzyyCOZtqh/EBR8Ns3xZ1Nstq3ZbDHvmHdgwAwDWemcX85NTsieSZk6dWomqcj6EqKzv2jRosjOD3/4Q93rSAaCAoICggIMAAPAADBghYHMHMv+onLbcMFdTZysVCrWBOXtt9+ObOyzzz41uwZBsQIlThlmpwzMF+YLGAAGQsRAzTzL+rJy+3DBXU0dpC8lH374YapZI19QPvjgg4icDBkyJNVeFYCggKDg5AQMAAPAADBghQE1tbp75iYnZM+0bLzxxqmvKPL3V+K2VMKyatWqqN3AgQPjapn3IChWoAzxJIAx4YQLDAADwIAZBjJzLPuLyh37CO7ajJOSkMSvqh2VoMR11Xu1LT2DoICg4OQEDAADwAAwYIUBXXp1I6vcuY/grs16OnLkyOiLyIEHHtisiZrtQFCsQIlThtkpA/OF+QIGgIEQMVAzz7K+5CYnZC+vBQQFBAUnJ2AAGAAGgAErDPhL8ZW79hXc1Z/3Zj2BoFiBMsSTAMaEEy4wAAwAA2YYMEu8Ntrc5ITs5bWAoICg4OQEDAADwAAwYIUBfym+MnVfwV39eW/WEwiKFShxyjA7ZWC+MF/AADAQIgbMEq+NduV3+wnuauOPy7YgKCAoODkBA8AAMAAMWGHAZZpO2uYmJ2QvrwUExQqUIZ4EMCaccIEBYAAYMMOAvxRfuXs/wV39eW/WEwgKCApOTsAAMAAMAANWGDBLvDbalXv2F9zVxh+XbUFQrECJU4bZKQPzhfkCBoCBEDHgMk0nbXOTE7KX1wKCAoKCkxMwAAwAA8CAFQb8pfjKtP0Fd/XnvVlPIChWoAzxJIAx4YQLDAADwIAZBswSr402Nzkhe3ktICggKDg5AQPAADAADFhhwF+Kr9x3gOCu/rw366lUBOWaa84VCxbcUbqFOGPG1WLChAtKN246AU2cOLaUMX/11WlRzNetm1e6uCPm5Yz53XePayHWzRKvjXZl+oGCu9r447JtKQhKe3u7oDpy5IjoSvdmn++K+bmzo2N+NN7evXuJ73533+h+6NBdSjF2GfODDtq7GvPly2cHP3YZcxq/jHlZ8I6Yly/mxx13aLS+aZ3367ddC/c4l2k6aZubnJC9vJbgCYrctOKERCeLvw/lnsZ5/fXnJ5IyyW66aUxCFsp45Tief35KtFHJZ7o+88xtKVn8fSj3OmzrZKGMV45DF/MyjJvGT+PEOu86RLZunftL8ZX7DxLc1Z/3Zj2VgqDMnz8pkZDXrJkTfLJ66qnJ2jGWYdPOGiPJZUIL9UpjVPG+3XZ9tFgIaQ50MS/DOpcERY1lWWMu5+Paa8/zvNbNEq+NdmXGtwV3tfHHZVsjgtK9e3cGX/z+uCQrKZF87tybPYPY39h79uyhTUq6jVzd3Ir+TGPUD3cWjgAAIABJREFU/c5N6DFfu3aeNuYLFtyplRc9znH/EfPk3lKWmFPc4zige5Lp5Koe7zNDamzQBDc5IXt5LSmCMmbMGJFViaDE3zU3qORC4gVJ2nYWUEk+ZszJKXC79seX/axFuvPOO7Rg8abj4nIeaOyvvXZfKrahx5x+GZrGqJvbLLlOt4gyxDy9xsoQc90YW7PHNZcNm2lVeWCE4K7N+OGjTYqgEAnJqt26dUu8a87B9EJyuSHqAEz9kXz06JO0m7lLf3zZpvHpxj548I5auS+/fPRD41606P5UbEOP+X33XZkZWx0WfMTCVx+IeXpfLUPMdWNszR7XXDZsphU3OSF7eS1agrL55ptr/TX9EU9bW5tQq68NS/ajAzC9I/n06eNTSUy2K/qVxqcbe5a86OON+09j1P2TQ5KHHPNly36vjfmSJTO18vicFf0eMU8SlLLEnOKuYpdkOrmqx/usTZlOhJUHvyO4qxNHGYymCArZPPLIIwV9LTnzzDMTXZgSlETj6kNyIfGCJG2bgPrRR49rQey671bav+WWi7WLtDWLNx0Xl3NDY+zVq2fpYk5zqsP7iBHDtFhwGQPftssec3W+yxJzirs6dpKdcsqRKbmqx/tcTXDObyqzDhHc1bnTTXagJShk64knnoh+nLPppptWTReVoNDfAYmDcZ99dg9+w6bx0kJ9881ZibGT7KijDk7I4nMTwv348Wen4lupPJWShTBWdQwUXxXvJKOq6ob0rIs51jnWuT+MV9Ok8xtuckL28loyCYp0eI899oi+phx77LERYZHy5q9+T9MEULlB0x+xOu+8E4PfrOWinD3719FYZ8++TqxY8Vh1HuT7kK8y5u+881A15j//+U+DTtIUTxlz+gNWFHMiK6GTE4ljxLzcMX/yyUkt3OOaz4imLSu/P1RwV1MffOnXJSjkyNSpU6u/HGvvmH+C8txzd1SBS5vYtGlXBJ+o5KY9YsTwxNilvAxXmbDoussug0oTcxXvZYi1HGM85ljn/vdaGQef13jMW7fO7TNjoxYqs78nuGujffvWa4ig8DpVjkXjc4GiL2AKGAAGgIFWYoA3S9ayxk1OyF5eCwiK1f/BspULAn1jQwYGgAFgIB8Y8JfiKw8dJrirP+/NegJBAUEpzY8+8rGRIaEgDsBAeBgwS7w22pWHvy+4q40/LtuCoICggKAAA8AAMAAMWGHAZZpO2uYmJ2QvrwUExQqUOAmFdxJCTBFTYAAYMMWAvxRfeeQHgrv6896sJxAUEBScnIABYAAYAAasMGCWeG20uckJ2ctrAUGxAqUpy4Y+TmbAADAADISHAX8pvvLoEYK7+vPerCcQFBAUnJyAAWAAGAAGrDBglnhttCuPHSW4q40/LtuCoFiBEieh8E5CiCliCgwAA6YYcJmmk7a5yQnZy2sBQQFBwckJGAAGgAFgwAoD/lJ85Y9HC+7qz3uznkBQrEBpyrKhj5MZMAAMAAPhYcAs8dpoV/40UnBXG39ctgVBAUHByQkYAAaAAWDACgMu03TSNjc5IXt5LSAoVqDESSi8kxBiipgCA8CAKQb8pfjKE8cI7urPe7OeQFBAUHByAgaAAWAAGLDCgFnitdHmJidkL68FBMUKlKYsG/o4mQEDwAAwEB4G/KX4ypwfCe7qz3uznkBQQFBwcgIGgAFgABiwwoBZ4rXRrsw7VnBXG39ctgVBsQIlTkLhnYQQU8QUGAAGTDHgMk0nbXOTE7KX1wKCAoKCkxMwAAwAA8CAFQb8pfjKk8cL7urPe7OeQFCsQGnKsqGPkxkwAAwAA+FhwCzx2mhX5p8guKuNPy7bgqCAoODkBAwAA8AAMGCFAZdpOmmbm5yQvbwWEBQrUOIkFN5JCDFFTIEBYMAUA/5SfOWpEwV39ee9WU8gKCAoODkBA8AAMAAMWGHALPHaaHOTE7KX1wKCYgVKU5YNfZzMgAFgABgIDwP+Unzl6ZMEd/XnvVlPICggKDg5AQPAADAADFhhwCzx2mhXnvmx4K42/rhsC4JiBUqchMI7CSGmiCkwAAyYYsBlmk7a5iYnZC+vBQQFBAUnJ2AAGAAGgAErDPhL8ZVnTxbc1Z/3Zj2BoFiB0pRlQx8nM2AAGAAGwsOAWeK10a489xPBXW38cdkWBAUEBScnYAAYAAaAASsMuEzTSdvc5ITs5bWAoFiBEieh8E5CiCliCgwAA6YY8JfiKwtOFdzVn/dmPYGggKDg5AQMAAPAADBghQGzxGujzU1OyF5eCwiKFShNWTb0cTIDBoABYCA8DPhL8ZUXfiq4qz/vzXoCQQFBwckJGAAGgAFgwAoDZonXRrvy4mmCu9r447ItCIoVKHESCu8khJgipsAAMGCKAZdpOmmbm5yQvbwWEBQQFJycgAFgABgABqww4C/FV146XXBXf96b9QSCYgVKU5YNfZzMgAFgABgIDwNmiddGu/LnUYK72vjjsi0ICggKTk7AADAADAADVhhwmaaTtrnJCdnLawFBsQIlTkLhnYQQU8QUGAAGTDHgL8VXXj5DcFd/3pv1BIICgoKTEzAADAADwIAVBswSr4125ZUzBXe18cdlWxAUK1Casmzo42QGDAADwEB4GHCZppO2uckJ2ctrAUEBQcHJCRgABoABYMAKA/5SfOWVswR39ee9WU8gKFagxEkovJMQYoqYAgPAgCkGzBKvjTY3OSF7eS0gKCAoODkBA8AAMAAMWGHAX4qv/PVswV39eW/WEwiKFShNWTb0cTIDBoABYCA8DJglXhvtyqvnCO5q44/LtiAoICg4OQEDwAAwAAxYYcBlmk7a5iYnZC+vBQTFCpQ4CYV3EkJMEVNgABgwxYC/FF959VzBXf15b9YTCAoICk5OwAAwAAwAA1YYMEu8NtqVhecJ7mrjj8u2pSIo11xzrliw4I7SLcQZM64WEyZcULpx0ylw4sSxpYz5q69Oi2K+bt280sUdMS9nzO++e1wLse4yTSdtc5MTspfXUgqC0t7eLqiOHDkiutJ9GT5hdnTMj8bbu3cv8d3v7hvdDx26SynGLmN+0EF7V2O+fPns4McuY07jlzEvC94R8/LF/LjjDo3WN63zfv22a+Ee5y/FV147X3BXf96b9RQ8QZGkJE5IaCMbNKh/8MmKxtmv37bVca5a9US0gFeu/FNVFp+XkO5p7AsX3lsd5/777xGNPaQx6sYik3T8XZnwro6bxh6XhXhPY4yvcxojybDOTX+PxEbfLPHaaHOTE7KX1xI8QaGFOn/+pMQmtWbNnOCT1VNPTdaOkeaDaogbtRxT1hhDH7dMTCret9uuTyljXoZ1LmMusS+vZY25nI9rr6UfW9gQDtO2/lJ85bX/FtzVn/dmPZWCoOiASslq7tybPYPYFPTN6/fs2UOblLKSt26OiiqjMep+5yb0mK9dO08b8wUL7tTKixpfnd+IeXKvKEvMKe4qHkimk6t6vM9middGu/K3CwR3bcaftrY2odZ6dj744AOjNkYE5fLLLxfTp0+v50Od98mFxAuStO0soJL80ktHpcDt2h9f9rMWKX0KzpoTX7657ofG98ILU1KxDT3mjz56Q2ZsEfP03uAahz7slz3mOly3Zo+rk/YYX3OTE7JnWp577rmIaLz22mtR05UrV0bPV199dU1TkqAcfvjhVaJSq0GKoHTr1k08+eSTiTYk6969e6ImFIwe/G4UOgDTxkHy0aNPSiUxH5uKjz5ofLqxDx68o1buwydffdC4Fy26PxXb0GN+331XZsZWhwVf8fDRD2Ke3lfLEHPdGFuzxxklQSvlyt8uFNzV1CH6cnLqqacmmk2dOjUiHQlhjQf59aWGiqhLUE488URBBEUyJTImCUstw/ROOhC/+tis4n3oAEzvST5x4oWpJBZvW+R7Gp9u7FnyIo9V9Z3G+PjjN6ZiS/KQY05fjXQxL8PvYiDmSYJSlpjr8E4ynVzdJ3if62VDvveV18cK7mrqHeV0XcmSZ+nW00/1on5BoS8nupIl1+kmZcmFxAuStO0soGbJXfvjy/6oUcdoF2lrFm86Li7ngcZ4wAF7agmKy37zYFuH6zFjTtZiIQ/+cvmAmCfXWFlirsM7yYYM2Sm1/rmwpreTzHIun7jJCdmbM2dOqmaNYe7cuZlfSuoRjrhN0q2nb0VQFixYEO+vwfvkQtIHm0+HwEp/ByTezz777B78hk3jpbG/+easxNhJdtRRBydk8bkJ4X78+LNT8a1UnkrJQhirOgYd3klGVdUN6VkXc6xzrHN/GG8w/TGoVRZdJLirJAvxa5arN998cyaxqEc44jZlX3GZem9FUJYsWaLaa+CZj3w0Ar733ns42pynTx9f3aBpsw75X/DIeaG/9RJPTHSqiD9LvRCvNM4+fXonYl6Gsasxf+mlqVHMy4B3iq+6zssc8xDXtTqm/KzzBlIfkwo3OSF7JmXWrFmtJSjqL8R+8sknKf/pR0HNFb8EhQD93HN3RJs0gZnqtGlXVBOXCvjQnkeMGJ4Ye2jjqzUeGW+67rLLoNLEXMV7rTkK7V085ljn/vfaVuApHvPWrfPmsmEzrSqLLhbc1dSPrC8lWXKd/aa+oOgMqbKZM2eKgw+mz4fNlHIsmlYsVPQJbAEDwAAw0AoMNJMLm2tTeeMXgruaekLk4tBDD000u+qqqzK/rCQUNzw4Iyi6zhqXtQI86BObFjAADAADwIArDDSeAW01uckJ2TMtJ510UoqMEOHo06dPwhTJsgoIitc/dewK+LCLTRUYAAaAgXxjICsN88sriy8R3LUZLzfaaKOIpEiioSMjWbJ4G3mv8yGb3ui0WWRYaPleaIgP4gMMAAPAgBkGWJJjQ0Yqi/9HcNeGOs5Qmj9/fsYbezEICr6ylOaXR802HGzQmC9gABhoFAP2ybhRC9zkhOzltYCggKCAoAADwAAwAAxYYcBfiq8s+aXgrv68N+sJBMUKlI2ya+jhJAYMAAPAQLgYMEu8Ntrc5ITs5bWAoICg4OQEDAADwAAwYIUBjyl+6WVCcFeP7pt0BYJiBUqciMI9ESG2iC0wAAw0igGTtGupu/RyIbirpUuumoOggKDg5AQMAAPAADBghQFXKVpjl5uckL2cFhAUK1A2yq6hh5MYMAAMAAPhYsBjhv/7r4Tgrh7dN+kKBAUEBScnYAAYAAaAASsMmKRdS92/XyEEd7V0yVVzEBQrUOJEFO6JCLFFbIEBYKBRDLhK0Rq73OSE7OW0gKCAoODkBAwAA8AAMGCFAY8Z/s0rheCuHt036QoExQqUjbJr6OEkBgwAA8BAuBgwSbuWum9dJQR3tXTJVXMQFBAUnJyAAWAAGAAGrDDgKkVr7HKTE7KX0wKCYgVKnIjCPREhtogtMAAMNIoBjxn+rauF4K4e3TfpCgQFBAUnJ2AAGAAGgAErDJikXUtdbnJC9nJaQFCsQNkou4YeTmLAADAADISLAY8Zftk1QnBXj+6bdAWCAoKCkxMwAAwAA8CAFQZM0q6l7vJfC8FdLV1y1RwExQqUOBGFeyJCbBFbYAAYaBQDrlK0xi43OSF7OS0gKCAoODkBA8AAMAAMWGHAY4Zffp0Q3NWj+yZdgaBYgbJRdg09nMSAAWAAGAgXAyZp11L37euF4K6WLrlqDoICgoKTEzAADAADwIAVBlylaI1dbnJC9nJaQFCsQIkTUbgnIsQWsQUGgIFGMeAxw799gxDc1aP7Jl2BoICg4OQEDAADwAAwYIUBk7RrqctNTsheTgsIihUoG2XX0MNJDBgABoCBcDHgMcO/M0EI7urRfZOuQFBAUHByAgaAAWAAGLDCgEnatdR990YhuKulS66ag6BYgRInonBPRIgtYgsMAAONYsBVitbY5SYnZC+nBQQFBAUnJ2AAGAAGgAErDHjM8O9OFIK7enTfpCsQFCtQNsquoYeTGDAADAAD4WLAJO1a6r73WyG4q6VLrpqDoICg4OQEDAADwAAwYIUBVylaY5ebnJC9nBYQFCtQ4kQU7okIsUVsgQFgoFEMeMzw790sBHf16L5JVyAoICg4OQEDwAAwAAxYYcAk7VrqcpMTspfTAoJiBcpG2TX0cBIDBoABYCBcDHjM8O9PEoK7enTfpCsQFBAUnJyAAWAAGAAGrDBgknYtdT+YLAR3tXTJVXMQFCtQ4kQU7okIsUVsgQFgoFEMuErRGrvc5ITs5bSAoICg4OQEDAADwAAwYIUBjxn+g1uF4K4e3TfpCgTFCpSNsmvo4SQGDAADwEC4GDBJu5a6H94uBHe1dMlVcxAUEBScnIABYAAYAAasMOAqRWvscpMTspfTAoJiBUqciMI9ESG2iC0wAAw0igGPGf7DO4Tgrh7dN+kKBAUEBScnYAAYAAaAASsMmKRdS11uckL2clpAUKxA2Si7hh5OYsAAMAAMhIsBjxl+xZ1CcFeP7pt0BYICgoKTEzAADAADwIAVBkzSrqXuiruE4K6WLrlqDoJiBUqciMI9ESG2iC0wAAw0igFXKVpjl5uckL2cFhAUEBScnIABYAAYAAasMOAxw380VQju6tF9k65KRVCuueZcsWAB/UJQo6w4DL0ZM64WEyZcULpxU5wnThxbypi/+uq0KObr1s0rXdwR83LG/O67x7UQ6yZp11L347uF4K6WLrlqXgqC0t7eLtRaFpKijnvx4gdauIj9Eb4TTjgMMd+A+2HDhiDmgR9K1HVelpivXj0ntc5bs8e5StEau9zkhOzltARPUEaOHBEBOE5IaDEPGtQ/+E2bxtmv37bVca5a9UQ0FytX/qkqi89LSPc09oUL762Oc//990jhIKTxyrHIRCWf6VomvKvjprHHZSHe0xjj61zGHOvc34HIa37/+B4huKvXATTeWfAEhRbv2LGnJDapBx+8NvhktX79k9ox0nyEvmkPHLi9doyhj1smJhXvZY15Gda5jLlKvMoaczkfL75Iv/gJgtIwkWmcM3jVLAVB0QGVFvDSpTM9g9jfghk69FuZSTr0RE3jGz36P1KxDT3mcnNW8X7//eO1WFD1ivyMmCf3lrLEXLeXkUwnd4tvj3l75TQhuKtH9026ShGUxx57TLz44osJG927dxfdunUT8rrRRhsl3ps9JBeSW9B0fd7W9UEAvvTSUakkptMtoixrkdKnYP+L13/MX3hhSiq2ocf80UdvyIwtYu4Xg772jLLHXIfr1uxxZlnQSnvlfUJwVyuH3DVOERQiIvHyhS98oUpMjjzySPG5z30uej766KPjagb3fjcKHYBp8yD52Wcfn0pivjYW1/3Q+HRj3313/ZcV1/74tE/jXrIk/XUs9Jjfc884bcxp7nVY8BkT130h5ul9tQwx142xNXucQQq0VeUmJ2QvpyVFUOgrSbyoz/KdSmSkPH5ta2sTanW9Uan2dQAmHZJPnHhh6QgKjTtrTtS5K+ozje/xx29MxTb0mNNXI11s16zp+pcORY1nI34j5kmCUpaY6/BOMp28ERw1rxPPfI7vP5kuBHd17HKz5usSlCwikkVc6juSXEjNA6IxO1lAzZK79seX/VGjjtEu0tYs3sZixTU3NMYDDthTS1C4+sirHR2ux4w5WYuFvI6hGb8Q8+QaK0vMdXgn2ZAhO6XWfzO4arxN/czHpvHJDCG4K5tzvIZSBIUIyZo1a6q9hEBQTj31qARYJ026OPgNmxZW1uLt0aNHYj4aX4TJTTCv7fbaa9fMsefVZy6/KOYq3kmmwwJXn3mwo4s51nl51/lbb83yvMdVU6b7G25yQvZyWlIEhfykryOvvPJK5PIRRxwRPcf9p/dF+YLy3nsPR5vz9Onjq4ClzXru3Jurz3nYYF34QH/rJZ6Y6FQRf3bRZ15s0jj79OldjTE9l2HsasxfemlqNO4y4J3iq67zMsc8L2vRpR8U33ys83iGdHy/6gEhuKtjl5s1ryUoAwYMiAgIfT0hIhK/yvtmO3QJ1izbvXr1jDZpArOsWbqhyeV45XXt2rnVpB3aWOPjoT93Lscsr/H3Id+reD/jjB8h5l7/Job/L40S4/JalpjTOpZjltfW7HHNZ0TjlqtnCsFdjZ3w00BLUGTXzz//vPjSl75UJShnnXWWfGVx9b94Q05GGBvwBAwAA8BAqzFgkRJNm3KTE7KX01KToLjxudVAQv/YzIABYAAYAAY4MeAmW2qtrp4lBHfVdtR6IQhK4J9+sQlxbkKwBTwBA8CADgMekzk3OSF7OS0gKCAopfj9BGyquk0VMuACGODBgMcMv+b3QnBXj+6bdAWCAoICggIMAAPAADBghQGTtGupu2a2ENzV0iVXzUFQrECJ0wfP6QPziHkEBoCBImPAVYrW2OUmJ2QvpwUEBQQFJydgABgABoABKwx4zPBrHxKCu3p036QrEBQrUBaZ8cN3nFiBAWAAGODBgEnatdRd+7AQ3NXSJVfNQVBAUHByAgaAAWAAGLDCgKsUrbHLTU7IXk4LCIoVKHH64Dl9YB4xj8AAMFBkDHjM8OseFYK7enTfpCsQFBAUnJyAAWAAGAAGrDBgknYtdbnJCdnLaQFBsQJlkRk/fMeJFRgABoABHgx4zPDrHhOCu3p036QrEBQQFJycgAFgABgABqwwYJJ2LXXXPy4Ed7V0yVVzEBQrUOL0wXP6wDxiHoEBYKDIGHCVojV2uckJ2ctpAUEBQcHJCRgABoABYMAKAx4zfMefhOCuHt036QoExQqURWb88B0nVmAAGAAGeDBgknYtdTueEIK7WrrkqjkICggKTk7AADAADAADVhhwlaI1drnJCdnLaQFBsQIlTh88pw/MI+YRGAAGiowBjxm+c44Q3NWj+yZdgaCAoODkBAwAA8AAMGCFAZO0a6nLTU7IXk4LCIoVKIvM+OE7TqzAADAADPBgwGOG75wnBHe1cH/s2LFi3bp1xhYuv/xyMXny5JrtQFBAUHByAgaAAWAAGLDCQM08y/uy8qQQ3LUJD9va2gTVPffcM7rSfSNFthswYID43Oc+F7VduXKltmljFrVNmxWCsfMwdswj5hEYAAaAgXxgoNl82EQ7bnJC9gyLJCXxZkQ8Nt1007godd/Z2RkRkuXLl1ffffnLX45kVUHsBgTFijVjc8jH5oA4IA7AADDQSgzEsqrr28pTQnBXQ5+JjDz22GOJVqtXr84kGlJRfj2Rz/JKct2Pe0BQQFDwaRcYAAaAAWDACgMy1fq4uiBijfu9du3aTCJCRKNWofd33XVXSiWTuKQ0nQtcTC5s4vQEDAADwAAw0CoMOE+csQ74xygJQvwa6zBxO2PGDCuC8u677ybs0YPsV31Rm+6o2gV/pkkoY8kKfhnmoqwxnzNnTuYmEnrcEfPQI5weH8WcMI/S3AzQ3Kk1y9Ktt96aubfUW3v0fv369SnTJNe1LVXG1k1AaqYCFGQFP8ChpoZU1piDoKSgELyg7DGn8aO4n4Gnn35aSyao53r7Lb3/y1/+knIyK0eBoKSmKjxBVvDDG2l6RPUWTLpFGJKyJ6swomg2irLHHATFDC822ln7apZc9kXvDzzwQPlYvZJ88ODB1Wd5A4IiZyLgKwW/HnBCHX5Zx132ZBUqnmuNq+wxB0GphQ7ed7SvfuYzn0kY7dmzZ908M3LkyJQO/Q2UrH0aBCUxxWE+UPCzABDmiD8dVVnHXfZk9SkCynNX9piDoPjD+jvvvBPllNtuuy3q9JlnnomeH3744YQTuv2XZJtssklVj5433njj6nP8plQEJT5w3GMGMAOYAcwAZgAz0NwMzJs3LyIlRDCoTpo0KWWI5Loi29B166231qlEMn3rTHW8wAxgBjADmAHMAGYAM+B+BkBQ3M8xesAMYAYwA5gBzABmwHAGQFAMJwzqmAHMAGYAM4AZwAy4nwEQFPdzjB4wA5gBzABmADOAGTCcARAUwwmDOmYAM4AZwAxgBjAD7megFATl4osvTvy28VFHHeV+ZnPQw5QpUxLjzoFLXlzYfffdE+Om3xS/7777vPTd6k7ivx0v71vtUyv6L9PY5VjVayvmvRV93nDDDan13go/0Cf/DJSCoNDClf/ueurUqRGYOzo6+GczZxbLumHRuI8++uhqNOQ8VAUB37S3t4uXXnopGuFf//rX6sYd8JBTQ7v99ttF9+7do7GnXgYoIHzPnTs3VQMcampIS5cujeJMh1AqnZ2d2r9UmmoIQSFmIHiCQot3s802SwRj+PDhpdm8aOCvv/56qcabCPaGhzKRFHX8NPatttpKFQf5/PHHH1exTuMuQynLOHWxLPPYdfMRmiz4FZwF4Cx5aAGm8YCgiFKdqFUME9Z/+MMfquIgn2ms9FctqZRljZdlnCpgadxlHbs6F6E+l5qg3HTTTaHGNTEuEJSuZDVs2LDEvJTh4Utf+lJpNvHLLrssMdayJC+ZqOPXMmBbjnfChAlR3OXza6+9Vobhl2KMpSYoxx9/fCmCXHaCIjeuUgRbCLHbbrslNmz6uXwZCsU5XtTn+LuQ7ilBx0sj/9O2uH5R7+W6jse5f//+EfbXrFlT1GHB79gMJFd07EUot3HwxsdE8nPPPTcuCva+zARFbmLBBrfOwNavXx9t2KH/iIfi3Mj/qKzOdAXzmuaDflE45JK1trPkIc9FqGMrNUGh33wvQykrQZH/3LgMMa41xtA37EcffTQiYeq/ZKFxS1mt+QnxXegxp5hljfHggw+O3oUY17KNqRQEhf5pcbwsX768VAAuI0HJ2rziOCjLfehz8cgjj1STlRyrei1LrOU45fjlc4jXPn36aPfxz372s1p5iHMQ+piCJygbb7xxCqxlWLxx4JaNoPzgBz+IYr5kyZL4NJT2nvD+hS98oXTjp3GXsaxatSrC/7vvvhv88CnGK1asSIyTZN/97ncTMjwUcwZKsYIJsGotZrjMvFbHHH82s1Qs7fg41ftijcTMW/WXY+XYt9hiCzNDgWjT+MtQZJzj1xtvvLEMQxcffPBBam8vS9wxk7uHAAAASUlEQVTLEOByrOANkZw/f34ZYooxYgYwA5gBzABmoPAzUCqCUvhoYQCYAcwAZgAzgBkoyQyAoJQk0BgmZgAzgBnADGAGijQD/w8jLqkoDMlD3gAAAABJRU5ErkJggg==;" vertex="1" parent="1">
          <mxGeometry x="290" y="160" width="253.21" height="200" as="geometry" />
        </mxCell>
        <mxCell id="L8nepF0H7HIKw9ve7Z6O-4" value="Epoch 20" style="text;html=1;align=center;verticalAlign=middle;resizable=0;points=[];autosize=1;strokeColor=none;fillColor=none;fontSize=15;fontStyle=1" vertex="1" parent="1">
          <mxGeometry x="370" y="360" width="90" height="30" as="geometry" />
        </mxCell>
        <mxCell id="L8nepF0H7HIKw9ve7Z6O-5" value="" style="shape=image;verticalLabelPosition=bottom;labelBackgroundColor=default;verticalAlign=top;aspect=fixed;imageAspect=0;image=data:image/png,iVBORw0KGgoAAAANSUhEUgAAAiUAAAGzCAYAAADwumcoAAAgAElEQVR4Ae19C7gVxZXuAaJx5iajV+9MMpnRRI0HCKj4Qg1IRAxqfEQSnWQSkRiNOjExyZCo10dGJOQ6xFeMGo3oGUV8EiUiUeL1AYmA6KioxAcQHxxFFAR5Hzhn172rsXa6q6t3v1bV7l311/eV3b2qatVaVX/V+qvO4dgmkDACGAGMAEYAI4ARwAhUYATaKmADTMAIYAQwAhgBjABGACMgQEoAAowARgAjgBHACGAEKjECTSAlTwshkDEGwIDLGFjwd7sKX/PFbe3Cx3xbW7vwNduM5iawZdP+tL5ASkCQQBKBAXYM+EpIyG8TQaMVdPpKSMhvm8kEFmzan9YXSAkCEntAcvkGAL5lu+ECKfHvtgSkJC3c8pRf0tYuuDOPZTxaQEpASkBKgAF2DICUgJT4RFJ4wnE2LdyEhPRVKYGUICCxByTcJmS7TXB5nEBKQEpASsyE+p+1tQvubMbSYlpBSkBKQEqAAXYMgJSAlICUFAvKaa1+3tYuuHNanzbLQUoQkNgDkss3APAt2y0QSAlICUiJmVDOTUhIX5USSAlICUgJMMCOAZASkBKQEjOh/tK2dsGdzVhaTCtICQISe0DCbUK22wSXxwmkBKQEpKRYUE5rNbGtXXDntD5tloOUgJSAlAAD7BgAKQEpASkxE8q5CQnpq1ICKUFAYg9ILt8AwLdst0AgJSAlICVmQv0v2toFdzZjaTGtICUgJSAlwAA7BkBKQEpASooF5bRW3ISE9FUpgZQgILEHJNwmZLtNcHmcQEpASkBKzIT6y9vaBXc2Y2kxrSAlICUgJcAAOwZASkBKQEqKBeW0Vle2tQvunNanzXKQEgQk9oDk8g0AfMt2CwRSAlICUmImlHMTEtJXpQRSAlICUgIMsGMApASkBKTETKj/ZVu74M5mLC2mFaQEAYk9IOE2IdttgsvjBFICUgJSUiwop7X6VVu74M5pfSaVf+pTnxJtbW3i4x//eFKViJzqJuWOjo6gLkgJSAlICTDAjgGQEpASkJJIPGb74CYkpK9IInKxww47BE3b29sDstHd3d1Q1dy5c4Wax40bF7SVDUFKEJDYA5LLNwDwLdstEEgJSAlIiQyzvM9r29oFd85robztCLfTycLlSe9qO5ASkBKQEmCAHQMgJSAlICVJYbicnJuQkL68iYjE5s2bY81InjepbfJryNtjrH62kxZOpBgnYKB1MQBSAlICUhILfiyCX7e1C+6cx7DFixdHftwSbqsSjHCZ7v3cc8+N6QIpwSmZ/ZQMMtG6ZIJr7kBKQEpASnRhuLzshrZ2wZ2JTKg5ydK77rorRiRk3bykhOp/5CMfkc2Dp1ek5NprLxALFtzpXRCeMeMaMWnSxd75TQG2o2O8l3O+aNG0YM43b57XlHnnJCXLLrlMvHrolwWnTqnrhX/aUyy75Bfi5X0PY9N/cRsPIbn7xB+ImWMvFVz6TOvhJCFP/WCCePCAr4oiOueMOVfMO/2ihm3nf/diMesr32tYJ0/fkahq+IObkJC+PGnq1KkspIR+4VVHYrwgJfSbwWrmOhFWXY/q95tv/r4pQcr2OJ1++tcw5x/ifuTIYdbnXAb9Mk/dRpmm788Dh+qaBTK1ra6iWqfIN0fwV2276jOHpZITtU34O8mmVa93BtWe7fhtqv4kHVKeJ4gn1e2c/mjY7OA9qa4qX/H0C7G29316eIR4xCoIIZ49/4pIHVVvlm+dXlOyG9vaBXfOY2tnZ6eWTJAOHclI0k11dfWdJyVjxowKglM4KFKgHjx4X+sbddgGG+/k56BBe9b93LDhiWAs1q37U11mw45m9EG+L178u7qfRx99WAwHzbDLdJ+ShIb7aQbeiwTzcJs1jxFGReT2gr63rHw/Igu3oXdJSlS5+k26aj09EV0k63rzrYhMbZflWwbpos/AjrXr6iThZ3+zF4nEhP8xqC7LqpvavTTt/2rbzbrk2kAv/acqpIRsub/vkXWSsOqFVwIb04iBdKRRvYUTJ8V0TendLyZrpCOpTPZv43lTW7vgznntJjKxevXqWDMdyYhV+lBAdQcMGBArdp6U0IY8f/7kenCizXrTpjnOB6innrpN66MuaIUDmAvvST6S3AX/Gvmgw/teew3UYqGRnrJlWYJ3ozq0Uy0+8l8iBOH5v+8bbGCN2uUhJaqe5z/5uVT9ahvdd1bCoKt305B/DWxQywLh/z+JqvJG389MukerS7ahQnqnVAVSEhgiRJ2QSAJAcvme9MxaR1dPJ0vqJ0lOOmwlbkJC+vKmbbfdNnbLQSRDJSXqt+znyiuvjNWVZV6QEt0GS5t3Z+eDzgap4cM/rw1ESQFbN0atKiMfL7ro32Jz6/qc03yRj+q8PfDA1Vq5Wo/zWxes88hog9LVJ/mfBwzRllH9MCl5eb8RifUa6u//+cR2OptUmQz6RZ6rXlsa7M1q20CYk5Q0arPh/dVi4T0PVo6UvPrrO2IEhPy4b5dDY3JJEP58+c2Bq/L79/uO0tZ95icTI/VkfRLK96LPQLGl/3S0tQvuXMR0SULoD6Zts802WpKRREpI3qtXL223iaSkd+/eQSNqGM4kL5fs/ssE3SYtN++JE8fGNnDOjbmZushvne/04xydvJm2cvdN/r3wwt2xuSW5y3P++OM3Js6t7TlXA3Xeb9pjdG1IvvzK67VlVF+SEnWPemfiryJtAv077B6RLf3hBUGz5Vcl69fZpMpUQpHnW9qttulauy4oUuWNvqlB0i/KUplsS+9VuSnREQqy78VLf5NIHKg8KakkY/1by2NV79p+v0Tdavuk75hSgwJuQkL6iqYxY8YEZOTYY4/NpYJ+yTUpxUjJBx98ICQhOf/880VPT0+97U033RSUUTkZUyxVh5RcdNGZscDFHSCbpY+CkC4QDR16oFbeLDtN9Et+v/76A7G5JbnLc37//b9MnFsdFkyMvdSpBuq837S36NqQfMXNU7Rluvok27jw5WCrCpf3rN8QyF7aa9hWXdvvFnzTf977za259If10rsM9kWe0gi17Qed7wRFqjzpe/mLrybWp4JwO/quCimZtvvhMYJA9r16ffwGRRKEwFEhxOt3/T7SVsplPXrK9Pjx3xUL//PG4JN+tyhcp8i71GvjeUtbu+DONuzO2keMlNCtyFFHHdWw/SuvvJJ49RJuKK93wk+5adl6Jm3GJO/ouCQWuGzZZbof8k/ne5LctD029ZOPs2ffFJtbkrs853Q7pJvzZvwOlRqo837TPqJrQ/K3zhuvLdPVlzJqp/6z3/BeRe/0YyFKb5z2w9z6ZT/0DAf8vO/SJrVdklytJ7+p/uuz5sds2bKpK1Al69GTUlVIySMjvx0jCGTf0z+cEJNL8hA4oPkRjCrftHJVIJLt5JOE8r3oU/Zl43lrW7vgzjbsztpHjJRk/fEM1XvxxRez9hOqV52bEpuB0nZfY8eeog1QvpCSY44ZoSUltufBdn86UjJu3FlaLJi0LRyki7zThqFrlyTX1Q3LqN1fTjxVq1OtF/4u8h4O+HnfF0ymfzEWvcmQxEEnT9KfVDdQ3uA/SfqyyIsGdNmOzHp/wcsxgkByWUf3/O8f/2fgkVq26vmtN2RSTpUW/mJSTBfJ6Z8iy3pFnoEBlv7DTUhIX5VSKVJCP+rJn+yTkrPPHh0JUJMnT7C+SZsMAEm6dQGKZH370r9isDsPNvs7/PBDtPOrGw+bdtnoi3xU8U4y274XCebhNrSvrLr3gQiJ6Bz702C7CdfL8k7/iodSWl3dj3nS2ujKswTwRnXIVrWcZPRjBlWu+6ZfYNXp0NUlGaUq3JSsWfR6YItKCkioytRvXZ1AWagtfa98ZmFMF8l1ZEXto9G37MvGs5EdRcts2J21jxgp+du//dvUH83QLUnWG5W4IXaD4cqVjwYb8vTpV9cDMW3Qc+feUv+2ESya0Qf9LZZwMBo27KDIdzNsstUn+T1wIP0b+K14o+/wWEi5a091zhcunBr4bRvvumCdR/biZ+jvCAnxxiln18kEfS8++l/r36SPUlgvfW/6y+vBj2L+/LkhYtOivwR11Hrv3/7bSLv37956QxHWVfQ9Kfhnla9f8X5gs6y/+s23I98kT/pXOlRGafbPrstEYGT9KpASCqiUujduqhOHQBAiFrLO2teW1utIGdWVQZn+oisl+hc3Uvb0v/+fQPbC+OvqsrcenB3IZJ2iz0CJpf/c3tYuuLMl0zN1EyMl1Ir+Fj2RjvC/upHvUp5Ju7aSXVJCQee55+4MNmYZmKZNu6oerFwLSqo/o0YdEfFdLXf5W843PYcMGezNnKt4b8YcFw3o4XavDj8+soPofteDKoTbLNhhd7HyVvqXV1vT2j89GS3/u12D7zfPOldWCZ61LVu09SK6P2ybJpNkoszzraeif51U1ZVESv7yyNZ/1aDWb/RNA1AVUkKkIJzoX8uoRIHKVVJCdejPy4eT2i6o863zwlWCd129vLKYUoMCbkJC+qqUtKSEDKR/e3zcccdFiAn99bWXXnqppP32SUkzNmX0iXn2GQNpgdvl8kYEwOWyvIHcpfolg2Ku5ne2tQvunMsAw5UTSYm5fhGsfA5W8N0P/LtMOtJ8c5l4NPLNJZKR1xdz8TKu+e62dsGd4700TwJS4vAvfIIA+EEAqjjPaYHb5fJGgdvlsryB3KX6NkM4NyEhfVVKICUgJd78rkUVg7erNrlMOtJ8c5l4NPLNJZKR1xebQX1qW7vgzjbtT+sLpASkBKQEGGDHQFrgdrm8UeB2uSxvIHepflqg5SznJiSkr0oJpAQBiT0guXr6h1/ZfxzmMulI881l4tHIN5dIRl5fbAb1e9vaBXe2aX9aXyAlICUgJcAAOwbSArfL5Y0Ct8tleQO5S/XTAi1n+bS2dsGdOe0rqwukBAGJPSDhRiH7jYKrY+Uy6UjzzWXi0cg3l0hGXl/KBuI87bkJCemrUgIpASkBKQEG2DGQFrhdLm8UuF0uyxvIXapvM6jf39YuuLNN+9P6AilBQGIPSK6e/uFX9hsgl0lHmm8uE49GvrlEMvL6khZoOcsfaGsX3JnTvrK6QEpASkBKgAF2DKQFbpfLGwVul8vyBnKX6pcNxHnacxMS0lelBFKCgMQekHCjkP1GwdWxcpl0pPnmMvFo5JtLJCOvLzaD+u/b2gV3tml/Wl8gJSAlICXAADsG0gK3y+WNArfLZXkDuUv10wItZzk3ISF9VUogJQhI7AHJ1dM//Mp+A+Qy6UjzzWXi0cg3l0hGXl9sBvUH29oFd7Zpf1pfICUgJSAlwAA7BtICt8vljQK3y2V5A7lL9dMCLWf5zLZ2wZ057SurC6QEAYk9IOFGIfuNgqtj5TLpSPPNZeLRyDeXSEZeX8oG4jztuQkJ6atSAikBKQEpAQbYMZAWuF0ubxS4XS7LG8hdqm8zqD/c1i64s0370/oCKUFAYg9Irp7+4Vf2GyCXSUeaby4Tj0a+uUQy8vqSFmg5yx9paxfcmdO+srpASkBKQEqAAXYMpAVul8sbBW6Xy/IGcpfqlw3EedpzExLSV6UEUoKAxB6QcKOQ/UbB1bFymXSk+eYy8Wjkm0skI68vNoP6o73aBXe2aX9aXyAlICUgJcAAOwbSArfL5Y0Ct8tleQO5S/XTAi1nOTchIX1VSiAlCEjsAcnV0z/8yn4D5DLpSPPNZeLRyDeXSEZeX2wG9cd77yG4s0370/oCKQEpASkBBtgxkBa4XS5vFLhdLssbyF2qnxZoOctn9dlDcGdO+8rqAilBQGIPSLhRyH6j4OpYuUw60nxzmXg08s0lkpHXl7KBOE97bkJC+qqUQEpASkBKgAF2DKQFbpfLGwVul8vyBnKX6tsM6rP77CG4s0370/oCKUFAYg9I6unfxF8gbBWdy3bfRfiYVQzgG7dnbmMgLdTylf/xI58V3JnPuvKaQEpASkBKDPy/JCRp8pGQkM9uByAQDMyvioHywTirBm5CQvqqlEBKQEqMBxAZoH18gpSomze+EdBdxIC9sP6nbT4ruLM969N7AikBKQEpwU0J+4+YEHhdDLzwKRnX6cGWqwY3ISF9VUogJSAlICUgJSAl2AeM7wPJAd0FsmMvrD+x7WcFd7ZnfXpPICXYjIxvRj7+2Eb6jB/fuBBw4IPbhIJjftODLVeNuR/dXXBnLts49ICUgJSAlOCmBDcl2AeM7wNuExuOcJxNBzchIX1VSiAl2IyMb0by1sDHJ25KOE6h0OF2QHdhfu2F9Xkf3V1wZ3vWp/cEUgJSAlKCmxLclGAfML4PuE2s0oMtV40nt9tdcGcu2zj0gJRgMzK+Gfl4QyJ9xk2JC6dg+OA2oeCYX45wnE0HNyEhfVVKICUgJSAluCnBTQn2AeP7gNvExl5Yn/83uwvubM/69J5ASrAZGd+M5K2Bj0/clHCcQqHD7YDuwvymB1uuGtyEhPRVKYGUgJSAlOCmBDcl2AeM7wNuEyt7Yf2pv91NcOei1n/qU58SbW1t4uMf/3huFR/5yEeCttR+/Pjx9fYgJdiMjG9GPt6QSJ9xU+LCKRg+uE0oOOa3HlONv/z3/9hNcOciRhOZoDxixIg6uciiZ968efX6AwcOFB/96EeDb9kWpASkBKQENyW4KcE+YHwfcJvYyJBq/slNSEhf3iQJSbidThYul+9U75FHHpGfsSdICTYj45uRvDXw8YmbEo5TKHS4HdBdmN9YbDUmeOZjuwnunNdYIhabN2+ONSN5o7TddttFbkV0dRtr0LUoLXMBgPAhzybpIxmRPoOUYK3kWSuo26p4KR0YMyt49mO7Cu6cuXMhRFdXVyKxSCMlVP71r3896K5Pnz6BnokTJ0a6BynBTQluSvDjG/z4BvuA8X3AbcIViatGP7gJCekjsqDmJCfuuuuuUqTkn/7pn4L2CxYsEG+88Ua9X9kfSAk2I+Obkbw18PGJm5JWPfnCbrdJBPf8ypBq/vncx3cV3HnOnDlCzUmeTJkypRQp0d2mkGz48OFBlyAlICUgJbgpwU0J9gHj+4DbJCcphPPLF/zdroI757Gys7PTCCmRZAWkBJuR8c3IxxsS6TNuSrhPpNDndnBv1fnNE9bL1eUmJKQvbyICsXr16lgzSSxiBR8KqFxXJywHKQEpASnBTQluSrAPGN8H3CZTSWGYX/7C9p8R3DmvlUQittlmm0izfv36aQlHuNLs2bO1dUjfjjvuGFT1gpS0t7cLNbu9QP562lD9fvPN31vffOStQZnnu9MfDWM7eM+qL9ZQCBFuu/KxeboqguThekXeS9+UfG6PmG3vfmFIKomINfpQ0Mge2aZr3pxU/Y30UFkz1tfpp38N6/zDvW7kyGFNmQPb875x45zYnDdjj5Nrx8aTm5CQviJJ3m50d3cHBIW+1ZQkI/mNN94o7rnnnoCkhOvFtaha2b//GjBtAHjMmFEBaMN9UaAePHhf5xct+Tlo0J51PzdseCIYi3Xr/lSXhcfF1HuRYB5us+LhJwIUhmUSlmGZ7p3qbVmzriG5kKRE176sLC14p5WT/e9+cXidJGx+5eXA9Szt0uqEy1ef9xNR6+4OdLcqKSG8hzEsCXlY5uK7us7JR5LZXufNGFvyc/Hi39Xn/eijD4vt93bsCpaOlf+8uMNnBHcuaviYMWMCUnHsscfmUtHT0yM++clPBnnJkiWRts6TEgLt+PHfr4OWAPrQQ9c1Cbj2CNmWLU9qfaTxoGxnoW71t2xgl4gN63n2K98LxGGZ7p0q6eRhWWVJSfvWn/WGyQO9U3rvuC/ViYpaLuvo5Eky0inbtSIpOeCAfWK49mGd0zrWredmrHObewr1pZtzOR4vvniP1T0uWJSW/rNwh88I7mzJ9EzdeEFKdIuFFm1n54OWgWuPlAwf/vnKbFZhAlDknZD85q/viJELks/a5dCYXPbx2uU3B4tAfv9xj5HaupKU/KFPf/H4Pw/T1pE68j6TSEAWeffSNwP71bqB8EMSoZbJb6pD7+8O+7xY1ne3VALT9dyzLU1KaD1fdNG/xdaz6+tcBmF1j3vggau161+t18rfScQrSW7WV7kqzT+5CQnpq1LympT85jf/EdvEzALXHilJWphJcpN+5w3kan1aME8NPzlGFkj+yk8mxuSyfdJC29j5TqSNJCVqfamnzFOShCJPaY/aNkkerifrhJ/vn3FqnJz03fr/vZBtqX4r3pQQrufMuSW2nknu8jp/9tk7tOSju3u+Vm5yndvWnbSXJcnN2hdeaWbf//w/Py24s1mL82kvTEp69eolevfuna+3oLa9wEwgJIDqwEjy8877jrZMV7/VZEkL89BD9TcoJv0rE9SpLaVZnx4eIRJS3nnT1Jhc9ifBufD0i+p1Hv/U0K0o/OIpdZmsH37KtmFZkXcZ7Is8pQ1q2+7OpUGRKm/0/c6+9LtFW29PwvVUGX23KilZujR+8+n6Or/vvisa7nEm13WzdVdpjwsWl6X/vLTjpwV3tmR6pm6MkhL6jVo12wYyAVfXJ8k7Oi7Rlunqt5osacEmyU36VySYh9sQkp8e+e0YiSD5Sz+cEJPLtnIFyG/5TJLLcno+9vcHBdXCsiLvYQKQ913aqbZLkqv11G+1HX1vWbwocntCslYlJbNn3xRbz66v8xdeuFtLSjZt2vqvUkyu62brTtrLkuRm7ZWry/yTm5CQviolo6RE/bO19G0WGPFbGAKork+Sr1xJ/8w03sYF2Ze+NFy7WTVjwRYJ5uE2tGDeunVajHyQ/NGdDozJZdtld84I1pr8ls/3/0hznv4LsFnqSJ1JT5UY5Pne/OorgZ1qm0CoufVQ66nfajv5nfRU2+f5tr2GCNc//vG3Y+vZ9XVO40w+quN9992/0MrVeq38nbSXJcnN+pq0ivjlr+z0acGd+a0srlFLSujHMmm5lX58c/bZoyOLdvLkCc4vWFqAus2KZH379o2Mh9nF+nQiaUgK5Kpcwjss//NZ4wJxWKZ7p0qqXKdPrbPu5b9k0q+2U7/zBHJdXTJClZNs+ZDBMblaT/2mdpv+OKthO6rTijclhx9+SAzvWOd217npfUTVr5tzue8tWzbT6h5H68ZW4iYkpK9KSUtKiHCkpVYhJXQbQoF4+vSr6yCl77lz478Up4K+1b/pb7GEicmwYQdFvm35pwbqvN90G0Jpwdd/VCcYEp9hXSQLf9O7TFLevW59IJLfss47v50Z/Mhmzj7H1/9eBxGTcL0i7yoxyPtNxtY2bawTCelPWE+SbMWJXxHL2ncVa6++Slap6wm3D79TxVYkJTIYqes8jH9beLfdj7rOFy6c2pR1bttvOecDBw6I7O3NmfP6EjP+8ur/2kVwZ+NG5+hAS0qy/AJrq5ASAm7//v2CRUpglbkZC6gZfUp/5bOra259Aduyp0gwV9u89IMJMVirdaiCKqNvNb02cVKknlpO33MP+Gqkjk5vFlk44Bd9V+1b1v+zEXIhy8P6pSz8DJcnvVP9ViUlHR3j6+tb4t0Wxpvdj/RXPnU/ymq2jab6lz7LZzP2uPA6M/2+6H/tIrizaZvz6C9FSrLcqMSNcfN3OEwtOBf0ZgnertZJCv6uy13ALXzAXp0dA/FIZ0rCTUhIX5WSlpSYNRBAzw50N8bKVcKRxS/XyUeSf75hHP66sVcVn0ezUTOsffHf7yK4c1h/s99BShz91zfFFxf/5pIleLtaJylouy6vEv5gC/+axpiqY2ovlC/5h50Fd7ZnfXpPICUgJcZ/x8RVwpHFL9fJR5J/CFpq0MK325hID7ZcNbgJCemrUgIpASkBKWlrZ/mlVh1JSQrarsvdDkAgGJhfFQP2wvprn9hZcGd71qf3BFICUgJSAlIS+dc8HIQJQUsNWvh2GxPpwZarBjchIX1VSiAlICUgJSAlICXYB4zvAyAlPKH/9U/uLLgzj2U8WkBKsBkZ34x0P9bwRcZx69CKOtwOQLj1wPyqGOAJyFm0vPGPOwvunKVfW3VASkBKQEpwU4KbEuwDxvcBt4mMrZAt2AkJEZwqJZASbEbGNyNfbkV0frbiLQeHzW4HIPWUjG/Mt72w/uY//rPgzvasT+8JpASkBKQENyW4KcE+YHwfcJu4pAdbrhpLP/XPgjtz2cahB6QEm5HxzUh3g+CLjOPWoRV1uB2AcDOC+VUxwBGOs+ngJiSkr0oJpASkBKQENyW4KcE+YHwfcJvI2Avrnf+8s+DO9qxP7wmkBJuR8c3Il1sRnZ+teMvBYbPbAUg9JeMb850ebLlqcBMS0lelBFICUgJSgpsS3JRgHzC+D7hNXOyF9bd22VlwZ3vWp/cEUoLNyPhmpLtB8EXGcevQijrcDkC4GcH8qhhID7ZcNd7+9M6CO3PZxqEHpASkBKQENyW4KcE+YHwfcJvIcITjbDq4CQnpq1ICKcFmZHwz8uVWROdnK95ycNjsdgBST8n4xnzbC+tv77qL4M72rE/vCaQEpASkBDcluCnBPmB8H3CbuKQHW64aHIcGVQeXbRx6QEqwGRnfjHQ3CL7I1MXvy7fbAQg3I5hfFQMc4TibDhN7SLae7dQCKQEpASnBTQluSrAPGN8H3CYydgI29fLOZz/Nnu1Zn94TSAk2I+ObkS+3Ijo/TZxqWkGn2wFIPSXjG/OdHmy5aixv/7Tgzly2cegBKQEpASnBTQluSrAPGN8H3CYuHOE4mw5uQkL6qpRASrAZGd+MdDcIvsha4VbDhI1uByDcjGB+VQzYC+vL+35GcGd71qf3BFICUgJSgpsS3JRgHzC+D7hNZNKDLVcNbkJC+qqUQEqwGWEzAgaAAWAAGCiFAXth/d3+nxHc2Z716T2BlJQConqFh2+3T0OYX8wvMAAM6DCQHmy5arw3YFfBnbls49ADUgJSghMSMAAMAAPAQCkMcITjbDq4CQnpq1ICKSkFRB1jhgwnKWAAGAAG/MKAvbC+YuCugjvbsz69J5ASkBKckIABYHjxwWwAACAASURBVAAYAAZKYSA92HLVWLnXroI7c9nGoQekpBQQcRry6zSE+cZ8AwPAgA4DHOE4mw5uQkL6qpRASkBKcEICBoABYAAYKIUBe2F95aDdBHe2Z316TyAlpYCoY8yQ4SQFDAADwIBfGEgPtlw1uAkJ6atSAikBKcEJCRgABoABYKAUBuyF9ff32U1wZ3vWp/cEUlIKiDgN+XUawnxjvoEBYECHgfRgy1Vj1X67C+5cxrbx48eLzZs3l1ERaQtSAlKCExIwAAwAA8BAKQxE4qrRD25CQvqKpLa2NkF5xIgRwZPe09Jrr71Wryvb07Ojo6PeNF1LvSrXi45lQobTBzAADAADwECrYoArPqbrWX3A7oI7p/carSEJRViqk4XL6V2SElUe/gYpKcWOW3UBwW5s/sAAMAAM8GEgHFbNvn8w+LOCO+e1mAjIrFmzIs02btwY3IJEhMoHSAkIB65kgQFgABgABoxjQIm+Bj+5CQnpy5O6uroSyQeRlUZJkpL29vZABz3V1FiDWpvlG+ycj51jLDGWwAAwAAw0HwMswTGTkg8O+qzgzvJHL+FnkjEzZswoTUrC/ahEBqTEOIPGhtH8DQNzgDkABoABkxhICuH8cm5CQvrmzJkTy0mWT5kypTAp0ekcMGBARB9ICUgJrnaBAWAAGAAGSmFAF27NyNYc/FnBnfNY2tnZGSER4bbqrUe4rNE7tZO/owJSUgqIJpk3dONkBwwAA8BAa2CgUcjlLVs7ZA/BnfNamEQ+kuRp+qnd9OnTg2ogJSAlOCEBA8AAMAAMlMJAWtjlK+cmJKQvbyISsc0220Sa9evXL/EGJVJR+cCPb0oBD6eW1ji1YJ4wT8AAMGATA0qkNfi57pA9BHcuYi4RE8rd3d0BQaF3Naky2UZ91mq1etO4lnqRqRebQEFf2JiAAWAAGAAGTGPAVLyM6103rF1w53gv6ZJ58+YFpEQSjMmTJ8caqaSECMx+++1Xb3fIIYfE28QkxgWmwQH92ICAAWAAGAAGbGLAeOCsd8BNSEhflZI3NyVDhx4o6A+1bP1jLTbB2ty+3n57Zt3vsWNP8ernxpde+qO67wsW3OmV7xLr++yzt1d+Y523C9/mvBrr3F5YX39ou+DO9qxP78kLUkIb9P77Dwo254ceui4IVN3d853frK+44ieBr2vWzA58lYHKhxNU2Fc55yed9GVv5ryjY3zg68iRX/AG77p17vOc+7bON2+eVz+E2Pc9Pdhy1eAmJKSvSsl5UkIb1eDB+0aC0be/fUIAXvvAtXtrQr5v2PBExHeSHXnkoRGZa+Nw4YVnaOeXfHfNV9UfHd5J5rrvujnHOsc6V9eHuW97YX3DYX0Fd7ZnfXpPXpASYtAqGF3fpK+55nxtIPIhQJGPe++9p3dzThgn31W8jxkzSosFdU208rfvc67OnS9zTvOu+k6yk08eFZOr9Xi/04MtV42NI/oK7sxlG4ceL0iJDnwE3KlTL7MMXHs3JeRf0oLVyXVj1Koy8m/69Ktjc0tyl+f8jTdmaOf8nXce1spbdX51dmPOo3uLL3Ou28tIppPrcMMn4wjH2XRwExLSV6WkJSV9+vQRvXr1CnLv3r219lJ5sRRdPHyg0OtNAifJ6crXdP/N0p+0MA855KAmLFj93JgaG/KdArSq3/U5/93vrkqcW/JdHQ+XvjHn8TXmw5zrfGzOHlcsGhZptemL/QR3LmKHqTYxUkJ/6pWICGUiJ/JdNSALKZH/fjn8tL0R6kBLNpB8/PjvO7tRk3863w88cD+t3Pa8mOyP/F60aFpsbl2fc/kLvbqx1WFBV69VZZhzkBKJ3ebscWqENPe9aWQ/wZ3NWZtfc4yU6G5GSKaSEPVb17X+/zwYXzwSTCaeSZsxyZ999o5Y4DJhQzN0Dhw4QEs+yO+kMWmGnSb6JP/od2pU3a7Pea32lHZu58+frJWr49PK35jz6L7qy5zr9jKS6eRm8a2LgGZk3ISE9FUpZSIlZPABBxwQEJPly5cH9mchJXpHo4vHLFC23ojQCTLcz4oVjzQBtHb9Xrz4d1ofm7Ng7fqe5KP9jcqu34Rx8lHFe9++fbVYCK+JVn/XzbkP61zOuTp/vs65HI/bb780suer48P/rY92JqRdR/YT3NmEnUV1ZiYl1AEREUlG5DN/x3Y36gEDPhfbkHUbGD9I7fqps5/8POecUyOLk2QzZ0ZJmq5tK8t0v+R3zz2XxXDQyj4m2a7Dtk6W1L5V5bo598Fvmi/yE+t8637bvHWePxIWbbH5S/0Fdy5qi4l2MVJCZGPDhg2JfR1zzDHB75m0CimRi1ZuUPLZqptvXrulv/J5xhlfi5CUvPpapb70N/xU/6lsq/iS186wz/I9r45WrC99DT8x580/HJnE0vXXXxSQsvCcN2ePSwyZ7AXchIT0VSnFSMnw4cMD0tHISCIkrURKaFGce+5pAXjlX3Y1uVCqplsu2Pvuu8ILQiLH/4knOupz3tU11yvf5b9AOOOMr3vlt8/r3Nc5l+uc9rnmrfNGEZO3bMvR/QV35rWwnLYYKSmnLktrt5m7DIh4Yp6BAWAAGPAFA1liH08dbkJC+qqUQEqEL4sGfiJAAAPAADBgBgP2wnr3sZ8T3Nme9ek9gZSAlHh1vW9mQ8JGj3EFBvzGQHqw5arR/eXPCe7MZRuHHpASkBKQEmAAGAAGgIFSGOAIx9l0cBMS0lelBFJSCog4Hfl9OsL8Y/6BAWCAMGAvdY8aILizPevTewIpASnBCQkYAAaAAWCgFAbSgy1Xje6vDhDcmcs2Dj0gJaWAiFMSTknAADAADAADHOE4mw5uQkL6qpRASkBKcEICBoABYAAYKIUBe2G9+8SBgjvbsz69J5CSUkDECQknJGAAGAAGgIH0YMtVg5uQkL4qJZASkBKckIABYAAYAAZKYcBeWO/+2kDBne1Zn94TSEkpIOKEhBMSMAAMAAPAQHqw5arR/a97Cu7MZRuHHpASkBKckIABYAAYAAZKYYAjHGfTwU1ISF+VEkhJKSDihIQTEjAADAADwIC9sN79zb0Ed7ZnfXpPICUgJTghAQPAADAADJTCQHqw5arRPXovwZ25bOPQA1JSCog4IeGEBAwAA8AAMMARjrPp4CYkpK9KCaQEpAQnJGAAGAAGgIFSGLAX1rvH7C24sz3r03sCKSkFRJyQcEICBoABYAAYSA+2XDW4CQnpq1ICKQEpwQkJGAAGgAFgoBQG7IX17lP2FtzZnvXpPYGUlAIiTkg4IQEDwAAwAAykB1uuGt2nDhLcmcs2Dj0gJSAlOCEBA8AAMAAMlMIARzjOpoObkJC+KiWQklJAxAkJJyRgABgABoABe2G9+7RBgjvbsz69J5ASkBKckIABYAAYAAZKYSA92HLV6D59H8GduWzj0ANSUgqIOCHhhAQMAAPAADDAEY6z6eAmJKSvSgmkBKQEJyRgABgABoCBUhiwF9a7z9xXcGd71qf3BFJSCog4IeGEBAzoMLBs912Er3nloN2Ej/nytnbha04PtXw1uAkJ6atSAikBKcEJCRhgx4CvhIT89pGQkM++EhLy22bq/u6+gjvbtD+tL5ASBCT2gKQ7OUPm140KSIl/tyUgJWnhlqe8+3v7Ce7MYxmPFpASkBKQEmCAHQMgJSAlPpEUnnCcTQs3ISF9VUogJQhI7AEJtyJ+3Yro5hukBKQEpMRMqO85ez/Bnc1YWkwrSAlICUgJMMCOAZASkBKQkmJBOa1Vzw/3F9w5rU+b5SAlCEjsAUl3cobMr9sTkBKQEpASM6Gcm5CQviolkBKQEpASYIAdAyAlICUgJWZCfc+/7y+4cxFL29rahJrz6pHtw+1AShCQ2AMSbkX8uhXRzTdICUgJSEk41PK9cxMS0pc3PffccwEhWbJkSdB03bp1wfc111yTWdV2221XJzXhRiAlICUgJcAAOwZASkBKQErCoZbvvefHBwjunNc6uuE4++yzI82mTp0akIyIsMEH6aAkn7IqSAkCEntA0p2cIfPr9gSkBKQEpESGWd5nzzmDBXfOa6FKJGT7JLksl0+q19nZGXyqbUBKQEpASoABdgyAlICUgJTIEMz75CYkpI+IgZqTrJ47d27sdkPWVQmGlIefvXv3jrRX24CUICCxByTcivh1K6Kbb5ASkBKQknAo5nvvOW+w4M5z5swRak6y+JZbbomQinA9lWCEy+i9u7s71lZtA1ICUgJSAgywYwCkBKQEpEQNyTzfPecfKLhzHstmzpwZIxayvUowpFw+qfzll1+Wn8FTbQNSgoDEHpB0J2fI/Lo9ASkBKQEpicRetg9uQkL68iaVSMj2SfJwOdVJylQPpASkBKQEGGDHAEgJSAlIiQzFvM+eCw8U3DmvhUQqTjzxxEizX/3qV4k3KJGKyodKZEBKEJDYAxJuRfy6FdHNN0gJSAlIiRJ9mT57fnqQ4M55TTvzzDNjBITIxcCBAyOqVMIRKfzwQ60DUgJSAlICDLBjAKQEpASkRBeCy8u4CQnpK5L69OkT+zGMqkclHGo5fat1QEoQkNgDku7kDJlftycgJSAlICW6EFxe1nPxQYI7l7Fq/vz5ZZrH2oKUgJSAlAAD7BgAKQEpASmJxVsWATchIX1VSiAlCEjsAQm3In7diujmG6QEpASkxEyo77nkYMGdzVhaTCtICUgJSAkwwI4BkBKQEpCSYkE5rVXPzw4W3DmtT5vl3pCSoUMPFO3t7UHWnexclb399sy632PHnsIefKo8bpde+qO67wsW3OmV7xLr++yzd1P85iIl3cuW1ffDLDrfHfb5en31pVF7WbdRnaxlKweVJySrjhgiTRKbHrhPZNFZb6C8xNoe9DlR27SpXmvd+Asy6Y/pUfzkIiFPTZxUt23KAV8VaXpf7Phtvb7uJdz+v6+6pV6la806ceU2A1L1h9snvdeVWnjhJiSkr0rJC1JCG/T++w8KNueHHrouCFTd3fTLOW5fs19xxU8CX9esmR34KgOV636Tf2Ff5ZyfdNKXvZnzjo7xga8jR36hKXjPGsAb1aONsmf1akF13v/uGcG+uWyPzwTfSe0kKVnx1S8LNSe16Vm/vr4nJ9XJI08L3mnlG268NrDn/aF7BWRBGpfWjur1vLtcrB79lUgOt1t7/o8Cdev+85KtRGT/vlJ9aWKSFLDzyKUx1Ob+r3wv+HzzsXkNicOk3UaI2w88MZap8ayfTKy3pe8tGzeJjv5HBbI3H50X6H9t5h/rdfLYGq4bKLL0n56ff15wZ0umZ+rGeVISDk4yGOtkssylJ/l5ww0/jQRikt1887iIzCWfyZfnn787CMRhv5555vaYLFzuyrsO2zqZaX/zBHFdXbl7hct0snA5vUtSosobfZNeKpfPRnWzlIVJQJF3smP9VZdGSEIgu+xnEZmqm+p0v7W0YZ33h++vLae2a8b+m7ZM7SfpOxyki7zftt9XyIwIQbj9oH+JybLonn3OLzK1e+n26ZnqpfUZKLH0n55LhwjubMn0TN14QUo2byZGHL0VoY1albn0fc0152uDcDMClO1xJR/33nvP2Py6Puc0zuSjivcxY0ZpsWByXrIE70Z1aPda1ne32K1IIN99l5hc6spLSkjf8iGDK0NK1l97RbBxq4E/EArRkDRQnTRSouqV39R2yysvNdQv6yY90wJ3WjnZsHnd+ggpoTaU0tqq5dSm849PZ2pXRL+uv8BQC//hJiSkr0rJC1Ki23xp8547l36+GCUrrnz369dXG4jIb9eDM/k3adLFsbl1fc67uuZp53bBgru0cpNYlySh6JM2SV1bkq/85te0ZVRfkpItSxYH+yw9dXpItu6mG4M6sjypT1me9ZkUtLPIa93dgU1q3UCYgZT0fLBaVhVrL/pxZpJBjdZ879uZ66v20bcaqPN+kw2Pj700pofkdx86OiZvpJ/aNCqXZfL3V+R30Sf1Zyv1TBwiuLMt27P0oyUlO+20k+jVq5fo3bt3XQe9k0yV1ytkfrFLApICMMnHjTsrFrhMbtQ2dZN/Ot8PPnh/rdymbab7Ir+XLLk/Nreuz/mMGdckzq0OCybnIWsAT6pH24mujOTrbv0vbRnVJ1JCvyPy7vChYvkhB4stf1lS35lUfWof6rdaP+u3LmBnlUlj1fo9K94LilR5+JsqrL/yUvH+sH3Emu9+S6pKJRqyYlhXkfeiAV22Iztubj8iRiZI/uyvJsfksp36XHTvHwKXVLn6fctexwb16MdGalne70CRpf9wExLSV6UUIyV77713QEbOOuss0bdv3zoRITIiExGUbbfdVn4mPufMmSPUbHIj1OlO2oxJPn7892OBS6ejFWXkn873Aw/cTytvRR+TbCa/Fy2aFptb1+dc/kKvblx0WNDV45JlDeBJ9WhT0ZWRfN1/3awt09Un2YqvnxDsUeFyErz7xeERPUl9httleS8S0GWbwFDNjUjP+yuCIlkv6zNJn2yfVi7rZXnmDeRqfbJF/hJquIzkz/zylszEgeo/+fPrG9a/atsBgevLn1nYsF7YjkbvgTJL/+m5bKjgzpZMz9RNjJQQ4Vi7dm29sbwdqQs+fAmTFLVMftPftFcz16aXVU/SZkzy6dOvjgWurHqrXo/80/meJK+6P3nsIx/vvZd+Nh+9lSO5y3P+zjt/0M750qUPauXq+HB+ZwnejerQHqIrJ/mqH3xPW6arL2XUjshJ+Fu+y2dSn7I86zNLAE+qQzZQUss/FMfkaj31+4PTvqHVR/VkUtsU/W4UtLOUkT0PnnxOjCSQ/IGv/ygm1+mk9pR0ZWEZ1Vm16PXUeuE2jd6DTi39p+eKoYI7WzI9UzdaUhJu+eCDD0Z+jCPLwj/akbJsz2ig4NwIdbooEMl/EhsuJ3n427X3W2+doA1E5LfrvpN//fv3i82v634ThslHFe+jRo20PudZA3hSPdpL3tl7QJ1EyHokl+95ntTuvS+NrLdN26vy6FbrFg3q1G7dpfS7UHykZP3lP2fV18i3RkE7SxkZ2rNlS4wokDxLe6ojU6P6VGftW8sz62ykS5bJfm08uQkJ6atSSiUl8+bNa2lSMmDA52IbMm3cvgSoc845NRKcye+ZM6+LyFwjZO+883Bsfu+557KYzDW/JSlRsd0MvKuBOu93rWvrH/cKt5MbpyoLf78zsG+deEi5rp0sCz+pXvi76HujwJ2ljOzYdP9vI7ciJFvz72fWZfSvbCg10ke/W0JJ/Rc5gTClbSO9SWUyQBd9Xv+PW4NjuP1Dp/zvwNywjASrX1uqJRVUdu9Rp2nLSAel9e+uTCwP95PnPVBs6T89Vx4iuLMl0zN1k0pKkrRk+fGNvq3dm5LwRk1/MO3CC8/wIjiR3w8//OvA14cfvl588MGs4F0NWC4G5vCcv/feI/U5//nPf+A0GQvP+WmnnRjM+YAB/ZuC96IBPdxO7h/0B9PW3zEl+AyX0zulsEy2UZ/0L23C9XTvqi5dnSyypKCdVb7mh1v/UNyaH54u3h9Kf5F3awq315ESWU99httt+t1UtTjyHa6b9z1PEE+qK4359T8cLBbcQH+FWYinL785QiJIpiMlz113e1A/TXdQSflPUpusckWd0c+eqw4R3NmowTmVx0gJkY1f/GLrH55ppKtVfnwjg+65554WbM7yL7tKuQ9PeVK+777471m47P8TT3TU57yra67zhCQ8l4ccclDg+xlnfL0pfmcJ3lnqbJh6d7ANyb/smqUN1aF/hbN86EGpRCSsb+0vr8hVP9w2/J43mCfVl/vv2gvHNrwRUduv/soRQv41WLXM5HfWAJ5W754RYwLXN76/WtAvpKbVl+X0V107+h2Zub5sx/GUc2XjyU1ISF+VUoyUmDfO/k1JeLPGO8YfGDCPgXCQ9u3dZOCvsm6O4N6qOszHzb/20PPLYYI7/1V7899ASpR/oYGAZT5gYYzdH2PfiEjY3yoTB5O2tSqh4LDbZijnJiSkr0oJpASkpCnX+yAmbhOTcJD27d1k4K+ybo7g3qo6bAb1nquHCe5s0/60vkBKQEpASoABdgz4RkTC/laZOJi0rVUJBYfdaYGWs7znV18Q3JnTvrK6QEoQkNgDEm5B3L4FyTK/4SDt27vJwF9l3RzBvVV1lA3EedpzExLSV6UEUgJSAlICDLBjwDciEva3ysTBpG2tSig47LYZ1Huu/YLgzjbtT+sLpAQBiT0gZTlJo47btynhIO3bu8nAX2XdHMG9VXWkBVrO8p7rDhXcmdO+srpASkBKQEqAAXYM+EZEwv5WmTiYtK1VCQWH3WUDcZ723ISE9FUpgZQgILEHJNyCuH0LkmV+w0Hat3eTgb/KujmCe6vqsBnUe359qODONu1P6wukBKQEpAQYYMeAb0Qk7G+ViYNJ21qVUHDYnRZoOcu5CQnpq1ICKUFAYg9IWU7SqOP2bUo4SPv2bjLwV1k3R3BvVR02g3rP9cMFd7Zpf1pfICUgJSAlwAA7BnwjImF/q0wcTNrWqoSCw+60QMtZ3nPDcMGdOe0rqwukBAGJPSDhFsTtW5As8xsO0r69mwz8VdbNEdxbVUfZQJynPTchIX1VSiAlICUgJcAAOwZ8IyJhf6tMHEza1qqEgsNum0G95zeHCe5s0/60vkBKEJDYA1KWkzTquH2bEg7Svr2bDPxV1s0R3FtVR1qg5SzvmXSY4M6c9pXVBVICUgJSAgywY8A3IhL2t8rEwaRtrUooOOwuG4jztOcmJKSvSgmkBAGJPSDhFsTtW5As8xsO0r69mwz8VdbNEdxbVYfNoN5z0wjBnW3an9YXSAlICUgJMMCOAd+ISNjfKhMHk7a1KqHgsDst0HKW99w8QnBnTvvK6gIpQUBiD0hZTtKo4/ZtSjhI+/ZuMvBXWTdHcG9VHWUDcZ723ISE9FUpgZSAlICUAAPsGPCNiIT9rTJxMGlbqxIKDrttBvWejsMFd7Zpf1pfICUISOwBCbcgbt+CZJnfcJD27d1k4K+ybo7g3qo60gItZzk3ISF9VUogJSAlICXAADsGfCMiYX+rTBxM2taqhILDbptBvfZfhwvubNP+tL5AShCQ2ANSlpM06rh9mxIO0r69mwz8VdbNEdxbVUdaoOUsr93yRcGdOe0rqwukBKQEpAQYYMeAb0Qk7G+ViYNJ21qVUHDYXTYQ52nPTUhIX5USSAkCEntAwi2I27cgmF/MLzCgYsBeWK/d+kXBne1Zn94TSAlICUgJMAAMAAPAQCkMpAdbrhq120YK7sxlG4cekJJSQFTZMr5xggIGgAFgwD8McITjbDq4CQnpq1ICKQEpwQkJGAAGgAFgoBQG7IX12pSRgjvbsz69J5CSUkDEici/ExHmHHMODAADKgbSgy1XDW5CQvqKpAkTJoi2trZ6Hj16dKqak046qV4/3DbcEKQEpAQnJGAAGAAGgIFSGAiHVbPvtduPENw5r8XPPfdcQC6WLFkSNF23bl3wfc011zRUdfnll8fKJTmRBSAlpYCosmV84wQFDAADwIB/GJAh1fyzdscRgjvntZqIxE477RRpdsQRRwTEJCLM+EH6ZPrrm5QYf2LB+rdgMeeYc2AAGHAZA8YDZ70DbkJC+vKmMIkIt02Sh+uo711dXREyA1KCmxJc2wIDwAAwAAyUwoAaas191+48UnDnOXPmCDUneTB37twIiQjXy0pKSMesWbPEt771rUDXsmXL6mpASkoB0WXmD99wsgUGgAFgIBsG6jHV+EvtriMFdyYyoeYkR2677bbSpCTcV58+fSJdgZSAlOCEBAwAA8AAMFAKA5G4avSDm5CQvjxp5syZpUlJuL+hQ4dG9IGUlAIiThHZThEYJ4wTMAAMuIyBcJg1+1675yjBnfNanPRjmiR5mn5qd+KJJwbVQEpASnBCAgaAAWAAGCiFgbSwy1fOTUhIX95EJGLq1KmRZsuXL4/ceEQKUz5I3ymnnBLUAikpBUSXmT98w8kWGAAGgIFsGEiJuozFtalHCe6c17wzzzwzRkCIWAwcODCiimTh9Nhjj4U/g/ePfexjEV3RFrHqJgQAeTaQY5wwTsAAMAAMtAYGTMRKvc7ab78kuLO+p8ZSIhxqVluopEStL787OzvrTUFKcFOCa1tgABgABoCBUhiox1TjL9yEhPSVSfPnzy/TPNYWpKQUEHGKaY1TDOYJ8wQMAAMmMRCLrcYEtXu/JLizMWMLKAYpASnBCQkYAAaAAWCgFAYKRN+CTWr3HS24c0FTjDQDKSkFRJPMG7pxsgMGgAFgoDUwYCQ+a5VyExLSV6UEUgJSghMSMAAMAAPAQCkM2AvrtWlHC+5sz/r0nkBKSgERp5jWOMVgnjBPwAAwYBID6cGWqwY3ISF9VUogJSAlOCEBA8AAMAAMlMKAvbBeu/8YwZ3tWZ/ek1ek5NprLxALFtzp3eKbMeMaMWnSxd75TSfDjo7xXs75okXTgjnfvHmed/OOOfdzzu+994omYj092HLVqE0/VnBnLts49HhBStrb2wXlMWNGBU969+Eqs7t7fuDvgAH9xQknHBW8Dx8+xAvf5Zwfd9wX63O+fPnDzvsu55z8l3PuC94x5/7N+WmnnRisb1rngwbt1cQ9jiMcZ9PBTUhIX5WS86REblRhEqKThctdeSc/b7jhp5FATLKbbx4Xkbnir/Tj+efvDjYn+U3PZ565PSYLl7vyrsO2TuaKv9IP3Zz74Df5T35inW/9fZHmrXN7Yb32wHGCO9uzPr0nL0jJ/PmTI0F406Y5zgeop566TeujDxt1ko8kl0HM1Sf5qOJ9r70GarHg0hjo5tyHdS5JiTqXvs65HI/rrrvQ8lpPD7ZcNWozviy4M5dtHHpykZLevXsz9GnyN6DjupMCEcnnzr3FMnDj9qmbCdd3v359tYFIt3lz9VkVPeSj7ndoXJ/zrq552jlfsOAurbwq88VhB+Y8urf4Muc07yp+SKaTq/V4QY0CQAAAIABJREFUvxlCY0YV3ISE9FUpxUjJuHHjRFImUhIuK+ZIdPHwAiOuOwmcJB837qwYoE3bY0t/0sI8+OD9m7Bg4/NichzI9yVL7o/NretzTr/QTD7qxjZJrqvbijLMeXyN+TDnOh+bs8cVi4ZFWtV+P0pw5yJ2mGoTIyVEPJJyr169ImXFjIovHpOboA601B/JL7roTO0GbtIeW7rJP53vQ4ceqJXbsstGP+T3668/EJtb1+f8/vt/mTi3OizYmAtbfWDO4/uqD3Ou87E5e1yxaFikFTchIX1VSlpSsvPOO2ttzPvjG/m/JQ4/bW1Ssh8daKmM5NOnXx0LXLJdqz/JP53vSfJW9zdsP/mo++eBJHd5zt955w/aOV+69EGtPDxmrf6OOY+SEl/mnOZdxS7JdHK1Hu+3NmQaEdYe+orgzkYMLag0RkpIz0knnSToVuScc86JqM1LSiKN6x/RxcMLjLhuAueaNbO1wDXddzP133rrBO3CbM6Cjc+LybEhH/v37+fdnNOY6vA+atRILRZMzoFt3b7PuTrevsw5zbvqO8m+//2TYnK1Hu93PcAZf6nN/KrgzsaNztGBlpRQ+yeeeCL4Uc2OO+5YV9eqpIT+TkcYgEceeajzmzT5S4vz7bdnRnwn2ejRx0dk4bFx4f3qq8+LzW+t9lRM5oKvqg80vyreSUZZrevSt27Osc6xzu1hvB4mjb9wExLSV6WUSEqkkYcddlhwa3LqqacGJEXKiz/tnpoJlHJTpj8sdeGFZzi/QcuF+PDDvw58ffjh68UHH8yqj4Msd/kp5/y99x6pz/nPf/4DpwMzzaecc/qjUjTnRFBcJyQSx5hzv+f8yScnN3GPKx4R87as/eFEwZ3z2mCyfiopoc6nTp1a/wXX8sbYJyXPPXdnHay0cU2bdpXzwUlu1KNGHRHxXcp9eMogRc8hQwZ7M+cq3n2Ya+ljeM6xzu3vtXIebD7Dc968dV4+MmbVUHv4XwR3ztq3jXqZSAmvIX4sFJuLEn0BU8AAMAAMNBMDvFGykTZuQkL6qpRASkr9nyGbuQjQNzZhYAAYAAaqgQF7Yb32yNcEd7ZnfXpPICUgJd78WKMamxeCCOYBGHAPA+nBlqtG7dF/FdyZyzYOPSAlICUgJcAAMAAMAAOlMMARjrPp4CYkpK9KCaSkFBBx4nHvxIM5xZwCA8BAXgzYC+u1x74huLM969N7AikBKcEJCRgABoABYKAUBtKDLVcNbkJC+qqUQEpKATEvm0Z9nMCAAWAAGHAPA/bCeu3xbwrubM/69J5ASkBKcEICBoABYAAYKIWB9GDLVaM2a7Tgzly2cegBKSkFRJx43DvxYE4xp8AAMJAXAxzhOJsObkJC+qqUQEpASnBCAgaAAWAAGCiFAXthvfbHkwV3tmd9ek8gJaWAmJdNoz5OYMAAMAAMuIeB9GDLVaP2pzGCO3PZxqEHpASkBCckYAAYAAaAgVIY4AjH2XRwExLSV6UEUlIKiDjxuHfiwZxiToEBYCAvBuyF9doTpwjubM/69J5ASkBKcEICBoABYAAYKIWB9GDLVYObkJC+KiWQklJAzMumUR8nMGAAGAAG3MOAvbBem/NtwZ3tWZ/eE0gJSAlOSMAAMAAMAAOlMJAebLlq1OadKrgzl20cekBKSgERJx73TjyYU8wpMAAM5MUARzjOpoObkJC+KiWQEpASnJCAAWAAGAAGSmHAXlivPfkdwZ3tWZ/eE0hJKSDmZdOojxMYMAAMAAPuYSA92HLVqM0/XXBnLts49ICUgJTghAQMAAPAADBQCgMc4TibDm5CQvqqlEBKSgERJx73TjyYU8wpMAAM5MWAvbBee+oMwZ3tWZ/eE0gJSAlOSMAAMAAMAAOlMJAebLlqcBMS0lelBFJSCoh52TTq4wQGDAADwIB7GLAX1mtPnym4sz3r03sCKQEpwQkJGAAGgAFgoBQG0oMtV43aM98V3JnLNg49ICWlgIgTj3snHswp5hQYAAbyYoAjHGfTwU1ISF+VEkgJSAlOSMAAMAAMAAOlMGAvrNeePUtw5yLWT5gwQbS1tdXz6NGjU9VMnDixXl+23XPPPSPtQEpKATEvm0Z9nMCAAWAAGHAPA5G4avSj9tz3BHcuYjCRih122CFo2t7eHpCN7u7uhqqozU477SQ6OzuDejfccEPQjgiOTCAlICU4IQEDwAAwAAyUwoAMqeaf3ISE9OVNklyE2x1xxBEBwQjLsrxfccUVkXYgJaWAiBOPeycezCnmFBgABvJiIEv45alTW3C24M55LSNSoktJcl1dKXvppZdASrDg8i441AdmgAFgABhIxoAMseaf3ISE9OVJixcvjpCIcNsipITahNvp6U64F/Z3ADsZ2BgbjA0wAAwAA62HAfZAmaiw9sIPBHeWxCD8TDLgtttui5CIcL0wuQjLk94fe+yxmC6QEvz4Bj9LBgaAAWAAGCiFgaSwyy+vvfhDwZ3zWDlz5swYkZDt85CS3XbbLdDT09MjmwdPkJJSQMSJpvVONJgzzBkwAAxwYyASV41+cBMS0pcn1Wq10qTk3XffDXQceeSRsa5BSkBKcEICBoABYAAYKIWBWGw1Jqgt/HfBnfMaSzciU6dOjTRbvnx5IlkJVzzggAOCemvXrg2L6+8gJaWAyM22oQ8nOGAAGAAGWg8D9Zhq/KX257GCO+c1etttt40REPn7KGFd6o9zNmzYELQjYpKUQEpASnBCAgaAAWAAGCiFgaQQyy/nJiSkr0iSJCT8VPWopCRcV32XbUFKSgERJ5rWO9FgzjBnwAAwwI0BGVLNP2sv/Vhw5zJWz58/v0zzWFuQEpASnJCAAWAAGAAGSmEgFluNCWqvnCO4szFjCygGKSkFRG62DX04wQEDwAAw0HoYKBB9CzbhJiSkr0oJpASkBCckYAAYAAaAgVIYsBfWa6+cK7izPevTewIpKQVEnGha70SDOcOcAQPAADcG0oMtVw1uQkL6qpRASkBKcEICBoABYAAYKIUBe2G99up5gjvbsz69J5CSUkDkZtvQhxMcMAAMAAOth4H0YMtVo7bofMGduWzj0ANSAlKCExIwAAwAA8BAKQxwhONsOrgJCemrUgIpKQVEnGha70SDOcOcAQPAADcG7IX12qILBHe2Z316TyAlICU4IQEDwAAwAAyUwkB6sOWqUVt8oeDOXLZx6PGKlFx77QViwYI7vVt8M2ZcIyZNutg7v+k02NEx3ss5X7RoWjDnmzfP827eMed+zvm9917RRKxzhONsOrgJCemrUvKClLS3twvKY8aMCp707sP1ZXf3/MDfAQP6ixNOOCp4Hz58iBe+yzk/7rgv1ud8+fKHnfddzjn5L+fcF7xjzv2b89NOOzFY37TOBw3aq4l7nL2wXlvyU8Gd7Vmf3pPzpEQSkTAJoc1r8OB9nQ9Q5OegQXvW/dyw4Ylg0a5b96e6LDwuLr2T74sX/67u59FHHxb47pKPOl9kYA6X+YR31W/yPSxz8Z18DK9z8pFkWOfcvzfSSF96sOWqwU1ISF+VkvOkhBbn/PmTIxvTpk1znA9QTz11m9ZHGg/KLm7O0qckH133WwYjFe977TXQyzn3YZ3LOZfYl09f51yOx3XX0Y8kGpEI7jJ7Yb225D8Ed7ZnfXpPXpASHTgpQM2de4tl4HIvhGR9/fr11QaipICtG6NWlZGPut+hcX3Ou7rmaed8wYK7tPJWnV+d3Zjz6F7gy5zTvKt4IJlOrtbj/U4Ptlw1an+5WHBnLts49OQiJZdffrmYPn16yX6ji4cXGHHdSeAk+cSJY2OANm2PLf1JC5OueZPGxJZtpvsh/1544e7Y3Lo+548/fmPi3GLO43uDaRza0O/7nOtw3Zw9rmRYzNGcm5CQviqlGCnp1auXePLJJyM2kqx3796RHKmQ68Pu5qADLW0WJL/oojNjgcvGRmKjD/JP5/vQoQdq5TZsstUH+f366w/E5tb1Ob///l8mzq0OC7bmw0Y/mPP4vurDnOt8bM4elysIlqpc+8slgjuXMoi5cSopOeOMMwSRkiVLltS7liSlLkh4aWtrE2q2sUGF+9CBlspJ3tFxSSxwhdu28jv5p/M9Sd7Kvqq2k4+zZ98Um1uSuzzndDukm3MffrcCcx4lJb7MuQ7vJNPJ1X2C9zshCBoQ114bL7izATMLq0wlJXRDoktJcl3dqCy6eHiBEdedBM4kuWl7bOkfO/YU7cJszoKNz4vJcSAfjzlmhJaUmOy3Crp1uB437iwtFqpgL5cNmPPoGvNlznV4J9mwYQfF1j8X1vR6olHO5Bc3ISF9VUqlSMmCBQsK+BJdPPoJ5qtDAKW/0xHu58gjD3V+kyZ/yfe3354Z8Z1ko0cfH5GFx8aF96uvPi82v7XaUzGZC76qPujwTjLKal2XvnVzjnWOdW4P4wVCYcEmtdd/JrhzQVOMNCtFSpYuXVrAKD7CkQVwK1c+GmzI06dfXd+UaYN2+V/eyHGhv8USDkZ0egh/y3ouPsnPgQMHRObcB9/VOV+4cGow5z7gneZXXec+z7mL61r1qTrrvEAoLNiEm5CQviolLSlRf6l1/fr1MZvp90qKJbukhED83HN3BhszAZjytGlX1YOVCnLXvkeNOiLiu2v+NfJHzjc9hwwZ7M2cq3hvNEaulYXnHOvc/l7bDDyF57x567xYNCzSqvb6BMGdi9hhqk2MlGTp6MEHHxTHH09Xg0WSHwulGYsTfQJbwAAwAAw0AwNFYmGxNrU3/o/gzsUsMdOqECkpZ0ozAIM+sVEBA8AAMAAMmMJAuaiYpzU3ISF9VUogJVb/FLGpBQG92GyBAWAAGGgeBuyF9dqblwrubM/69J5ASkBKvPldi+ZtWAgWGHtgwG0MpAdbrhq1N/9TcGcu2zj0gJSAlICUAAPAADAADJTCAEc4zqaDm5CQviolkJJSQMTpx+3TD+YX8wsMAANZMGAvrNeW/kJwZ3vWp/cEUgJSghMSMAAMAAPAQCkMpAdbrhrchIT0VSmBlJQCYhYGjTo4aQEDwAAw4DYGLIb1zsuE4M4WzU/rCqQEpAQnJGAAGAAGgIFSGEgLtYzlnZcLwZ0ZzSurCqSkFBBx+nH79IP5xfwCA8BAFgyUDcU52nMTEtJXoQRSAlKCExIwAAwAA8BAKQxYjOpvXSkEd7ZoflpXICWlgJiFQaMOTlrAADAADLiNgbRQy1j+1lVCcGdG88qqAikBKcEJCRgABoABYKAUBsqG4hztuQkJ6atQAikpBUScftw+/WB+Mb/AADCQBQMWo/rbvxSCO1s0P60rkBKQEpyQgAFgABgABkphIC3UMpYv+5UQ3JnRvLKqQEpKATELg0YdnLSAAWAAGHAbA2VDcY723ISE9FUogZSAlOCEBAwAA8AAMFAKAxaj+rJrhODOFs1P6wqkpBQQcfpx+/SD+cX8AgPAQBYMpIVaxnJuQkL6KpRASkBKcEICBoABYAAYKIUBi1H9nWuF4M4WzU/rCqSkFBCzMGjUwUkLGAAGgAG3MZAWahnLl/9aCO7MaF5ZVSAlICU4IQEDwAAwAAyUwkDZUJyjPTchIX0VSiAlpYCI04/bpx/ML+YXGAAGsmDAYlRffr0Q3Nmi+WldgZSAlOCEBAwAA8AAMFAKA2mhlrH83RuE4M4lzBs/frzYvHlzCQ3RpiAlpYCYhUGjDk5awAAwAAy4jYFoYDX6xU1ISF+B1NbWJiiPGDEieNJ7Wlq1alW9rmyvtknXorYo/Y3F6fbixPxifoEBYMA3DJQOjNkVvHujENw5e+9BTR2h0MkaqU2qD1KCmxJc2wIDwAAwAAyUwkCj8Mtcxk1ISF/ORIRi1qxZkVYbN24MbkEiwgYfICWlAOcb64e/OOkCA8AAMJAdAw2iL3fRe5OE4M45bOzq6kokH0Q0siaQEpASnISAAWAAGAAGjGAgayhmqLfiJiGYsyQI4WeSpXfddRdISXa2CmaPsQIGgAFgABiwjYGkEG5AzkxIAoKTw8wpU6aAlGCB2V5g6A+YAwaAAWAgOwZyRPWyVVd0CMGdc9jU2dkJUpIdGFhEGCtgABgABoAB2xjIEdXLVl35X0Jw55w2Jf3uSJJcp17+qEgty/5bKWrLwt+2wYL+sEEBA8AAMAAMmMRA4YCYvyE3ISF9ORMRim222SbSql+/fok3KJGKH36AlBj55SaTIIdubKLAADAADLQGBnRh15Bs5S1CcOcCpkpS0d3dHRAU+lZTkky2DT9l27gWWWLsiUXWGosM84R5AgaAAWAgGwaMBcy4Ym5CQvoKpHnz5gU3I5JYTJ48OaYFpAS3IfjnfsAAMAAMAAPWMRCLx+YE708Wgjubsza3ZtyUWAcvTh7ZTh4YJ4wTMAAMtAoGcsfe4g1W3SYEdy5uDXtLkBKQEpyqgAFgABgABkphgD02JyvkJiSkr0IJpKQUEFuFxcNOnDiBAWAAGDCHAYtRfdUUIbizRfPTugIpASnBCQkYAAaAAWCgFAbSQi1j+eo7hODOjOaVVQVSUgqIOHmYO3lgbDG2wAAw0CoYKBuKc7TnJiSkr0IJpASkBCckYAAYAAaAgVIYsBjVV98pBHe2aH5aVyAlpYDYKiweduLECQwAA8CAOQykhVrGcm5CQvoqlEBKQEpwQgIGgAFgABgohQGLUf2Du4TgzhbNT+sKpKQUEHHyMHfywNhibIEBYKBVMJAWahnLP7hHCO7MaF5ZVSAlICU4IQEDwAAwAAyUwkDZUJyjPTchIX0VSiAlpYDYKiweduLECQwAA8CAOQxYjOprpgrBnS2an9aVV6Tk2msvEAsW0C/1+LU4Z8y4RkyadLF3ftM8d3SM93LOFy2aFsz55s3zvJt3zLmfc37vvVc0EetpoZaxfO29QnBnRvPKqvKClLS3tws1+0JMVL/ffPP3TVy49sjg6ad/DXP+Ie5HjhyGOXf8IKKuc1/mfOPGObF13pw9rmwoztGem5CQvgol50nJmDGjAtCGSQgt4MGD93V+oyY/Bw3as+7nhg1PBGOxbt2f6rLwuLj0Tr4vXvy7up9HH31YDAcu+St9kcFJftPTJ7yrfpPvYZmL7+RjeJ3LOcc6t3cIshrT194nBHe26kDjzpwnJbRgx4//fmRjeuih65wPUFu2PKn1kcbD9Y36gAP20frout8yGKl493XOfVjncs5VsuXrnMvxePFF+uVNkJLM5KUxT7Ba6gUp0YGTFm1n54OWgWtvkQwf/vnEwOx6cCb/Lrro32Jz6/qcyw1ZxfsDD1ytxYJar5W/MefRvcWXOdftZSTTyc3i22LcXjdNCO5s0fy0rmKkZNasWeLFF1+MtOvdu7fo1auXkM8+ffpEyvN9RBePWaBsvbrW9UGgnThxbCxw6eq2oixpYdI1r/0Fa3/OX3jh7tjcuj7njz9+Y+LcYs7tYtDWnuH7nOtw3Zw9Ll8ULFV73f1CcOdSBvE2jpESIh/htP3229fJyEknnSS222674Pvkk08OV8vxbndz0IGWNgySn3fed2KBy9ZmYrof8k/n+6GH6m9QTNtjUz/5vXRp/BbM9Tm/774rtHNOY6/Dgs05Md0X5jy+r/ow5zofm7PH5QiBZatyExLSV6EUIyV0GxJO6rcsU8mLlIefbW1tQs2mNydVvw60VIfkHR2XeEdKyO+kMVHHrlW/yb/Zs2+Kza3rc063Q7q53bRp679QaNX5zGI35jxKSnyZcx3eSaaTZ8FR8TrhyGf4ff10IbizYZPzqE8lJUnkI4mspHceXTzFQZBNTxI4k+Sm7bGlf+zYU7QLszkLNttccY0N+XjMMSO0pISrj6rq0eF63LiztFioqg9F7MKcR9eYL3OuwzvJhg07KLb+i+Aqe5v0yMdWY/0MIbgzm3HlFcVICZGQTZs21TW7QErOPnt0BKCTJ09wfpOmxZS0YPv27RsZj+wLL7rxVbXd4Ycfkuh7VW3msovmXMU7yXRY4OqzCnp0c4517u86X7ZspuU9rh4yzb9wExLSV6EUIyVkG92CvPLKK4GZ3/zmN4PvsM1U3io3JStXPhpsyNOnX10HKW3Qc+feUv+uwqZqwgb6WyzhYESnh/C3iT6ropP8HDhwQH2O6dsH39U5X7hwauC3D3in+VXXuc9zXpW1aNIOmt9qrPNwhDT8vuH3QnBnwybnUa8lJfvtt19AOuiWhMhH+Cnf83QSrWv/tN2/f79gYyYAy2xyoVRJt/RXPru65tYDdZXs5LaF/tS49Fk+ufuoqj4V7z/+8bcx51b/ZoX9PU5iXD59mXNag9Jn+WzOHheNcka/Nj4oBHc2anA+5VpSIlU8//zz4hOf+ESdlJx77rmyqMTT/oKtavCAXcACMAAMAAMuYKBESMzblJuQkL4KpYakxIydLgAQPmAjBQaAAWAAGJAYMBMttVo3zhSCO2s7ao4QpMTxa11sGnLTwBNYAAaAAVMYsBjAuQkJ6atQAikBKfHi9w2wGZvajKEX2AIGrMb0TX8QgjtbdaBxZyAlICUgJcAAMAAMAAOlMNA40LKWbnpYCO7MamA5ZSAlpYCIEwJOicAAMAAMAAPlAnGu1tyEhPRVKIGUgJTghAQMAAPAADBQCgMWo3rXI0JwZ4vmp3UFUlIKiDgh4YQEDAADwAAwkBZqGcu7HhWCOzOaV1YVSAlICU5IwAAwAAwAA6UwUDYU52jPTUhIX4USSEkpIOKEhBMSMAAMAAPAgMWovvlxIbizRfPTugIpASnBCQkYAAaAAWCgFAbSQi1jOTchIX0VSiAlpYCIExJOSMAAMAAMAAMWo/rmWUJwZ4vmp3UFUgJSghMSMAAMAAPAQCkMpIVaxvIts4XgzozmlVUFUlIKiDgh4YQEDAADwAAwUDYU52jPTUhIX4USSAlICU5IwAAwAAwAA6UwYDGqd/9JCO5s0fy0rkBKSgERJySckIABYAAYAAbSQi1jefcTQnBnRvPKqgIpASnBCQkYAAaAAWCgFAbKhuIc7bkJCemrUAIpKQVEnJBwQgIGgAFgABiwGNV75gjBnS2an9YVSAlICU5IwAAwAAwAA6UwkBZqGcu5CQnpq1ACKSkFRJyQcEICBoABYAAYsBjVe+YJwZ1LmD9+/HixefPm3Bouv/xycdttt8XagZSAlOCEBAwAA8AAMFAKA7HYak5Qe1II7lzA2ra2NkF5xIgRwZPesyTZbr/99hPbbbdd0HbdunX1ptm01KtzvOBUgVMFMAAMAAPAgEsY4IiNGXVwExLSlzNJIhJuRmRjxx13DIti7z09PQEJWb58eb3sk5/8ZCCTApCSUuzYpUUFXxAkgAFgABgohgEZUi08a08JwZ1zmk0EZNasWZFWGzdujJCLSOGHH/KWRC0jufxRDkgJSAmubYEBYAAYAAZKYUANsya/TRDH7PZ2dXUlkg8iF40Sld9zzz2xKmGy0lhDrCmHwMSAQmcxdo9xw7gBA8AAMFAeAxyxMasO/vmSpCD8TLJmxowZpUjJihUrYqplv1TQBFISs8eagBz3MYUn3Df/fZ3zOXPmJG4crmMAc+76DMf9ozknzCMVGwEaOzUnaZoyZUri3pK29qh8y5YtMdUkl229itLS6diIOC4IT7jjrsbc83XOQUpiUHBe4Puck/9I5kfg6aefrhMItbe0/ZbKX375ZbVZoE+2BSmJDY97AppsOeHuedfYI1/99j1ANUaFm6W+zzlIiT1cJ+2rSXJpGZUfe+yx8rP+JPnQoUODb5CS+rC4+0ITngYWV7331W/fA5SreG7kl+9zDlLSCB28ZbSvbrPNNhGl/fr1S40zY8aMidWhv1ES3qdBSiLD6uYHTXh40t30Uu+Vr377HqD0aHBb6vucg5TYw/d7770XxJTbb7896PSZZ54Jvh999NGIEbr9l2Q77LBDvR59b7vttn/9rr/hBSOAEcAIYAQwAhgBjECGEZg3b15ARIhUUJ48eXKsFcl1Sbah5x577BGpom8RqYIPjABGACOAEcAIYAQwAuZHAKTE/BijB4wARgAjgBHACGAEMowASEmGQUIVjABGACOAEcAIYATMjwBIifkxRg8YAYwARgAjgBHACGQYAZCSDIOEKhgBjABGACOAEcAImB8BL0jJhAkTIr8lPHr0aPMjW4Ee7r777ojfFTDJigmHHnpoxG/6De/777/fSt/N7iT8W+3yvdk2NaN/n3yXvqrPZox7M/q88cYbY+u9GXagT54R8IKU0GKV/y566tSpAYC7u7t5RrDCWnzdpMjvk08+uT4zchzqAodf2tvbxcKFCwMPX3311fpm7bDLMdfuuOMO0bt378D3WKGDAsL33LlzY9lBV2MudXZ2BvNMB09KPT092r8YGmsIQWVHwHlSQgt2p512ikzAEUcc4c2GRY6/9tprXvkbmewPP3wiJqr/5Pvuu++uip38Xrt2bR3r5LcPyRc/dXPps++68XBB5vyqTQJtktyFSVV9ACkRXp2c1fknrH/rW99SxU5+k6/01yUp+bLGffFTBSz57avv6li49O01Kbn55ptdmstEX0BKtgaokSNHJo6RqwWf+MQnvNm4L7vssoivvgQsGZzDT1fxHPZL+jtp0qRg3uX3kiVLwtXw3mIj4DUp+c53vtNi01XMXN9Jidysio1e67X6whe+ENmk6efsPiSa53BSv8NlLr1TUA6nLP9jtHD9Vn2X6zo8z/vuu2+A/U2bNrWqW97bHV3FDg5HGLBh90h+wQUXhEXOvvtMSuTG5ezkpji2ZcuWYJN2/cc3NM9Z/mdgKcPlTDGNB/2yr8spaW0nyV0eC5d885qU0G+s+5B8JSXynwb7MMeNfHR9k3788ccD4qX+CxTyW8oajY+LZa7POc1Zko/HH398UObivPrgkxekhP4ZcDgtX77cK9D6SEqSNqwwDnx5d30sHnvssXqAkr6qT1/mWvop/ZffLj4HDhyo3cc/+tGPauUujoGLPjkIr216AAAAwUlEQVRPSrbddtsYQH1YsGGw+kZKvvGNbwRzvnTp0vAwePtOeN9+++2985/89jFt2LAhwP+KFSucd5/m+IMPPoj4SbITTjghIsNH64yAF6uWQKrm1pmi4paqPoe/i2utfsuwn+p79a0vbqH6C67S91133bW40hZuSf77kOQ8h5833XSTD66LVatWxfZ2X+bd1Qn2Y9V+OHvz5893dR7hF0YAI4ARwAhgBFp+BLwiJS0/W3AAI4ARwAhgBDACDo/A/wOyBzFiBxZmngAAAABJRU5ErkJggg==;" vertex="1" parent="1">
          <mxGeometry x="570" y="160" width="252.42" height="200" as="geometry" />
        </mxCell>
        <mxCell id="L8nepF0H7HIKw9ve7Z6O-6" value="Epoch 40" style="text;html=1;align=center;verticalAlign=middle;resizable=0;points=[];autosize=1;strokeColor=none;fillColor=none;fontSize=15;fontStyle=1" vertex="1" parent="1">
          <mxGeometry x="651.21" y="360" width="90" height="30" as="geometry" />
        </mxCell>
        <mxCell id="L8nepF0H7HIKw9ve7Z6O-7" value="" style="shape=image;verticalLabelPosition=bottom;labelBackgroundColor=default;verticalAlign=top;aspect=fixed;imageAspect=0;image=data:image/png,iVBORw0KGgoAAAANSUhEUgAAAiUAAAG0CAYAAADtv1eQAAAgAElEQVR4Ae19CbwVxZX3A5VkknHi6CSZ8RsTjfqAQBR3jRuIQYzLhES/bCoxrjMak6hRxyWKhGg0LsElalSC4IK+KAqohIhChIfgAioaA0QiaEBUQJHl8d6t7zuNde2uru5bXfd03b7V//r9yu4+fepUnTr/rvOveo9ni0DBDGAGMAOYAcwAZgAzUIAZaCnAGDAEzABmADOAGcAMYAYwA8IxKXlWCIGKOQAGfMbAgy2toqz1spZWUcb6m5ZWUdbqkkfkgS2X4zfpC6QEJAlEERhgxUBZCQn5nUfSaAabZSUk5LfLkgcWXI7fpC+QEiQk1oTk8wkAfDM74QIpKR85ASkxSbf161ze0iq4a/2j4rUAUgJSAlICDLBiAKQEpKRMJIU3Jadb4yYkZK9oBaQECYk1IeE0wew0wed5AikBKQEpySfV/6KlVXDXfEZqbxWkBKQEpAQYYMUASAlICUiJfVJOa/nLllbBXdP6a8Q7kBIkJNaE5PMJAHwzOwUCKQEpASnJJ51zExKyV7QCUgJSAlICDLBiAKQEpASkJJ9Uf2VLq+Cu+YzU3ipICRISa0LCaYLZaYLP8wRSAlICUmKflNNaXtXSKrhrWn+NeAdSAlICUgIMsGIApASkBKQkn3TOTUjIXtEKSAkSEmtC8vkEAL6ZnQKBlICUgJTkk+qvbmkV3DWfkdpbBSkBKQEpAQZYMQBSAlICUmKflNNachMSsle0AlKChMSakHCaYHaa4PM8gZSAlICU5JPqr2lpFdw1n5HaWwUpASkBKQEGWDEAUgJSAlJin5TTWl7X0iq4a1p/jXgHUoKExJqQfD4BgG9mp0AgJSAlICX5pHNuQkL2ilZASkBKQEqAAVYMgJSAlICU5JPq85jXfEZqbxWkBAmJNSHhNMHsNMHneQIpASnJI3kW1aZ9+s3e8oaWVsFds48i3xYgJSAlICXAACsGQEpASopKIPIYV74pOmqdm5CQvaIVkBIkJNaE5PMJAHwzOwUCKQEpySP5F9Wmy6R+U0ur4K4ux2/SF0gJSAlICTDAigGQEpCSohKIPMZlkmi5dLgJCdkrWgEpQUJiTUg4TTA7TfB5nkBKQErySP5Ftekyqf+2pVVwV5fjN+kLpASkBKQEGGDFAEgJSElRCUQe4zJJtFw6t7a0Cu7KNTYuO6UhJTfddJGYN+8+1sW3GXa7kybdKG6//bLS+U2xGTVqeCljvmDB+CDmHR2zGhJ3TlIy/6LrxJN7fUtktTnvJyPEsyecl7ld1n5U/ctaeAjJ/cf+WEw+50qR1d7Vn/+qeOLCa8Wvtt47te2Dx/1MPHrm5ak6WfrmTPbTfjxC3LfXt0RWm3/8wQXiqbN+UbPdyM16ixkXXismDjmjpq7JGLiSsYkdbkJC9opWvCclra2tQq3NQCY4xqj6/cYbjzYkSXH4ksXGqad+GzH/CPeDBh3kPOZqorZ51i2UJnY2rFwda7rureURcrLyhVdiOia2TXSyJPIkXXVw129/iBF5UNvRs9rHFf+ye0xteI8+MT21Xa1nk+RdS+dvE6bGxlarDb1fr4n5mreWawlHrAMhtHom/Uodnc28ZL9raRXcNa+x2tr1mpQMHTokSE7hhEaJeu+96cP0+2f/5Ge/fl+p+rl27YxgLtaseboq83UOyPeFCx+u+nnEEYfEcOCj75KEhn1rBN5NkneazvIpM4L1LKxDgg3vvBchF+H3dL9u2YpYuym9Bsdkyx6bLh7d9oDAVvBSiFS7aj9pz7WSd633gZ8frKmShF/80y7BEEd8ul9VprNBSh1r10V0Nq5bH7SV+pdv/uXg+ea+R1b1fvnPu0V0pG7Wq0zQ9VxpIHf1HFwlCe+89FowtlSb3XoGOr/f6WvVdqRPZfmzL8VkJE+119Ka+X3QmaP/3NHSKriro6Ebd+M1KaEFefbsMdXkRIv1+vUzvU9Qc+aM1fqoS1rhBObDfZKPJPfBvzQfdHjfZZe+Wiyk2an3XVrSNnlHq9e0A78XIQrjP9E3WNTS2stVT9Uh+axvnhmxJ3WS2sj3Wa9Zk3lY/479vxsMJyyje1lUefiZdIh0hGWShEhZkp0kuWxncq030csxqHZIrsrCz3/+2VVB07CM7mWR8ifPvFyrJ9/Xc5V9ubhyExKyV7TiPSnRLbC0eC9d+pi3SWrAgK9qE1FSwtbNUbPKyMdLLvnvWGx9jznFi3xU4zZx4kitXNXjfM6ayFV9WiRVGT1TeewL/bXv6P3q+QsCHbVtkj1pM+29aqvWs0kCT9JZ+fqSYPzq+0Co+VFMWI90XvnD5Agp+cvDT0TsJdlJkoft17qvJ6lTWyov/vbeGAEh+Z1f6B+Th/sjnfCztLfgD5Or8qADqdetp7jts/tW36ltsz5L2y6uo1paBXd1Me4sfWhJSffu3UW3bt1ileT1Fbc/MtEt0nLxvuqqc2ILOOfC3Ehb5LfOd/pxjk7eyLFy903+vfTS/bHYktznmD/11O8SY+s65rUSd633tMbodEj+2pW3ad9J/QXX3Blbop476cLENlJZtq/3Wit5p72XY1F1NnywJnilytVn2T58Deu8u/DvWjtSP6yb9T5rIlf1aQz37D4kRhRIPufK22LycPvnNTH/00kXRtqQnQVtj0tXI9ewLZv7iLGcH7gJCdkrWomQktWrVwtJSC688ELR1dVVHe8dd9wRvKP3Q4cOrcqz3RSHlFxyyemxxMWdIBtlj5KQLhEdcMA+WnmjxplHv+T34sUTY7Eluc8xf+SR3yTGVoeFPOZe2qw3sdOaorNB8r/dcq/2ndSX69GMw08Wz59ysXxMbCMVZPt6r1mTeVhfjiUso/vVS5cFr1R5+PmmL3890Fn77kpBPwZa+96q4PnW3YdETk/UPro2bpSiiF7Ytsm9TTIPt6FB/H7HQyNEgt5TefGW+AmK2pb0/nTyReLhr58StKH/6HRu/nS/mPzmf94tIgu3M7mvdujgZnRLq+CuDoadqYsIKaHTkcMPPzzVwGuvvRacoKQq/f+jxpaWlliVi5ara9JiTPJRo+hnjG5Jkqv+yD+d70lyV+Ny0Q/5OH36HbHYktznmNPpkC7mjfgdqnoTO60tOhskp3/qq3tHMlnU9yRP+ufBSW1UG6bPJgk8SUeORX2fJA/rkc6E034eIRYTT780aBrWo/ukoupleTZJ3mk6NKaHBv0wRg5IPu0nI2Jyaeux754duCOf5VX6mPQclr/59HOJ9qVe2lX25eJ6V0ur4K4uxp2ljwgpMf3xDOm9/PLLWfr5SNctCdAt0pQYk+QukqaLPs4550Stj+S3776Tf0ceOVBLSlzMfSP70MV22LAznMfcNIEn6dFioXuXJJe6ckGSz/KaJKf3skjdeq9ZErmqO28M/Yux+D/jlWNU9eXzuG/9SNuO3uvsyXbyWsu+1Eu7piVtk3c0hhXz/hIjByRPay/HruqocvVZ6pN8zT/eTu1D6iZdpW0XV25CQvaKVqxJCf2oJ3txT0rOOuv4SIIaM2aE80W6EYlKl6BI1rMn/RM6t3Fw2d+hhx6oja9uPlyOy0Vf5KOKd5K59r3exE7rypJxj0aIydwzhgXLTZptuR6pOkly0pNFbWP7nJa4Td7ReFQ9klW6umJyqXfzV44K3JDP4avOXvg93VO57xv/k2hf1dc9JyVsU/nKBYuDcaj6JFRl4eegkUZHlU8+4bxE+9PPviK1j3B/unvZl4vr2JZWwV1djDtLHxFS8qlPfarmj2bolMT0RCU+ELfJ8N13pwYL8oQJI6uJmBbo9vbR1WcXyaIRfdDfYgkno4MO2jfy3IgxueqT/O7bt081xvQcngtX43Ddjxrz+fPbAr9d4902oct2E7fZJ1g6Zn/np1ViQoLp/Y+vPpMuFdmGrqvmvhrIpg84oSrX/e2ScJuggWIn/D7rvS5hZ5F9+M57wZBkm1VvvBV5JrnuX+lIP2Q7usoSlqn/Qod03nz2pboICdnXJeusMhoL/W0V2U6OXz7Tlcrq15dUdX7z0d8p+eDNj/9YGv0YiEqtv1Oy6qNf/A3bt7kPOnP0n3taWgV3dTR0424ipIRabb755tVfdlX/BQ6REZLZF7ekhJLC3Ln3BQuzTEzjx19fTVauk4br/oYMOSziu+v+G9mfjDdd999/79LEXMV7I2KQNZHr9J/c+5jIMjPn++dWiYbUJwV5L68Tt6ZYR8uEf90rphfV+PhJ2rG9hgmA7f2bc176eECakxMdKaG+1q16P9KOntUxrFy8NKJzQ+thMR21jcmzTTLXtQkPLkw0pC69j5AS+n/BaGJ+y7/u9TFxCZGmpdPnhLvQ6si+TK8Rgzk/cBMSsle0EiMlNMDOzk5x9NFHR/5JcJ8+fcSrr27aidg74Z6UNGJRRp+Ic5kxYJvQfWhnksB91DFN4D7q2efD7C3va2kV3DX7KPJtoSUl+XWJZFXmZAXfy4F/H8iFrQ8+Eg4Tn3wkG6Y+5Zcv45bvb2kV3DXeS2MlICUe/9InSEA5SEDR4myb0H1oZ5LAfdQxTeA+6rlM4dyEhOwVrYCUgJSU5vctipa8fR2PD+TC1gcfCYeJTz6SDVOfXCb1tpZWwV1djt+kL5ASkBKQEmCAFQO2Cd2HdiYJ3Ecd0wTuo55JouXS4SYkZM+m6P84am1LunbPP/98pCFICRISa0LydfcPv8x/FOYDubD1wUfCYeKTj2TD1KdIRs35wRaXae2yDnngwIHBX2sPtyOysfXWW4dFsfvPfe5zsXavvPJKTAZSAlICUgIMsGIgbQH0/Z1JAvdRxzSB+6gXy745Csa3tArumnW4REDOOuusSLO2trYYuYgohP7XMzr5uHHjqmKQEiQk1oSEEwXzEwVf58p34pHmn4+Ew8QnH8mGqU/VbOrghpuQkL2shUiJriTJpW7v3r21xEVtp7curbBfsWD7mojgF7AtMZCWtH1/Z5LAfdQxTeA+6rGnyRSDj7S0Cu5KpECtSUNob2/XEgvSV8mFzobsZ+XKleKFF14I2px88skRVZASnJTgpAQYYMWA78QjzT8fCYeJTz6SDVOfIhk154eJLa2Cu86cOVOoNcmN0aNHJ5IPE1JCfzFeEhN5XbZsWaQ7kBIkJNaEJHfLuJb35CQtafv+ziSB+6hjmsB91Itk1JwfuAkJ2ctSnn32WWtSIkmI2h/Jf//731fFICUgJSAlwAArBnwnHmn++Ug4THzykWyY+lTNpg5uHm1pFdw167CJROhKklzq0vs//elP8rF6JXm4rd56VZ37pry7R5wcIPZlwUBa0vb9nUkC91HHNIH7qMedJdPscRMSspe1EIE49thjI81uuOGGCLGIvPzogdpdfz39D3GjBaQEu2LWXXFZEi38NCeVvhOPNP98JBwmPvlINkx9iqbYfJ8ea2kV3DXriFesWBEQkHvuuSdoSn/8jIjF1KlTI6ZIFi677LJLoPfEE09UxfJvl1Qqlaos2qoqzuvGfGFDEsBcAQPNiYG0pO37O5ME7qOOaQL3US+vbKmzO7mlVXBXXT+1ZJtttllAMOQph0pAqH2SLNyG7h999NFIdyAlODnByQkwwIoB34lHmn8+Eg4Tn3wkG6Y+RTJqzg/chITsFa2AlCAhsSYknG405+kGZ9zSkrbv70wSuI86pgncRz2XSX1KS6vgri7Hb9IXSAlICUgJMMCKAd+JR5p/PhIOE598JBumPpkkWi6dJ1paBXflGhuXHZASJCTWhMS544at5jx1SUvavr8zSeA+6pgmcB/1uJKxiR1uQkL2ilZASkBKQEqAAVYM+E480vzzkXCY+OQj2TD1yWVSn9qtVXBXl+M36QukBAmJNSHhdKM5Tzc445aWtH1/Z5LAfdQxTeA+6pkkWi4dbkJC9opWQEpASkBKgAFWDPhOPNL885FwmPjkI9kw9cllUn+q+86Cu7ocv0lfICVISKwJiXPHDVvNeeqSlrR9f2eSwH3UMU3gPuqZJFounWmb7Sy4K9fYuOyAlICUgJQAA6wY8J14pPnnI+Ew8clHsmHqE1cyNrHDTUjIXtEKSAkSEmtCwulGc55ucMYtLWn7/s4kgfuoY5rAfdRzmdSnb7az4K4ux2/SF0gJSEmupOSOllZR1sr9s99mscdJcGALJLf4GDBJtTw6f958J8FdeUbGZwWkBKQEpCQn4tQsJIJ7nMVPIkj0iBEnBvgSci1L3ISE7BWtgJSAlICUgJSw/kY/Eh5nwoOt4uPJXVp/eoudBHd1N3qznkBKQEpASkBKQEqwDuS6DhSfWNRD/sySLYcWNyEhe0UrICVYjHJdjMr6+yTkN/ePRZrFnt8JqJ7khbZ+YsNdWp/RYyfBXd2N3qwnkBKQEpASnJSwEig/Ew8IBeKahAGzZMuh1f6JHQV35RgXpw2QEpASkBKQEpASrAO5rgN+ExrOlJxui5uQkL2iFZASLEa5Lkb48Q3/n4Uu+o9x/E5ASbtlyMsbd3dpfdYndhTc1d3ozXoCKQEpASnBSQlOSrAO5LoO+E1YzJIth9Yzn9xRcFeOcXHaACnBYpTrYoSTEpyU+J2QcEKC+HKm5HRb3ISE7BWtgJSAlICU4KQEJyVYB3JdB/wmLu7S+ux/2lFwV3ejN+sJpASLUa6LEU5KcFLid0LCSQnia5ZsObS4CQnZK1oBKQEpASnBSQlOSrAO5LoO+E1c3KX1OZ/6kuCu7kZv1hNICRajXBcjnJTgpMTvhISTEsTXLNlyaD336S8J7soxLk4bICUgJSAlOCnBSQnWgVzXAb+JC2dKTrfFTUjIXtEKSAkWo1wXI5yU4KTE74SEkxLE111af/6fvyS4q7vRm/UEUgJSAlKCkxKclGAdyHUd8Ju4mCVbDq0X/nkHwV05xsVpA6QEi1GuixFOSnBS4ndCwkkJ4suZktNtcRMSsle0AlICUgJSgpMSnJRgHch1HfCbuLhL63O33EFwV3ejN+sJpASLUa6LEU5KcFLid0LCSQnia5ZsObTm/csOgrtyjIvTBkgJSAlICU5KcFKCdSDXdcBv4sKZktNtcRMSsle0AlKCxSjXxQgnJTgp8Tsh4aQE8XWX1l/6zPaCu7obvVlP3pOS1tZWodayfESq32+88WiuBEQ3rxyk5O8TpsbQbGJ3/crVsXYfvrVcJLUd/el+Vf0knSzyp7rXT0iqA/ro5sPX/lbzVENtE36WY3r1xPPC4ti91LO56nCQt+zUU7+N7/yjtW7QoIOcf+d5x1dnf926mbGYN2KNi308OQq4CQnZK1rxmpQMHTokAG0Y0JSo9957d+8/WvKzX7+vVP1cu3ZGMBdr1jxdlYXnJa/7LElcp/vmlBnBNxN+Jz+isCx2361nrF1br8ExWbgdvbzvC/1TdcL6te5tEnq4DQ2k84M1VRIy/dMUTyGmb7lrVRbWT7undisenlKzHelN+8SXa+ql9+X+9IDwHsawJORhmY/36ndOPpLM9XfeiLklPxcufLga9yOOOCS23rsZV/BZOvnPy1ttL7irk4Fn6MRrUkKgHT78R1XQEkAff/zmBgHX3UK9ceMzWh9pPqi6+VA3+Vsrcdd6L7Ec1vvTN88MxGGZev/Mub/S6pBw6rE/jp2WPHP2FaJr48ZATjqqPZvntMRt8o7GoeoFTmnkqp76rLOl6mxc9X5gXpVnfXaJL+prr712i+G6DN85+a77nhvxnRch5nI+Xn75AadrnPwmXVznb7W94K624952221FS0uL2HLLLY1MkG5SHTVqVNWG96RE97HQR7t06WOOgeuOlAwY8NXCLFY2yTzchpD66m/vjZEEktOpRlhXvScdExnphHXD92r7LM9Zk7mqT+NQZfO/+5NgrKo87XnVnwl7cVtqm0DJQE9tpz7rvrk8ZfQ9X3LJf8e+Z9+/c5mE1bmdOHGk9vtX9Zr5OYl4Jcnz9VV+OflfuQkJ2bMpRC622mqroCnNOT13dnammmpvbxdqHTZsWNA23LC0pOS22y6NLWL5AtcdKUn6MJPkefqdJYnrdAmsjw44QUsuZv/sqpg8bEMC/cGvHCUe2vVo+RhrQ79nsmzGc1U5KYbt2N6ryTrL83P7HROMN9Zm800/lorJU35/hQytmb8gRnBUG6Q38//sX1NPbac+54knnW3C9cyZo2PfM8l9/s5feOFeLfno7JytlevmrlllSWtZkjxfP4NP1cl/XvnXLwrumnXg8rQj3E4nC79Pute1syIl3bp1E927d0/qJ0XuLjETCAmgOjCS/IILTtG+0+k3myzpw+zfX3+Ckqd/tgldtiMwjfvigBhJIPlrd7TF5LIdXV+7nY5xo+X1P0yOtHnpmjsDhXA7EoSfbe/VZJ3l+dWhPwvGpWtDL3RynWzhuVck2gnrB0oZ7Ibbqvd54klnm/C+ZEn85NP37/yhh65NXeN0c+WLrEhrnPx2XFxf3fqLgrtmHTcRiY6OjlgzkmctujbZrQghTEiJZEDhq+sPgoCr65Pko0Zdrn2n0282WdIHmyTP0z/bhC7bEcgfH/TDGEkg+ayfjIjJZbsnv3t28H3IZ3kl4bQTzqu2o2f5Tl51Mvkuy1VN1lmen93zG8H41TbT/qmPVq7qyedA2YBskN6f/6WfMdmR9nXXPPGks024nj79jtj37Pt3/tJL92tJyfr1m/5Vim6ufJElrWVJ8nz9ll9Z/lduQkL2spSFCxfGftwi2+sIhnynu55//vlaW7mRkpkzZwq15guM+CkMAVTXJ8nffZf+mWm8jQ+yr399gHaxasQHmyWJ63QJzAvuGq8lDmO32ScmlzbkRyCf5TUspxOYWkW2s7nqEnYWGY1N1f/Lyf8bDFmVJz2T8pu33RezE9HfbNPv1ERkKT8OqqXn+hsiXJ977g9j37Pv3znNM/mozvf991+tlat6zfyctJYlyfP1tdYqwvf+tW2+KLhr+OBA3ieNeNy4cVoiQfpZSQnpb7755rGuYqSEfixTq5qclMR6CgRuSQAB9Kyzjo98tGPGjPD+g6UPULdYkaxnT/qdBHdxsEnm4TYSR2HZzDOGBeKwTL3XtSMdWVT98DPphJ9t72sl71rvaRyqDskqXV0xuapHz2+30Y804jZU3UDJQE9tl/TsEl/U16GHHhjDO75zt995EWJOY6A17h//mOx0jZPfj4srNyEhe1lKW1tbIvnIQkroF16T9GOkhAhHrdIspIROQwikEyaMrIKUntvb478U5/qjyrs/+lss5Kvs56CD9o08S3neV9uELtvRaQiVJ7/z0ypRkPiUOnSlEn6+46O/UxL+Jdm1y1bE9TR/Yj5mS6MT6SvhfVLSNpV3vPNeMF6pv+6NtyLPJF/3+pKYTOrTi8Ujbk4lMNM++eXE9tJO1mvemNLZ133nYfzr2vggU7/z+fPbGvKdN2IuKb59+9KPMzdtsui5MTEPPiEn//nrv31BcNcsA69UKslkIsPvlBAhMSYlJr/A2iykhMDau3evAKgSsI0BrbuTCfmB0jXsM91v2NBe/YDDennemyTvWjrtPx4R+27UNqSgyj58c3msHclUPfVZZ0vVMXnOmsx1+qoDy8aMj5CMJFLyyvHnBE11NsOyykf/jC8sq/c+Tzwl2R41angM70m6vsnV71z3oyzffJb+qL43Yo1Tv9E8nxf82xcEd806XiITq1atijVLIhkxxY9+1NOnz6bfj1Pfx05KTEmJyYmK2pkEEq6NISmNmHeT5O2rTr3JvVnbNwJn6LM8a0rxYh3PdHlJuAkJ2ctaevToETvl0J18JJGU6667LtY+PIYYKQm/5L/Hh1O8DyrfmPhKOEz8alZSUe+4y4Zx+JvvGlL8+eXPlEkWF372C4K7JvWVJpckJHxV9ZNICcn799/0v/NQ29AzSInDX/os/sfFv7iYJG9fdepN7s3avow4h8/8a0fzzKkuteYjW/S57QR3tR3p0KFDgxOPo446KpMJ+iXXtAJSAlKS6++Z+Eo4TPxqVlJR77ibJ5mUOZHCdz6cpqVY3nfchITsFa2AlICUgJQk/OsZE+KRplNvcm/W9nyLPRIn5rIZMOAurb/++e0Ed3U3erOeQEpASkBKQEoi/6KnXjKERNoMiRRj5MOpWbLl0OImJGSvaAWkBKQEpASkBKQE60Cu6wAfASgimXKX1hf/+3aCu7obvVlPICVYjHJdjNJ+vOH7u3pPHJq1vd8JqIhJEWNqLObMki2H1t//YzvBXTnGxWkDpASkBKQEJyU4KcE6kOs60FjSkDdp40zJ6ba4CQnZK1oBKcFilOti5PtpSJp/zXrSUe+4/U5AeSc42G8+/LhL62/8x38K7upu9GY9gZSAlICU4KQEJyVYB3JdB5qPaGQhh2bJlkNrybb/Kbgrx7g4bYCUYDHKdTFKO0nw/V29Jw7N2t7vBJQlWUG3HFjgTMnptrgJCdkrWgEpASkBKcFJCU5KsA7kug74TU7cpfWl/7md4K7uRm/WE0gJFqNcFyPfT0PS/GvWk456x+13AsLpB+KrYsAs2XJocRMSsle0AlICUgJSgpMSnJRgHch1HfCbyLhL629+YTvBXd2N3qwnkBIsRrkuRmknCb6/q/fEoVnb+52A1F0ynhFvs2TLofXWF7cT3JVjXJw2QEpASkBKcFKCkxKsA7muA34TF86UnG6Lm5CQvaIVkBIsRrkuRr6fhqT516wnHfWO2+8EhJMRxFfFgLu0/tYOXxDc1d3ozXoCKQEpASnBSQlOSrAO5LoO+E1kzJIth9Y/dvyC4K4c4+K0AVKCxSjXxSjtJMH3d/WeODRre78TkLpLxjPizZmS021xExKyV7QCUgJSAlKCkxKclGAdyHUd8Ju4uEvry3b6ouCu7kZv1hNICRajXBcj309D0vxr1pOOesftdwLCyQjiq2LALNlyaC1v/aLgrhzj4rQBUgJSAlKCkxKclGAdyHUd8JvIcKbkdFvchITsFa2AlGAxynUxSjtJ8P1dvej325YAACAASURBVCcOzdre7wSk7pLxjHi7S+vLe24vuKu70Zv1BFICUgJSgpMSnJRgHch1HfCbuJglWw4tbkJC9opWQEqwGGExAgaAAWAAGLDGgLu0/nbv7QV3dTd6s55ASqyBiGNbv3c/iC/iCwwAAyYYMEu2HFor+uwguCvHuDhtgJSAlGCHBAwAA8AAMGCNAc6UnG6Lm5CQvaIVkBJrIJowaOhgpwUMAAPAgN8YcJfW3+m7g+Cu7kZv1hNICUgJdkjAADAADAAD1hgwS7YcWu/usoPgrhzj4rQBUmINROx+/N79IL6ILzAADJhggDMlp9viJiRkr2gFpASkBDskYAAYAAaAAWsMuEvr7/b7kuCu7kZv1hNIiTUQTRg0dLDTAgaAAWDAbwyYJVsOLW5CQvaKVkBKQEqwQwIGgAFgABiwxoC7tP7ebl8S3NXd6M16AimxBiJ2P37vfhBfxBcYAAZMMGCWbDm0Vu6xo+CuHOPitAFSAlKCHRIwAAwAA8CANQY4U3K6LW5CQvaKVkBKrIFowqChg50WMAAMAAN+Y8BdWl+1146Cu7obvVlPICUgJdghAQPAADAADFhjwCzZcmit3nsnwV1txjVixAjR0tJSrccff7yxmSuvvLLaTtoINwYpsQYidj9+734QX8QXGAAGTDAQTqn53nMTErKXtcydOzcgFYsWLQqarlmzJni+8cYba5rSkZClS5dG2oGUgJRghwQMAAPAADBgjYFITs31YfW+OwnumnXARCy22WabSLPDDjssICYRoeaB2tYqtTVqWcj03oR1Qge7E2AAGAAGgIFmwUCmJFiXMjchIXtZSxKxSJJL+/R+s802k4+JV5ASa3bcLB8MxonFHRgABoCB/DCQmF/ZX7y/306CuxJZUGvSwNvb2xNPRExIifq7KNRm9uzZke5ASkBKcGwLDAADwAAwYI2BSE7N9eGD/XcW3FUlJGnkYuzYsXWRErLdrVu36hxtv/32MXsgJdZAxM4jv50H5hZzCwwAA82CgWqOzf2Gm5CQvSxl8uTJMRIh26eRGdKR5Efqy6sqBykBKcEOCRgABoABYMAaAzK95n9dc+DOgrtmHXUS+UiSS/sq+UiSg5RYA7FZWDzGiR0nMAAMAAP5YUCm1/yvaw5qFdw166iJXLS1tUWaLV++PPEERSputdVWWh2VrICUgJRghwQMAAPAADBgjQGZdvO/chMSspe1nH766TFyQcSib9++EVMkUwvJTj311Kr46aefDmy9/fbbVVm8VfVVHjeNYesHHLCPaG1tDWp+bLkxvqX589Zbk6t+n3POiaVadK688qdV3+fNu69Uvkus77bbrqXyG995qyhbzIvxneeRK/U2P+zfKrirvqd0qTzdCF/VFjpS8qUvfSkgIeF2gwcPjjT1npTQAr3nnv2Cxfnxx28OElVnJ/0TpOKRCM4xXXvtzwJf339/euCrTFScfRTVVthXGfPjjvuv0sR81Kjhga+DBh1cGrzrvvMyx7yo3ybnuMLfeUfHrOomhLMPM1uRnJrrAzchIXv1FPWf89ZjS7b1mpQQaPfee/dIMvrhD48JwGsGtuYlLuT72rUzIr6TbPDg/hGZb/Nw8cWnaeNLvvvmq+qPDu8k8913XczxneM7V7+P/J5lOs3/uvaQnoK75j/qbD14T0qIQatg9H2RvvHGC7WJqAwJinzcddevlC7mhHHyXcX70KFDtFhQv4lmfi57zNXYlSXmFHfVd5KdcMKQmFzV433OlnTr0V43sKfgrvWMJ4+23pMSHfgIuG1tv3YMXHenLuRf0gerk+vmqFll5N+ECSNjsSW5zzH/+98naWO+bNkUrbxZ46sbN2IeXVvKEnPdWkYynVyHGz5ZHqlZb5ObkJC9opUYKaG/TU9/cY1q9+7dteMN/0U2rUKiMPrx8IFCbzcJnCSnI9+8+2+U/aQP88AD923AB6uPTV5zQ75Tglbt+x7zhx++PjG25Ls6Hz49I+bxb6wMMdf52Jg1LjHhsb9Y/7VegruyD7JOgxFSMmHChICIEBkhckJXHTExISXh366V964XQh1oaQwkHz78R94u1OSfzvd99tlDK3cdlzz7I78XLBgfi63vMZe/0KubWx0WdHrNKkPMQUokdhuzxtWZhTM0Xz+ol+CuGbp3ohohJToCQjKVhKjPupHOnDlTqFUCx9U1aTEm+Qsv3BtLXK7GlXc/ffv20ZIP8jtpTvIekyv75B/9To3an+8xr1TmaGM7e/YYrVydn2Z+RsyjpKQsMdetZSTTyfPFty4D5iPjJiRkr2ilJimhAe+1114BMaG/2kbFhJToHY1+PPkCZdOJCO0gw/28884TDQCtW78XLnxY62NjPli3vif56H6hcus3YZx8VPHes2dPLRbC30Sz3+tiXobvXMZcjV9ZYy7n4557roys+er88D/rs10e0g2Dewnumsc467FpREqoAyIikozIa/aO3S7Uffp8ObYg6xYwfpC69VM3fvLzvPNOinycJJs8OUrSdG2bWab7Jb8HHvh1DAfN7GPS2HXY1smS2jerXBfzMvhN8SI/8Z1vWm8b951nz4S2LTq+3ltwV9ux5NUuQkqIbKxduzaxryOPPDL4HZNmISXyo5ULlLw26+KbddzSX3k97bRvR0hKVnvNoi/9DV/VfyrbLL5kHWfYZ3mf1UYz6ktfw1fEvPGbozyxdMstlwSkLBzzxqxxiSmT/QU3ISF7RSsRUjJgwADtL7aGB02EpJlICX0U559/cgBe+Zdd8/xQimZbfrAPPXRtKQiJnP8ZM0ZVY75hQ3upfJf/AuG0075TKr/L/J2XNebyO6d1rnHfeThD5nu/8YjegrvmO+Ls1iOkJHvzrC38Zu4yIeKKOAMDwAAwUBYMZM2D9vrchITsFa2AlHj+/8DBwliWhRF+AuvAQGMw4C6tdx71ZcFd3Y3erCeQEpCSUh3xN2bRQrLAvAMD/mLALNlyaHX+15cFd+UYF6cNkBKQEpASYAAYAAaAAWsMcKbkdFvchITsFa2AlFgDETsff3c+iC1iCwwAA6YYcJfWO4f0EdzV3ejNegIpASnBDgkYAAaAAWDAGgNmyZZDq/NbfQR35RgXpw2QEmsgmrJo6GHHBQwAA8CAvxjgTMnptrgJCdkrWgEpASnBDgkYAAaAAWDAGgPu0nrnsX0Fd3U3erOeQEqsgYidj787H8QWsQUGgAFTDJglWw4tbkJC9opWQEpASrBDAgaAAWAAGLDGgLu03vntvoK7uhu9WU8gJdZANGXR0MOOCxgABoABfzFglmw5tDq/+xXBXTnGxWkDpASkBDskYAAYAAaAAWsMcKbkdFvchITsFa2AlFgDETsff3c+iC1iCwwAA6YYcJfWO7+/i+Cu7kZv1hNICUgJdkjAADAADAAD1hgwS7YcWp3H7yK4K8e4OG2AlFgD0ZRFQw87LmAAGAAG/MUAZ0pOt8VNSMhe0QpICUgJdkjAADAADAAD1hhwl9Y7h+4quKu70Zv1BFJiDUTsfPzd+SC2iC0wAAyYYsAs2XJocRMSsle0AlICUoIdEjAADAADwIA1Btyl9c4TdxXc1d3ozXoCKbEGoimLhh52XMAAMAAM+IsBs2TLodV5Uj/BXTnGxWkDpASkBDskYAAYAAaAAWsMcKbkdFvchITsFa2AlFgDETsff3c+iC1iCwwAA6YYcJfWO0/uJ7iru9Gb9QRSAlKCHRIwAAwAA8CANQbMki2HVuepuwnuyjEuThsgJdZANGXR0MOOCxgABoABfzHAmZLTbXETErJXtAJSAlKCHRIwAAwAA8CANQbcpfXO03cX3NV29Ntuu61oaWkRW265pZGJ119/PdCnNuE6atSoSHuQEmsgYufj784Hsa0ntk9131mUtT69xU6ijPWXLa2irDWSUXN+4CYkZM+mSFIxcODAKsGoZQekBGQDOx9goCEYKCshIb/LSEjI57ISEvLbZen8n90Fd806fklIwu10svB7upekRJWrzzgpQeJqSOKqZyeOtsU+yQEpKd9pCUiJmlrzee48cw/BXbOOlAjItGnTIs3WrVsXnJhEhMoDSAnIBsgGMNAQDICUgJSUiaQouTfXR25CQvaylA0bNiSSDyIraUWSktbW1sAGXXUl3YquRV2yYu/wsANHfICB+jEAUgJSAlJSV6JMbNx11h6Cu8ofvYSvSQMYN25cXaRk8ODBYuHChWLx4sVi5513Dmxdf/31ke5ASrCbbshuGsm//uRf1DkEKQEpASmJ5Fm2h66f7Cm468yZM4VakwZ89913W5MSnc0+ffrE7IGUgJSAlAADrBgAKQEpASnRpeD6ZdyEhOxlKUuXLo2RCNm+1o9vpJ56pXbh31EBKUFCYk1IRd29Y1zuTmZASkBKQErU1Mvz3HX2noK7Zh0ZkYhVq1bFmtVDSubNm1e1B1ICUgJSAgywYgCkBKQEpKSaY1lvuAkJ2ctaiHxsscUWkWa9evVKPEGJKCoP+PENkg9r8sHpg7vTh2aaa5ASkBKQEiX7Mj12nbuX4K42QyNiQrWzszMgKLpTElUm26jXSqUSGQJOSkBUQFSAAVYMgJSAlICURPIs20PXeXsL7mozuFmzZgWkRBKMMWPGxMyopIQIzB577FFtd+CBB8bakACkBAmJNSE1044eY83npAekBKQEpESbb+sWchMSsle0AlICUgJSAgywYgCkBKQEpCSfVN91wd6Cu+YzUnurICVISKwJCacP+Zw+NNO8gpSAlICU2CfltJZdF+4juGtaf414B1ICUgJSAgywYgCkBKQEpCSfdM5NSMhe0QpICRISa0Jqph09xprPqQ5ICUgJSEk+qb7r4n0Ed81npPZWQUpASkBKgAFWDICUgJSAlNgn5bSWXT/fV3DXtP4a8Q6kBAmJNSHh9CGf04dmmleQEpASkJJ80jk3ISF7RSsgJSAlICXAACsGQEpASkBK8kn1XZftK7hrPiO1twpSgoTEmpCaaUePseZzqgNSAlICUmKflNNachMSsle0AlICUgJSAgywYgCkBKQEpCSfVN91+X6Cu+YzUnurICVISKwJCacP+Zw+NNO8gpSAlICU2CfltJZdv9hPcNe0/hrxrhSk5IAD9hGtra1BbabFvd6xvvXW5Krf55xzYqnIx5VX/rTq+7x595XKd4n13XbbtSF+c5GS9UuXVddEE5tVZc3NqyeeJ6QNzeuqSOrYXp/eon5CMnuHA6rjWX73eGFis9pAc6Nr/87Df6xqfvDcS2LGp3ob9aOzRTIuEtJ+1e3VcY3a61vGdueMvKva7r2Ff09st/zFv1T1Xhz9UKJeFn+qBh3ccBMSsle04j0poQV6zz37BYvz44/fHCSqzs7ZDVms6yUZWdpfe+3PAl/ff3964KtMVFlsNKtu2FcZ8+OO+6/SxHzUqOGBr4MGHdwQvNsm9HA7Wig73lsVEImXjzkjWDef2rxnlViEdeX9c/sdI9T6+s+v39S2+87VtqoOPcsibdlek5K2qfyNK24KhtK+Tb+AJMhx1Wo/d/9jhFqT2pK84+13qyTk7XETxF9/eF71uVZfuvdZkniSrhwvvf/DN88MHhc/OasmcQi3o7Yda9cFois26x1pG9a7bpuP/2hY0nhM5dKui2vXL78quKuLcWfpw2tSEk5OMsHqZPKdT1fy89Zbfx5JxCS7885hEZlPPpMvL754f5CIw349//w9MVn4vS/3OmzrZHn7a5vQZTu5gMlnusoSlpncm7YjvSXX3VklLia2dTq6hJ1FRuN4/X+vihAEkv3t3BERmYlNavfKN0+LtNu4cjWJIzITW7V0TBN4kt6de3wzGFf4/eh9/29MFn5P90k6QUMhqqRkwwdrtLZIqNrM+iz7cnHtunJ/wV1djDtLH96Tko6OWbEkTAt13gtzI+3feOOF2iTciATleh7Ix113/Uosvr7HnOaZfFTxPnToEC0W8oyLLllnkdECNq1H7xhBIHkWO6RLZdWfn63Zzsa2biy1knfa+8WXXheMV9UJhBmJROf7HyTaUu1zPGdN5Ko+DXbDmg9jBIHkqm74ecIJ5wV+hmV0L4uUq89huby3vUrbLq7chITsFa14T0p0iy8t3u3to2OJS6fbjLJevXpqExH57XtyJv9uv/2yWGx9j/mGDbO0sZ03b5xWnieudck6i4wWSZ0+yececpz2nU7/mZ5fC9Zb3buwbN0bbxnphdsk3deT4CudncE4VBuBMCMp0bX5++W/qdp/7/Fpwf37c+axnJrYJnTZjgbzp3OujBEQko/tf3xMLtvRlcoDR/93RIdk4d9JuWXnQYFeuJ1OFn5veh8YdvSfrqv2F9zV0dCNu4mRkm222UZ069ZNdO/evWqE7kmmyqsKxjdu/2VCUgIm+bBh9HNqt+Nx1R/5p/N9v/321MpdjctFP+T3okWPxGLre8wnTboxMbY6LOQZi6SEbSqn5USnS/KlN47RvkvS7+roqKlPdl/+1hk19XR9qDKVUGR5lsuo2mbDshXBK1We9kwNnvk/+0QIhzw9oXdvXHlz8MutG1dvOlF5ZcipEd0027p3pgk8SY/GdEvrYRFiQbpUnr1hTEyu2ln9EbEMGiScrlzzL7vL18H1vUVv1LSr9qN7jhjN+YGbkJC9opUIKdl1110DMnLGGWeInj17VokIkRFZiKD06NFDPiZeZ86cKdSa50Kos520GJN8+PAfxRKXzkYzysg/ne/77LOHVt6MPiaNmfxesGB8LLa+x1z+Qq9uXnRY0OlxydREnfWZFhVdG5IvGTla+07Vl7+8qsrVZ/pl2qT+VF2TZ13CNpUFA9GciNAvpVKp144kJX895YKIraR+TfsjPV2yziKjMdza+/CYHZLP+c3omDxsm3Q6OzqqOtMu2XQidGuvwVXZr3r0Cdycf+/EquzDFe8FsrAtm/vAiKP/dP36AMFdHQ3duJsIKSHC8cEHm5gzWZCnI6q1MElR38nnlpYWoVauRc/UTtJiTPIJE0bGEpep3aLrkX8635PkRfcny/jIxwcfvDYWW5L7HPNly/6ojfmSJY9p5VnmNKuuSfJO06E1RPee5PO/9xPtO1VfrkOqXH021VPbJT1nSeSqrhyLqVzVk89k57Uf/ixCPOjduxOnBl1IPXldPuZBrVy+N7naJPNwGxoA/X5IWEb3VMZ/56cxudRbMuO5QEc+y2sgDJ2Y0HPnhg0xOyS/9l/3ismlHZOr7MvFtevaAwR3dTHuLH3ESEm48WOPPRb5MY58F/7RjpSZXd3+uIQSkfwnseGFleThZ9/u77prhDYRkd+++07+9e7dKxZf3/0mDJOPKt6HDBnkPOZJCdtUTmvJn7faLUY+SJ7FxpqXXqupTzZn/Md+NfVM+zVJ4Ek6i35M/zIufiISCDVyrZ1PbErkunf0t0h09lfcP1Er19lIkpkk7zQdGkDXxo0xckDyWu10OoFDobb0/Oipl8Rskfy5m+6OydP6VN/JvlxcuQkJ2StaSSUls2bNampS0qfPl2MLMi3cZUlQ5513UiQ5k9+TJ98ckflGyJYtmxKL7wMP/Dom881vSUpUbDcC76YJPEmva/2GYJ0Mv5cLpyoLP8v7BT/5Ray9fBe+6myG39vcJyVtUzmNafldf4iccpDslWP/pypb9/qSYOg6m9In3TuSUdm46v2qLSkjeVIbE7maqLM+j/yPTckx3G7iif8bjDcsI8HK15dUScRfH3kipkP6ssi26nNY/stuPav2pDzLVdp2ce267kDBXV2MO0sfqaQkyZDJj2/0bd2elIQXavqDaRdffFopkhP5PWXKbwNfp0y5RaxePS24VxOWj4k5HPMVK56oxvyXv/yx12QsHPOTTz42iHmfPr0bgnebZK62kesH/cG0N2+jv8gbPyXRycgOlUpXV83TD9L7y0kX1NRTx5b2bJLA03Re+dbpwfjp74u0/9tuwT39J9ymFil5tuchEf1wW7qnsnLqTPFi/+9U7VNfql6W5yxJPElXDub6z+0nnr91U8yfuebOCGEIxh4iJWRLltv6HBH8KEY+098wkX2F/1ja9Z/dN/iRkNSTOrZXacfFtev6AwV3dTHuLH1ESAmRjauvvrpm+2b58Y1Muueff3KwOMu/7CrlZbjKnfJDD8V/z8Jn/2fMGFWN+YYN7d4TknAsDzxw38D3006jpON+I5CWtLO8+8fv/xCsRfIvu5q2pV9yraX7TO/Dgr/+Wksv6/ssiTxNVy7Cr514rjFZmLvfN4O/6ppmV76jfxJc2bhRvH7R1cb2ZVvd1Tahq+3uGTg0cH3te6sE/XKq+j7pWZ6qUOO0Px9P/5JHlid+dpWx/aR+Se6ycBMSsle0EiEl+Q/O/QLZiEUZfSLOZcZA1kTuk74uYZdBlpa0fX+Xf978uIeu3xwkuOvH1otxB1LSgJ1kmRMWfPefsPlEMrL6UgYCovPRd+KR5p/LVM5NSMhe0QpICUhJQ474QU78JSdZE7lP+rqEXQZZWtL2/Z3LpN418iDBXV2O36QvkBKQEpASYIAVAz6RjKy+lIGA6Hz0nXik+WeSaLl0um44WHBXrrFx2QEpQUJiTUg4AfH3BMQ0tlkTuU/6uoRdBlla0vb9HVcyNrHDTUjIXtEKSAlICUgJMMCKAZ9IRlZfykBAdD76TjzS/HOZ1LtuOlhwV5fjN+kLpAQJiTUhme6moefviUrWRO6Tvi5hl0GWlrR9f2eSaLl0um7uL7gr19i47ICUgJSAlAADrBjwiWRk9aUMBETno+/EI80/rmRsYoebkJC9ohWQEiQk1oSEExB/T0BMY5s1kfukr0vYZZClJW3f37lM6l2/7S+4q8vxm/QFUgJSAlICDLBiwCeSkdWXMhAQnY++E480/0wSLZcONyEhe0UrICVISKwJyXQ3DT1/T1SyJnKf9HUJuwyytKTt+zuXSb3rlgGCu7ocv0lfICUgJSAlwAArBnwiGVl9KQMB0fnoO/FI888k0XLpdN06QHBX27Ftu+22oqWlRWy55ZZWJnbeeeegvdoYpAQJiTUh4QTE3xMQ09hmTeQ+6esSdhlkaUnb93dqUs3zmZuQkD2bQmRkq622CprS//SVnjs7O41NXXHFFUEbaqeWuETVYH3Ggm26sEMPWGlWDPhEMrL6UgYCovPRd+KR5h9riqxhrOu2QwR3rdFl7DURiW222SYiP+yww7SnHhGl0IMkI/IaeiVASnBSgpMSYIAVA1kTuU/6uoRdBlla0vb9XTih5n3fdfshgrtmHTMRiY6OjlgzHcGIKQkhPvvZz4ohQ4YEr3RtQEqQkFgTUrPu7jFuvpMpn0hGVl/KQEB0PvpOPNL80yXevGTchITsZSkLFy5MPBHREQzV9plnnhlpr2sDUgJSAlICDLBiIGsi90lfl7DLIEtL2r6/UxNvns9ddwwU3JWIgVqTfBg7dmyEVIT1dAQj/J7uVR31OdBRG+X7zLcbw84WcwkMFBMDPpGMrL6UgYDofPSdeKT5l2/OjFrvunOg4K7RHtKf2traYsRCttARDPmOrp/61KfEwQdH/weAujY4KcEumXWXDKJQTKLgMi5ZE7lP+rqEXQZZWtL2/V048eZ9z01IyF6WUqlUrEkJEZD29vZIDcvkOEBKQEpASoABVgz4RDKy+lIGAqLz0XfikeafTKYurl2jDhXcNeu4iUisWrUq1kx36hFWovdpVeqClCAhsSYklzty9FXMU5msidwnfV3CLoMsLWn7/k4mUxdXbkJC9rKWHj16xE5LJNkI26pFUkhXpwNSAlICUgIMsGLAJ5KR1ZcyEBCdj74TjzT/wok47/vK7w8V3NVmzJKEhK+qHR3hMNEBKUFCYk1IOL0o5umFy7hkTeQ+6esSdhlkaUnb93dqos3zuTL6a4K72o536NChwUnHUUcdZWtCXHrppbG2ICUgJSAlwAArBnwiGVl9KQMB0fnoO/FI8y+WVXMUcBMSsle0AlKChMSakFzuyNEXTmWAAWCg8Rhwl9Yrd31NcFd3ozfrCaQEpASkBBgABoABYMAaA2bJlkOrMnaQ4K4c4+K0AVJiDUTsUBq/Q0EMEANgABhoNAY4U3K6LW5CQvaKVkBKQEqwQwIGgAFgABiwxoC7tF65e5Dgru5Gb9YTSIk1EBvNztE/dojAADAADDQeA2bJlkOLm5CQvaIVkBKQEuyQgAFgABgABqwx4C6tV+45THBXd6M36wmkxBqI2KE0foeCGCAGwAAw0GgMmCVbDq3KvYcJ7soxLk4bICUgJdghAQPAADAADFhjgDMlp9viJiRkr2gFpMQaiI1m5+gfO0RgABgABhqPAXdpvXLfYMFd3Y3erCeQEpAS7JCAAWAAGAAGrDFglmw5tCrjBgvuyjEuThsgJdZAxA6l8TsUxAAxAAaAgUZjgDMlp9viJiRkr2gFpASkBDskYAAYAAaAAWsMuEvrlQcOF9zV3ejNegIpsQZio9k5+scOERgABoCBxmPALNlyaHETErJXtAJSAlKCHRIwAAwAA8CANQbcpfVK2+GCu7obvVlPICXWQMQOpfE7FMQAMQAGgIFGY8As2XJoVf7wdcFdOcbFaQOkBKQEOyRgABgABoABawxwpuR0W9yEhOwVrYCUWAOx0ewc/WOHCAwAA8BA4zHgLq1XHvy64K7uRm/WE0gJSAl2SMAAMAAMAAPWGDBLthxalYeOENyVY1ycNkBKrIGIHUrjdyiIAWIADAADjcYAZ0pOt8VNSMhe0QpICUgJdkjAADAADAAD1hhwl9Yr448Q3NXd6M16AimxBmKj2Tn6xw4RGAAGgIHGY8As2XJocRMSsle0AlICUoIdEjAADAADwIA1Btyl9cojRwru6m70Zj2VhpTcdNNFYt68+0r34U2adKO4/fbLSuc37Z5GjRpeypgvWDA+iHlHx6zSxR0xL2fMH3zw2gZi3SzZcmhVJhwluCvHuDhteE9KWltbjPKoNQAAIABJREFUBdWhQ4cEV7pv/HFf/keunZ2zA3/79Oktjjnm8OB+wID9S+G7jPnRR3+tGvPly6d477uMOfkvY14WvCPm5Yv5yScfG3zf9J3367dLA9c4zpScboubkJC9ohWvSYlcqMIkRCcLv/flnvy89dafRxIxye68c1hE5ou/0o8XX7w/WJzkM12ff/6emCz83pd7HbZ1Ml/8lX7oYl4Gv8l/8hPf+aZNXuO+c3dpvTLxaMFd3Y3erCfvScns2WMiSXj9+pneJ6g5c8ZqfSzDQp3kI8llEvP1Sj6qeN9ll75aLPg0B7qYl+E7l6REjWVZYy7n4+abL3b8rZslWw6tyqT/EtyVY1ycNoxJSffu3Rn6zf/HFuEPNCkRkby9fbRj4LrzvVevntpEpFu8w/Plwz35qPsdGt9jvmHDLG3M580bp5X7EGvpA2IeXVvKEnOKu8SAvJJMJ5fv87kypEZDE9yEhOwVrURIybBhw0RSJVISfmfnSPTjyQcgH/eRBE6SDxt2RgzQeY/Hlf2kD3O//fZswAf7cTxc+E++L1r0SCy2vsecfqGZfNTNcZJcp9uMMsQ8/o2VIeY6HxuzxtllQ5tWlUeHCO5qM44820RICRGPpNqtW7fIO7tBxT+ePBdBHWipP5Jfcsnp2gU8z/G4sk3+6Xw/4IB9tHJX43LRD/m9ePHEWGx9j/kjj/wmMbY6LLiIhas+EPP4ulqGmOt8bMwaZ5cNbVpxExKyV7QSIyXbbbeddoxZf3zT0tIi1OpqkZL96EBL70g+YcLIWOKS7Zr9Sv7pfE+SN7u/4fGTj7p/Hkhyn2O+bNkftTFfsuQxrTw8Z81+j5hHSUlZYk5xV7FLMp1c1eN91qbMXISVx78puGsuA63DaISUkJ3jjjtO0KnIeeedFzGblZREGlcfoh8PLzDitgmc778/XQvcvPtupP277hqh/TAb88HG45Ln3JCPvXv3Kl3MaU51eB8yZJAWC3nGwLXtssdcne+yxJzirvpOsh/96LiYXNXjfa4muNxvKpO/Jbhr7oPO2EGMlFD7GTNmBD+q2XrrravmmpWU0N/pCANw8OD+3i/S5C99nG+9NTniO8mOP/4bEVl4bny4Hznyglh8K5U5MZkPvqo+UHxVvJOMqqrr07Mu5vjO8Z27w3g1TeZ+w01IyF7RipaUyEEecsghwanJSSedFJAUKbe/ut01Eyjlokx/WOrii0/zfoGWH+KUKb8NfJ0y5RaxevW06jzI9z5fZcxXrHiiGvNf/vLHXidmiqeMOf1RKYo5ERTfCYnEMWJe7pg/88yYBq5x9hkxa8vKH48V3DXrGML6w4cPFx0dHWFRzftp06YJavf4449rdVNJCbVoa2ur/oKr1kImoXtSMnfufVWw0sI1fvz13icnuVAPGXJYxHcpL8NVJim67r//3qWJuYr3MsRa+hiOOb5z92utjIPLazjmjfvOMyXBupQrU/6v4K42A1J/X5Sea5Vvf/vbsd8z1bWrbalWT5nel+NDcflRoi9gChgABoCBRmIgUxKsS5mbkJC9rGXgwIEBuQi3I3IR/nWP8Lu0+z322CNuK60B/7tGAgd9Y+ECBoABYAAY4MYAf6ZMslh54tuCuyb1lSQnAkI/ggmXdevWxchF+H3avXpagpMS6/9dNTewYQ+LJTAADAADzYeBtJTL+64y9buCu2YdoUoiZPskuXyvu95yyy0xMgNSAlJSmt+3aL7FDgkKMQMGio8BXbrNR8ZNSMgekQm1Jo1+0qRJMRIhdU1JSa2+QEpASkBKgAFgABgABqwxINNy/tfKk98T3HXmzJlCrUme3H333XWTErK9Zs0a8atf/SqwtdNOO0W6AymxBiJ2MMXfwSBGiBEwAAzkjYFITs31gZuQkL0s5dlnn2UhJbLPVatWBfY+/PBDKRIgJSAl2CEBA8AAMAAMWGOgmk9zv6k89X3BXbMOOunHNEnyWvap3aGHHlpVAymxBmLe7Bv2scMDBoABYKD4GKjm09xvKtOOF9w166CJRBx77LGRZjfccEPiCUpEUfNA9q6++urqG5ASkBLskIABYAAYAAasMVDNp7nfcBMSspe1rFixIiAg99xzT9D0+eefD56nTp0aMaWenKjPpEwyVQ5SYg1E7GCKv4NBjBAjYAAYyBsDkVyc60PlzycI7moz4FmzZlUJBZGKMWPGxMyoZOPss8+OtKH3l156abxdTJKrIG9wwD4WIGAAGAAGgAGXGMg1aUaMV54eKrhrpIMCPOCkBCclOLYFBoABYAAYsMaAu0zOTUjIXtEKSIk1EF0ycfSFnR8wAAwAA8XEgLu0XplxouCu7kZv1hNICUgJdkjAADAADAAD1hgwS7YcWtyEhOwVrYCUWAMRu5Zi7loQF8QFGAAGXGLAXVqvzPyh4K7uRm/WE0gJSAl2SMAAMAAMAAPWGDBLthxalVknCe7KMS5OGyAl1kB0ycTRF3Z+wAAwAAwUEwOcKTndFjchIXtFKyAlICXYIQEDwAAwAAxYY8BdWq88c4rgru5Gb9YTSIk1ELFrKeauBXFBXIABYMAlBsySLYdWZfapgrtyjIvTBkgJSAl2SMAAMAAMAAPWGOBMyem2uAkJ2StaASmxBqJLJo6+sPMDBoABYKCYGHCX1itzThPc1d3ozXoCKQEpwQ4JGAAGgAFgwBoDZsmWQ4ubkJC9ohWQEmsgYtdSzF0L4oK4AAPAgEsMuEvrlWdPF9zV3ejNegIpASnBDgkYAAaAAWDAGgNmyZZDq/L8/wjuyjEuThsgJdZAdMnE0Rd2fsAAMAAMFBMDnCk53RY3ISF7RSsgJSAl2CEBA8AAMAAMWGPAXVqvvHCG4K7uRm/WE0iJNRCxaynmrgVxQVyAAWDAJQbMki2HVmXumYK7coyL0wZICUgJdkjAADAADAAD1hjgTMnptrgJCdkrWgEpsQaiSyaOvrDzAwaAAWCgmBhwl9Yr884S3NXd6M16AikBKcEOCRgABoABYMAaA2bJlkOLm5CQvaIVkBJrIGLXUsxdC+KCuAADwIBLDLhL65WXfiy4q7vRm/UEUgJSgh0SMAAMAAPAgDUGzJIth1bl5Z8I7soxLk4bICXWQHTJxNEXdn7AADAADBQTA5wpOd0WNyEhe0UrICUgJdghAQPAADAADFhjwF1ar8w/W3BXd6M36wmkxBqI2LUUc9eCuCAuwAAw4BIDZsmWQ6vyyjmCu3KMi9MGSAlICXZIwAAwAAwAA9YY4EzJ6ba4CQnZK1oBKbEGoksmjr6w8wMGgAFgoJgYcJfWK6+eK7iru9Gb9QRSAlKCHRIwAAwAA8CANQbMki2HVuW18wR35RgXpw2QEmsgYtdSzF0L4oK4AAPAgEsMcKbkdFvchITsFa2AlICUYIcEDAADwAAwYI0Bd2m98tr5gru6G71ZTyAl1kB0ycTRF3Z+wAAwAAwUEwNmyZZDi5uQkL2iFZASkBLskIABYAAYAAasMeAurVf+eoHgru5Gb9YTSIk1ELFrKeauBXFBXIABYMAlBsySLYdWZcGFgrtyjIvTBkgJSAl2SMAAMAAMAAPWGOBMyem2uAkJ2StaASmxBqJLJo6+sPMDBoABYKCYGHCX1isLLhLc1Xb02267rWhpaRFbbrmlsYkTTjghaEPtqOqKXqrTZJHhoyrmR4W4IC7AADAADNhhgCU5GhmpLLxYcFejjhUlSSoGDhxYJRmKSuxRtqHrV7/61cR2pSElN910kZg3777SHVFOmnSjuP32y0rnNy0uo0YNL2XMFywYH8S8o2NW6eKOmJcz5g8+eG0DsR7Lv7kJuAkJ2ctaJLkIt9PJwu+T7rfffvvYiYn3pKS1tVVQHTp0SHClezs23Fy7iM7O2YG/ffr0Fsccc3hwP2DA/qXwXcb86KO/Vo358uVTvPddxpz8lzEvC94R8/LF/OSTjw2+b/rO+/XbpYFrXFLK5ZdXFv1ccNesoyQC0tHREWtG8qxl3bp15SIlkoiESQgtXnvvvbv3CYr87NfvK1U/166dEXy0a9Y8XZWF58Wne/J94cKHq34eccQhge8++ajzRSbm8Lsy4V31m3wPy3y8Jx/D3zn5SDJ85y43kVlTsb0+NyEhe1nKhg0bYiRCtrchJXvuuWfMXnZqI0dgdXUJlE0f5+zZYyIL0/r1M71PUHPmjNX6SIuV7wt1ko+++y2TkYr3XXbpW8qYl+E7lzFXyVZZYy7n4+ab6UcSLnONVTK0alRZdKngrvJHL+Fr0uDGjRsXIxFS14aUUJvVq1dLE8HVe1KiAyclqPb20Y6B6+4j6dWrpzYRJSVs3Rw1q4x81P0Oje8x37Bhljbm8+aN08qbNb66cSPm0bWlLDGnuKt4IJlOrurxPkdyaq4Plb9dJrhrlgG3tbWxkJLFixcHdn7wgx/EujcmJddcc42YMGFCzEA2QfTj4QVG3HYSOEl+1VXnxACd93hc2U/6MOmYN2lOXI0t737Iv5deuj8WW99j/tRTv0uMLWIeXxvyxqEL+2WPuQ7XjVnjsmXBerS5CQnZy1KWLl3KQkrkqYyu7wgp6datm3jmmWcieiTr3r17pEYUMj24XRx0oKXFguSXXHJ6LHG5WEhc9EH+6Xw/4IB9tHIXY3LVB/m9ePHEWGx9j/kjj/wmMbY6LLiKh4t+EPP4ulqGmOt8bMwalykJ1qVc+dvlgrtmHRARilWrVsWamfz4ZuXKlQGpOeigg2LtpSCVlJx22mmCSMmiRYukfvBMJKVWkUwofHWxQIX70IGW3pN81KjLY4kr3LaZ78k/ne9J8mb2VR07+Th9+h2x2JLc55jT6ZAu5mX43QrEPEpKyhJzHd5JppOr6wTvc61syPe+8vpwwV2zjo5y+hZbbBFp1qtXr8QTlLCi5ANhmXqfSkqSyEeSXDUef45+PLzAiNtOAmeSPO/xuLJ/zjknaj/Mxnyw8bjkOQ/k45FHDtSSkjz7LYJtHa6HDTtDi4UijJdrDIh59BsrS8x1eCfZQQftG/v+ubCmtxPPdHlJuAkJ2bMpklx0dnYGBIWe1aLKZBvdNdw2Ykn98U0S+SD5vHnzwnYM76Mfjz7AfDoEUPo7HeF+Bg/u7/0iTf6S72+9NTniO8mOP/4bEVl4bny4Hznyglh8K5U5MZkPvqo+6PBOMqqqrk/PupjjO8d37g7jhumPQa2y+BeCu9oOa+jQocHpyFFHHWVrQtvOmpQsWbJEazBdyEc4TAD37rtTgwV5woSR1UWZFmif/+WNnBf6WyzhZES7h/Cz1PPxSn727dsnEvMy+K7GfP78tiDmZcA7xVf9zssccx+/a9Wn4nzn6VmP8y03ISF7RSsxUkKnIOH64YcfxsZMJyp2xS0pIRDPnXtfsDATgKmOH399NVmpIPfteciQwyK+++Zfmj8y3nTdf/+9SxNzFe9pc+Tbu3DM8Z27X2sbgadwzBv3ndtlQ5tWlcUjBHe1GUeebSKkxKSjxx57THzjG3Q0aFPK8aE04uNEn8AWMAAMAAONwIBNLrRrU/n7FYK72o0kv1aZSUl9Q2kEYNAnFipgABgABoCBvDBQX1bM0pqbkJC9ohWQEqd/jjivjwJ2seACA8AAMNAYDLhL65U3rhTc1d3ozXoCKQEpKc3vWzRmwUKiwLwDA35jwCzZcmhV3viV4K4c4+K0AVICUgJSAgwAA8AAMGCNAc6UnG6Lm5CQvaIVkBJrIGL34/fuB/FFfIEBYMAEA+7SemXJ1YK7uhu9WU8gJSAl2CEBA8AAMAAMWGPALNlyaHETErJXtAJSYg1EEwYNHey0gAFgABjwGwMO0/rSXwvBXR0O36QrkBKQEuyQgAFgABgABqwxYJJqmXSWXiMEd2UaGpcZkBJrIGL34/fuB/FFfIEBYMAEA1zp2MAONyEhewUrICUgJdghAQPAADAADFhjwGFWf/M6Ibirw+GbdAVSYg1EEwYNHey0gAFgABjwGwMmqZZJ583rheCuTEPjMgNSAlKCHRIwAAwAA8CANQa40rGBHW5CQvYKVkBKrIGI3Y/fux/EF/EFBoABEww4zOpv/UYI7upw+CZdgZSAlGCHBAwAA8AAMGCNAZNUy6TzjxuE4K5MQ+MyA1JiDUQTBg0d7LSAAWAAGPAbA1zp2MAONyEhewUrICUgJdghAQPAADAADFhjwGFW/8eNQnBXh8M36QqkxBqI2P34vftBfBFfYAAYMMGASapl0uEmJGSvYAWkBKQEOyRgABgABoABaww4zOrLbhKCuzocvklXICXWQDRh0NDBTgsYAAaAAb8xYJJqmXSW/1YI7so0NC4zICUgJdghAQPAADAADFhjgCsdG9jhJiRkr2AFpMQaiNj9+L37QXwRX2AAGDDBgMOsvvwWIbirw+GbdAVSAlKCHRIwAAwAA8CANQZMUi2Tztu3CsFdmYbGZQakxBqIJgwaOthpAQPAADDgNwa40rGBHW5CQvYKVkBKQEqwQwIGgAFgABiwxoDDrP7274Tgrg6Hb9IVSIk1ELH78Xv3g/givsAAMGCCAZNUy6TDTUjIXsEKSAlICXZIwAAwAAwAA9YYcJjVV9wuBHd1OHyTrkBKrIFowqChg50WMAAMAAN+Y8Ak1TLpvHOHENyVaWhcZkBKQEqwQwIGgAFgABiwxgBXOjaww01IyF7BCkiJNRCx+/F794P4Ir7AADBgggGHWf2dUUJwV4fDN+kKpASkBDskYAAYAAaAAWsMmKRaJp13fy8Ed2UaGpcZkBJrIJowaOhgpwUMAAPAgN8Y4ErHBna4CQnZK1gBKQEpwQ4JGAAGgAFgwBoDDrP6u6OF4K4Ww29paRFqrWVm5cqVRm1ASqyBiN2P37sfxBfxBQaAARMM1ErHjO+5CQnZy1jmzp0bkItFixYFLdesWRM833jjjamWJCn5zne+UyUnugYgJSAl2CEBA8AAMAAMWGNAl1pzkr03RgjumnGodEJy1llnRVq1tbUFRCMiTHmQpyw6FZASayCaMGjoYKcFDAADwIDfGNCl1pxkK8cKwV0zDpUIha4kyZN0k/T11nVWWGT4OP3+OBFfxBcYAAbKhgGW5GhmhJuQrBwrZs6cGatJg2lvb088EUkiGTpbpJukD1KCkxIc2wIDwAAwAAxYY0CXdnOSrbxbCOYqCUL4mjT60aNHJ5OJhBMUnS3Zl/adTpifrGwMGv5i1wgMAAPAgN8YyC9jxiyvulcI7hrrJFkwefJkkBK/wYzFCvEFBoABYKC5MZCcxNnfcBMSspexJP7YBScl+JCb+0NG/BA/YAAY8AEDGbN6Peqr7hOCu2YcD5GSY489NtLqhhtuSDxBiSh+9IAf31j/rNCHDwY+YOEHBoABYCA/DOjSbk4ybkJC9jKW008/PUZAiGT07ds3YinpRIWUQEpASvBLbMAAMAAMAAO5YCCSi/N9WD1OCO5qMeLNNtusSiySCIaOlEhd9RoeAv71TS4gxa4kv10J5hZzCwwAA0XCQDil5ny/+gEhuGvOQ85qHqQEpAS7J2AAGAAGgAFrDGRNu3XocxMSslewAlJiDcQiMXWMBTtHYAAYAAYagwGHWf39NiG4q8Phm3RVGlJy000XiXnz6Jd6yvXhTpp0o7j99stK5zfFedSo4aWM+YIF44OYd3TMKl3cEfNyxvzBB69tINZNUi2TzgcPCsFdmYbGZcZ7UtLa2irUWhZiovr9xhuPNvDDdUcGTz3124j5R7gfNOggxNzzjYj6nZcl5uvWzYx9541Z47jSsYEdbkJC9gpWvCYlQ4cOCUAbJiH0Ae+99+7eL9TkZ79+X6n6uXbtjGAu1qx5uioLz4tP9+T7woUPV/084ohDYjjwyV/pi0xO8pmuZcK76jf5Hpb5eE8+hr9zGXN85+42QU5z+gcPCcFdnTpQuzOvSQl9sMOH/yiyMD3++M3eJ6iNG5/R+kjz4ftCvddeu2l99N1vmYxUvJc15mX4zmXMVbJV1pjL+Xj5ZfrlTZASY/JSmyc41fCelOjASR/t0qWPOQauu49kwICvJiZm35Mz+XfJJf8di63vMZcLsor3iRNHarGg6jXzM2IeXVvKEnPdWkYynTxffDvM2WvGC8FdHQ7fpKsIKZk2bZp4+eWXI+26d+8uunXrJuSV/miKfYl+PPkCZdPRta4PAu1VV50TS1w63WaUJX2YdMzr/oN1H/OXXro/FlvfY/7UU79LjC1i7haDrtaMssdch+vGrHH2GTFzyzWPCMFdMw8i3wYRUkLkI1w+85nPVMnIcccdJz75yU8GzyeccEJYLcO928VBB1paMEh+wQWnxBKXq8Uk737IP53v/fvrT1DyHo9L++T3kiXxUzDfY/7QQ9dqY05zr8OCy5jk3RdiHl9XyxBznY+NWeMypMB6VbkJCdkrWImQEjoNCRf1Wb5TyYuUh6/qn5Hd9Cdn4x9PnguWDrRykR416vLSkRKaj6Q5yTMOLm2Tf9On3xGLLcl9jjmdDuliu379pn+h4DIGrvtCzKPrallirsM7yXTyfDEZznw53384QQjumvOQs5pPJSVJ5COJrNTuPPrx5AuU5B2ie9C69fucc07UfpiN+WDd+k4+HnnkQC0pyRtvjbavw/WwYWdosdDosXL2j5hHv7GyxFyHd5IddNC+se+fE29xW7UzH5vGh5OE4K5sg+MxFCElRELWr19ftewDKTnrrOMjAB0zZoT3izR9NEkfbM+ePSPzEf/Aogtcs70/9NADE31vNl+yjpdiruKdZDosZLVdZH1dzPGdl/c7/8c/Jjte46opM/8bbkJC9gpWIqSExkanIK+99lowzO9///vBc3jM9L5ZTkrefXdqsCBPmDCyClJaoNvbR1efi7zY1jM2+lss4WREu4fwcz22i96W/Ozbt081xvRcBt/VmM+f3xb4XQa8U3zV77zMMS/6N8oxPopvMb7zcIbM+X7to0Jw15yHnNV8jJTsscceAemgUxIiH+GrvM/aycf67nfhvXv3ChZmArCsHB9EM9iQ/srrhg3t1UTdDOO3HSP9qXHps7za2mq2direzz33h4i5079Z4X6NkxiX17LEnL5N6bO8NmaN+zjD5X637jEhuGvug87WQYyUyOYvvvii+PznP18lJeeff758VcfV/QfbbEkF4wVGgAFgABhoJgzUkRKzNuUmJGSvYCWRlOQzzmYCGsaKhREYAAaAAWCgFgbyyZZaq+smC8FdtR01TghS4vnRLhaUWgsK3gMjwAAwUA8GHCZwbkJC9gpWQEpASkrxOwdYdOtZdNEW+AEGkjHgMKuv/6MQ3NXh8E26AikBKQEpAQaAAWAAGLDGgEmqZdJZP0UI7so0NC4zICXWQMTOIXnngLnB3AADwEBZMMCVjg3scBMSslewAlICUoIdEjAADAADwIA1Bhxm9Q1PCMFdHQ7fpCuQEmsglmUXAD+x4wUGgAFgIBkDJqmWSWfDVCG4K9PQuMyAlICUYIcEDAADwAAwYI0BrnRsYIebkJC9ghWQEmsgYueQvHPA3GBugAFgoCwYcJjVO54Sgrs6HL5JVyAlICXYIQEDwAAwAAxYY8Ak1TLpcBMSslewAlJiDcSy7ALgJ3a8wAAwAAwkY8BhVu+YJgR3dTh8k65ASkBKsEMCBoABYAAYsMaASapl0tk4XQjuyjQ0LjMgJdZAxM4heeeAucHcAAPAQFkwwJWODexwExKyV7ACUgJSgh0SMAAMAAPAgDUGHGb1zqeF4K4Oh2/SFUiJNRDLsguAn9jxAgPAADCQjAGTVMuk0zlDCO7KNDQuMyAlICXYIQEDwAAwAAxYY4ArHRvY4SYkZK9gBaTEGojYOSTvHDA3mBtgABgoCwYcZvWumUJwV4fDN+kKpASkBDskYAAYAAaAAWsMmKRaJh1uQkL2ClZASqyBWJZdAPzEjhcYAAaAgWQMOMzqXbOE4K51DH/48OGio6Mjs4VrrrlGjB07VtsOpASkBDskYAAYAAaAAWsMaHNrPsLKM0JwV4uRtrS0CKoDBw4MrnRvUmS7PfbYQ3zyk58M2q5ZsybS1MxSpEk9D2DbyWwbc4O5AQaAAWCg+TBQT07M2JabkJC9jEUSkXAzIhtbb711WBS77+rqCkjI8uXLq+/+/d//PZBVBUIIkBJrdozFo/kWD8QMMQMGgAFuDIRTas73lTlCcNeMQyYCMm3atEirdevWxchFRIHIxkenKzp5+Ec5ICUgJTi2BQaAAWAAGLDGgJpm83zmJlRkz7xs2LAhkXwQ6Ugr9P6BBx6IqahkJd1KrHm9gjwmFDax8wEGgAFgABhoFAbqzYtZ2vP7KElB+Jo0okmTJtVFSt55552YadmvfOGYlMhu3V/J8TIWNeBlmoOyxnzmzJmJC4fv8UfMfY9w3D+KOWEexW4GaO7UmmTp7rvvTlxban179H7jxo0x0yQPty1Npg47HZsVjwVqwD12NeZaWWMOUhKDgveCssec/EfJfwaeffbZCIEI91hrvaX3f/nLX8JNgns1R4GUxKbIL4EacL+8S/em1keS3rp535Y9QTVv5OxHXvaYg5TYYydry6R1NUku7dP7o446Sj5WryQ/4IADPn6u3nl+U2vCfHWf/C6z777GNc2vsieotLnx9V3ZYw5S4g7ZlE+22GKLSIe9evWqmWeGDh0a06G/UaLmJ5yURKbWvweQEv9iWsujsieoWvPj4/uyxxykxB2qV6xYERCJe+65J+j0+eefD56nTp0aGYRKNuglybbaaquqHj336NGj+hzoRJ7wgBnADGAGMAOYAcwAZiBlBmbNmhUQDLnpHTNmTExbR0pISbah68477xxvF5NAgBnADGAGMAOYAcwAZqABM1CaH980YG7RJWYAM4AZwAxgBjADGWYApCTDZEEVM4AZwAxgBjADmIH8ZgCkJL+5hWXMAGYAM4AZwAxgBjLMAEhJhsmCKmYAM4AZwAxgBjAD+c2A96RkxIgRkd/2Pf5VCUI9AAADWUlEQVT44/ObzQJZvv/++yN+F2houQ6lf//+Eb/pN7wfeeSRXPssivHwb7XL+6KMzeU4yuS79FW9upzvRvb1u9/9Lva9N3I86Lv+GfCelNDHKv9ddFtbWwDgzs7O+meu4BbKukiR3yeccEI1OnIeqgKPb1pbW8X8+fMDD//6179WF2uPXY65du+994ru3bsHvsdeeiggfLe3t8eqh67GXFq6dGkQZ9p4Uunq6tL+xdBYQwgKPQNekxL6YLfZZptIAA477LDSLFjk+Ouvv14qfyPB/uihTMRE9Z9833HHHVWxl88ffPBBFevkdxlKWfzUxbLMvuvmwxeZ119uEmiT5L4ENewHSIko1c45HHu6J6z/4Ac/UMVePpOv9Nclpd9eOqk4Vaa1LOw6+V1W38Pz4ON9aUnJnXfe6WM8Yz6BlGxKzIMGDYrNje+Cz3/+86VZuH/9619HfC1LwpLJOXz1Hdfkn/T39ttvr96TbNGiRWVw32sfS0tKTjnlFK8DK50rOymRi5ecD9+vBx98cGSRpp+zl6FQnMNFfQ6/8+meknK4mPyP0cL6zXovv+twnHffffcA++vXr29WtzBuIpw+z0IYsGE/SX7RRReFRd7el5mUyIXL2+DWcGzjxo3BIu37j28ozib/M7Aa0+XNa5oP+mVfn0vSt50k93kufPOttKSEfmO9DKWspET+0+AyxDjNR98X6aeeeiogXuq/QCG/pSxtfnx853vMKWZJPn7jG98I3vkY17L45D0poX8GHC7Lly8vFWjLSEqSFqwwDspy7/tcPPnkk9UEJX1Vr2WJtfRT+i+ffbz27dtXu45/4hOf0Mp9nANfffKalPTo0SMG0DJ8sGGwlo2UfO973wtivmTJkvA0lPae8P6Zz3ymdP6T32Usa9euDfD/zjvveO8+xXj16tURP0l2zDHHRGR4aK4Z8P7LJZCqtblCZDda1efws53F5mgV9lO9bw4P7Eap/oKr9H2HHXawM9jkrcj/MhQZ5/D1jjvuKIPrYuXKlbG1vSxx9znA5fhyhRCzZ8/2OY7wDTOAGcAMYAYwA00/A6UhJU0fKTiAGcAMYAYwA5gBz2cApMTzAMM9zABmADOAGcAMNMsMgJQ0S6QwTswAZgAzgBnADHg+A/8PMu09WU1BFBYAAAAASUVORK5CYII=;" vertex="1" parent="1">
          <mxGeometry x="850" y="160" width="251.83" height="200" as="geometry" />
        </mxCell>
        <mxCell id="L8nepF0H7HIKw9ve7Z6O-8" value="Epoch 40" style="text;html=1;align=center;verticalAlign=middle;resizable=0;points=[];autosize=1;strokeColor=none;fillColor=none;fontSize=15;fontStyle=1" vertex="1" parent="1">
          <mxGeometry x="930.9100000000001" y="360" width="90" height="30" as="geometry" />
        </mxCell>
      </root>
    </mxGraphModel>
  </diagram>
</mxfile>
